<?xml version="1.0" encoding="utf-8"?>
<!-- Generator: Adobe Illustrator 18.1.0, SVG Export Plug-In . SVG Version: 6.00 Build 0)  -->
<!DOCTYPE svg PUBLIC "-//W3C//DTD SVG 1.1 Tiny//EN" "http://www.w3.org/Graphics/SVG/1.1/DTD/svg11-tiny.dtd">
<svg version="1.1" baseProfile="tiny" id="Layer_1" xmlns="http://www.w3.org/2000/svg" xmlns:xlink="http://www.w3.org/1999/xlink"
	 x="0px" y="0px" viewBox="0 0 25.4 22.8" xml:space="preserve">
<g>
	<path fill="#010101" d="M7.3,22.8c-1.5,0-3.1-0.6-4.8-2.3c-3.8-3.8-3.4-8.4,1-12.8c2.2-2.2,6.7-6.3,6.9-6.5c0.4-0.4,1-0.3,1.4,0.1
		c0.4,0.4,0.3,1-0.1,1.4c0,0-4.6,4.2-6.8,6.4c-3.6,3.6-4,7-1,10c2.6,2.6,4.9,2.3,8.4-1.2l9.1-9.1c1.3-1.3,1.9-2.4,1.9-3.2
		c0-0.9-0.8-1.6-1.5-2.2c-0.2-0.1-0.3-0.3-0.4-0.4c-1.1-1.1-2-1-2.6-0.8c-1.1,0.4-2.3,1.5-3.3,2.4l-8.2,8.2
		c-0.5,0.5-1.6,1.9-0.4,3.1c1.3,1.3,3-0.3,3.1-0.4L19,6.4c0.4-0.4,1-0.4,1.4,0s0.4,1,0,1.4l-9.1,9.1c-1.6,1.6-4.1,2.2-5.9,0.4
		c-1.6-1.6-1.5-4,0.4-5.9l8.2-8.2c1.2-1.2,2.5-2.4,4-2.9c1.7-0.6,3.3-0.1,4.7,1.3c0.1,0.1,0.3,0.2,0.4,0.4c0.9,0.8,2.1,1.9,2.1,3.7
		c0,1.4-0.8,3-2.5,4.7l-9.1,9.1C12.2,21,9.9,22.8,7.3,22.8z"/>
</g>
</svg>
