<?xml version="1.0" encoding="utf-8"?>
<!-- Generator: Adobe Illustrator 18.1.0, SVG Export Plug-In . SVG Version: 6.00 Build 0)  -->
<!DOCTYPE svg PUBLIC "-//W3C//DTD SVG 1.1 Tiny//EN" "http://www.w3.org/Graphics/SVG/1.1/DTD/svg11-tiny.dtd">
<svg version="1.1" baseProfile="tiny" id="Layer_1" xmlns="http://www.w3.org/2000/svg" xmlns:xlink="http://www.w3.org/1999/xlink"
	 x="0px" y="0px" viewBox="0 0 23.6 20" xml:space="preserve">
<g>
	<path d="M11.8,0C5.3,0,0,5.3,0,11.8c0,2,0.5,3.9,1.5,5.7l0.1,0.2c0.3,0.5,0.8,0.7,1.3,0.7c0.3,0,0.5-0.1,0.8-0.2
		c0.1,0,0.2-0.1,0.2-0.2l1.5-0.8c0.1-0.1,0.2-0.2,0.3-0.3s0-0.3-0.1-0.4l-0.3-0.5c-0.2-0.3-0.5-0.4-0.8-0.2L4.1,16l0,0
		C3.4,14.7,3,13.2,3,11.8c0-1.3,0.3-2.5,0.8-3.6l0.4,0.2c0.1,0.1,0.2,0.1,0.3,0.1c0.2,0,0.4-0.1,0.5-0.3l0.3-0.5
		c0.1-0.1,0.1-0.3,0.1-0.4C5.3,7.1,5.2,7,5,6.9L4.6,6.7C6.1,4.7,8.4,3.3,11,3v0.9c0,0.3,0.3,0.6,0.6,0.6h0.5c0.3,0,0.6-0.3,0.6-0.6
		V3c2.6,0.2,4.9,1.6,6.3,3.6l-0.4,0.2c-0.1,0.1-0.2,0.2-0.3,0.3s0,0.3,0.1,0.4l0.3,0.5c0.1,0.2,0.3,0.3,0.5,0.3c0.1,0,0.2,0,0.3-0.1
		l0.4-0.2c0.5,1.1,0.8,2.3,0.8,3.6c0,1.5-0.4,2.9-1.1,4.2l-0.4-0.2c-0.3-0.2-0.6-0.1-0.8,0.2l-0.3,0.5C18,16.6,18,16.7,18,16.9
		c0,0.1,0.1,0.3,0.3,0.3l1.5,0.8c0.1,0,0.1,0.1,0.2,0.1c0.7,0.4,1.6,0.2,2.1-0.5l0.1-0.2c1-1.7,1.5-3.7,1.5-5.7
		C23.6,5.3,18.3,0,11.8,0z"/>
	<path d="M13.1,13.1c2.1-0.2,5.9-0.5,6.2-0.5c0.4-0.1,0.7-0.3,0.7-0.7c0-0.4-0.3-0.6-0.7-0.7c-0.2,0-4.1-0.4-6.2-0.6
		c-0.3-0.4-0.8-0.6-1.3-0.6c-1,0-1.8,0.8-1.8,1.8c0,1,0.8,1.8,1.8,1.8C12.3,13.6,12.8,13.4,13.1,13.1z"/>
	<path d="M14.5,17.3H9.2c-0.6,0-1,0.4-1,1V19c0,0.6,0.4,1,1,1h5.3c0.6,0,1-0.4,1-1v-0.7C15.5,17.7,15,17.3,14.5,17.3z"/>
</g>
</svg>
