<?xml version="1.0" encoding="utf-8"?>
<!-- Generator: Adobe Illustrator 18.1.0, SVG Export Plug-In . SVG Version: 6.00 Build 0)  -->
<!DOCTYPE svg PUBLIC "-//W3C//DTD SVG 1.1 Tiny//EN" "http://www.w3.org/Graphics/SVG/1.1/DTD/svg11-tiny.dtd">
<svg version="1.1" baseProfile="tiny" id="Layer_1" xmlns="http://www.w3.org/2000/svg" xmlns:xlink="http://www.w3.org/1999/xlink"
	 x="0px" y="0px" viewBox="0 0 22.6 20" xml:space="preserve">
<g>
	<path fill="none" d="M16.2,10L14,12.1l0.5,3c0,0.2,0,0.3-0.2,0.4c-0.1,0.1-0.2,0.1-0.2,0.1c-0.1,0-0.1,0-0.2,0l-2.7-1.4l-2.7,1.4
		c-0.1,0.1-0.3,0.1-0.4,0c-0.1-0.1-0.2-0.2-0.2-0.4l0.5-3L6.4,10C6.3,9.9,6.3,9.8,6.3,9.6c0-0.1,0.2-0.3,0.3-0.3l3-0.4l1.3-2.7
		c0.1-0.3,0.6-0.3,0.7,0L13,8.9l3,0.4c0.2,0,0.3,0.1,0.3,0.3C16.3,9.8,16.3,9.9,16.2,10z"/>
	<path d="M20,2.6H9.6C9.6,1.2,8.4,0,7,0H2.6C1.2,0,0,1.2,0,2.6v2.6v0.9v10.5v0.8C0,18.8,1.2,20,2.6,20H20c1.4,0,2.6-1.2,2.6-2.6
		v-0.8V5.2C22.6,3.8,21.4,2.6,20,2.6z M20.9,17.4c0,0.5-0.4,0.9-0.9,0.9H2.6c-0.5,0-0.9-0.4-0.9-0.9v-0.8V5.2c0-0.5,0.4-0.9,0.9-0.9
		H20c0.5,0,0.9,0.4,0.9,0.9v11.3V17.4z"/>
	<path d="M16,9.3l-3-0.4l-1.3-2.7c-0.1-0.3-0.6-0.3-0.7,0L9.6,8.9l-3,0.4c-0.2,0-0.3,0.1-0.3,0.3c0,0.1,0,0.3,0.1,0.4l2.1,2.1
		l-0.5,3c0,0.2,0,0.3,0.2,0.4c0.1,0.1,0.3,0.1,0.4,0l2.7-1.4l2.7,1.4c0.1,0,0.1,0,0.2,0c0.1,0,0.2,0,0.2-0.1
		c0.1-0.1,0.2-0.2,0.2-0.4l-0.5-3l2.1-2.1c0.1-0.1,0.1-0.3,0.1-0.4C16.2,9.5,16.1,9.4,16,9.3z"/>
</g>
</svg>
