<?xml version="1.0" encoding="utf-8"?>
<!-- Generator: Adobe Illustrator 18.1.0, SVG Export Plug-In . SVG Version: 6.00 Build 0)  -->
<!DOCTYPE svg PUBLIC "-//W3C//DTD SVG 1.1 Tiny//EN" "http://www.w3.org/Graphics/SVG/1.1/DTD/svg11-tiny.dtd">
<svg version="1.1" baseProfile="tiny" id="Layer_1" xmlns="http://www.w3.org/2000/svg" xmlns:xlink="http://www.w3.org/1999/xlink"
	 x="0px" y="0px" viewBox="0 0 24.1 24.1" xml:space="preserve">
<g>
	<path fill="#010101" d="M12,7.1c-2.7,0-4.9,2.2-4.9,4.9S9.3,17,12,17c2.7,0,4.9-2.2,4.9-4.9S14.8,7.1,12,7.1z M12,14.1
		c-1.1,0-2.1-0.9-2.1-2.1c0-1.1,0.9-2.1,2.1-2.1c1.1,0,2.1,0.9,2.1,2.1C14.1,13.2,13.2,14.1,12,14.1z"/>
	<path fill="#010101" d="M24.1,13.5v-3l-3.6-0.6c-0.2-0.8-0.5-1.6-1-2.4l2.1-3l-2.1-2.1l-2.9,2.1c-0.7-0.4-1.5-0.8-2.4-1L13.5,0h-3
		L9.9,3.6c-0.9,0.2-1.7,0.5-2.4,1L4.6,2.4L2.5,4.6l2.1,2.9c-0.4,0.7-0.8,1.5-1,2.4L0,10.5v3l3.5,0.6c0.2,0.9,0.6,1.7,1,2.4l-2.1,2.9
		l2.1,2.1l2.9-2.1c0.7,0.4,1.5,0.8,2.4,1l0.6,3.6h3l0.6-3.6c0.9-0.2,1.7-0.6,2.4-1l3,2.1l2.1-2.1l-2.1-2.9c0.4-0.7,0.8-1.5,1-2.4
		L24.1,13.5z M12,18.6c-3.6,0-6.5-2.9-6.5-6.5S8.4,5.5,12,5.5c3.6,0,6.5,2.9,6.5,6.5S15.6,18.6,12,18.6z"/>
</g>
</svg>
