<?xml version="1.0" encoding="utf-8"?>
<!-- Generator: Adobe Illustrator 18.1.0, SVG Export Plug-In . SVG Version: 6.00 Build 0)  -->
<!DOCTYPE svg PUBLIC "-//W3C//DTD SVG 1.1 Tiny//EN" "http://www.w3.org/Graphics/SVG/1.1/DTD/svg11-tiny.dtd">
<svg version="1.1" baseProfile="tiny" id="Layer_1" xmlns="http://www.w3.org/2000/svg" xmlns:xlink="http://www.w3.org/1999/xlink"
	 x="0px" y="0px" viewBox="0 0 25.6 13.6" xml:space="preserve">
<path d="M23.8,0c-1,0-1.8,0.8-1.8,1.8c0,0.2,0,0.4,0.1,0.5l-3.7,3.8C18.2,6,18,6,17.8,6c-0.4,0-0.7,0.1-1,0.3L14.6,5
	c0-0.1,0-0.1,0-0.2c0-1-0.8-1.8-1.8-1.8c-1,0-1.8,0.8-1.8,1.8c0,0.1,0,0.3,0,0.4l-2.5,2C8.3,7.1,8.1,7,7.8,7C6.8,7,6.1,7.8,6,8.7
	l-3.4,1.5C2.4,10.1,2.1,10,1.8,10c-1,0-1.8,0.8-1.8,1.8c0,1,0.8,1.8,1.8,1.8c1,0,1.8-0.8,1.8-1.8c0-0.1,0-0.2,0-0.3l3.1-1.3
	c0.3,0.3,0.7,0.4,1.2,0.4c1,0,1.8-0.8,1.8-1.8c0-0.1,0-0.3,0-0.4l2.5-2c0.2,0.1,0.5,0.2,0.8,0.2c0.4,0,0.7-0.1,1-0.3L16,7.7
	c0,0,0,0.1,0,0.1c0,1,0.8,1.8,1.8,1.8c1,0,1.8-0.8,1.8-1.8c0-0.2,0-0.4-0.1-0.5l3.7-3.8c0.2,0.1,0.4,0.1,0.6,0.1
	c1,0,1.8-0.8,1.8-1.8C25.6,0.8,24.8,0,23.8,0z"/>
</svg>
