<?xml version="1.0" encoding="utf-8"?>
<!-- Generator: Adobe Illustrator 18.1.0, SVG Export Plug-In . SVG Version: 6.00 Build 0)  -->
<!DOCTYPE svg PUBLIC "-//W3C//DTD SVG 1.1 Tiny//EN" "http://www.w3.org/Graphics/SVG/1.1/DTD/svg11-tiny.dtd">
<svg version="1.1" baseProfile="tiny" id="Layer_1" xmlns="http://www.w3.org/2000/svg" xmlns:xlink="http://www.w3.org/1999/xlink"
	 x="0px" y="0px" viewBox="0 0 23 22" xml:space="preserve">
<g>
	<path fill="#010101" d="M1.2,5C0.6,5,0,4.4,0,3.8V1.2C0,0.6,0.6,0,1.2,0h2.5C4.4,0,5,0.6,5,1.2v2.5C5,4.4,4.4,5,3.8,5H1.2z"/>
	<path fill="#010101" d="M1.2,13.5c-0.7,0-1.2-0.6-1.2-1.2V9.7c0-0.7,0.6-1.2,1.2-1.2h2.5C4.4,8.5,5,9.1,5,9.7v2.5
		c0,0.7-0.6,1.2-1.2,1.2H1.2z"/>
	<path fill="#010101" d="M1.2,22C0.6,22,0,21.4,0,20.7v-2.5C0,17.6,0.6,17,1.2,17h2.5C4.4,17,5,17.6,5,18.2v2.5
		C5,21.4,4.4,22,3.8,22H1.2z"/>
	<path fill="#010101" d="M10.2,5C9.6,5,9,4.4,9,3.8V1.2C9,0.6,9.6,0,10.2,0h2.5C13.4,0,14,0.6,14,1.2v2.5C14,4.4,13.4,5,12.8,5H10.2
		z"/>
	<path fill="#010101" d="M10.2,13.5c-0.7,0-1.2-0.6-1.2-1.2V9.7c0-0.7,0.6-1.2,1.2-1.2h2.5c0.7,0,1.2,0.6,1.2,1.2v2.5
		c0,0.7-0.6,1.2-1.2,1.2H10.2z"/>
	<path fill="#010101" d="M10.2,22C9.6,22,9,21.4,9,20.7v-2.5c0-0.7,0.6-1.2,1.2-1.2h2.5c0.7,0,1.2,0.6,1.2,1.2v2.5
		c0,0.7-0.6,1.2-1.2,1.2H10.2z"/>
	<path fill="#010101" d="M19.2,5C18.6,5,18,4.4,18,3.8V1.2C18,0.6,18.6,0,19.2,0h2.5C22.4,0,23,0.6,23,1.2v2.5C23,4.4,22.4,5,21.8,5
		H19.2z"/>
	<path fill="#010101" d="M19.2,13.5c-0.7,0-1.2-0.6-1.2-1.2V9.7c0-0.7,0.6-1.2,1.2-1.2h2.5c0.7,0,1.2,0.6,1.2,1.2v2.5
		c0,0.7-0.6,1.2-1.2,1.2H19.2z"/>
	<path fill="#010101" d="M19.2,22c-0.7,0-1.2-0.6-1.2-1.2v-2.5c0-0.7,0.6-1.2,1.2-1.2h2.5c0.7,0,1.2,0.6,1.2,1.2v2.5
		c0,0.7-0.6,1.2-1.2,1.2H19.2z"/>
</g>
</svg>
