<?xml version="1.0" encoding="utf-8"?>
<!-- Generator: Adobe Illustrator 18.1.0, SVG Export Plug-In . SVG Version: 6.00 Build 0)  -->
<!DOCTYPE svg PUBLIC "-//W3C//DTD SVG 1.1 Tiny//EN" "http://www.w3.org/Graphics/SVG/1.1/DTD/svg11-tiny.dtd">
<svg version="1.1" baseProfile="tiny" id="Layer_1" xmlns="http://www.w3.org/2000/svg" xmlns:xlink="http://www.w3.org/1999/xlink"
	 x="0px" y="0px" viewBox="0 0 16 21.2" xml:space="preserve">
<g>
	<path d="M11.8,16H4.2c-0.6,0-1-0.4-1-1s0.4-1,1-1h7.6c0.6,0,1,0.4,1,1S12.4,16,11.8,16z M3.2,12c0-0.6,0.4-1,1-1h6.1
		c0.6,0,1,0.4,1,1s-0.4,1-1,1H4.2C3.6,13,3.2,12.6,3.2,12z M11.8,10H4.2c-0.6,0-1-0.4-1-1s0.4-1,1-1h7.6c0.6,0,1,0.4,1,1
		S12.4,10,11.8,10z"/>
	<path d="M4.2,13h6.1c0.6,0,1-0.4,1-1s-0.4-1-1-1H4.2c-0.6,0-1,0.4-1,1S3.6,13,4.2,13z"/>
	<path d="M11.8,14H4.2c-0.6,0-1,0.4-1,1s0.4,1,1,1h7.6c0.6,0,1-0.4,1-1S12.4,14,11.8,14z"/>
	<path d="M11.8,8H4.2c-0.6,0-1,0.4-1,1s0.4,1,1,1h7.6c0.6,0,1-0.4,1-1S12.4,8,11.8,8z"/>
	<path d="M13.8,3.4c-0.2-0.2-0.4-0.4-0.6-0.6c-0.2-0.2-0.4-0.4-0.6-0.6C11.3,0.8,10.5,0,9.6,0H3.2C1.4,0,0,1.4,0,3.2v14.4
		c0,1.8,1.4,3.2,3.2,3.2h9.6c1.8,0,3.2-1.4,3.2-3.2V6.4C16,5.5,15.2,4.7,13.8,3.4z M14.4,17.6c0,0.9-0.7,1.6-1.6,1.6H3.2
		c-0.9,0-1.6-0.7-1.6-1.6V3.2c0-0.9,0.7-1.6,1.6-1.6l5.8,0c0.6,0.1,0.6,0.9,0.6,1.6v2.4c0,0.4,0.4,0.8,0.8,0.8h2.4
		c0.8,0,1.6,0,1.6,0.8V17.6z"/>
</g>
<rect y="0.4" fill="none" width="16" height="20.8"/>
<rect y="0.4" fill="none" width="16" height="20.8"/>
</svg>
