<?xml version="1.0" encoding="utf-8"?>
<!-- Generator: Adobe Illustrator 18.1.0, SVG Export Plug-In . SVG Version: 6.00 Build 0)  -->
<!DOCTYPE svg PUBLIC "-//W3C//DTD SVG 1.1 Tiny//EN" "http://www.w3.org/Graphics/SVG/1.1/DTD/svg11-tiny.dtd">
<svg version="1.1" baseProfile="tiny" id="Layer_1" xmlns="http://www.w3.org/2000/svg" xmlns:xlink="http://www.w3.org/1999/xlink"
	 x="0px" y="0px" viewBox="0 0 18 18.1" xml:space="preserve">
<path fill="#010101" d="M17.8,15.7l-2.1,2.1c-0.4,0.4-1,0.4-1.4,0L9,12.5l-5.2,5.2c-0.4,0.4-1,0.4-1.4,0l-2.1-2.1
	c-0.4-0.4-0.4-1,0-1.4L5.5,9L0.3,3.8c-0.4-0.4-0.4-1,0-1.4l2.1-2.1c0.4-0.4,1-0.4,1.4,0L9,5.5l5.2-5.2c0.4-0.4,1-0.4,1.4,0l2.1,2.1
	c0.4,0.4,0.4,1,0,1.4L12.5,9l5.2,5.2C18.1,14.7,18.1,15.3,17.8,15.7z"/>
</svg>
