<?xml version="1.0" encoding="utf-8"?>
<!-- Generator: Adobe Illustrator 18.1.1, SVG Export Plug-In . SVG Version: 6.00 Build 0)  -->
<!DOCTYPE svg PUBLIC "-//W3C//DTD SVG 1.1//EN" "http://www.w3.org/Graphics/SVG/1.1/DTD/svg11.dtd">
<svg version="1.1" id="Layer_1" xmlns="http://www.w3.org/2000/svg" xmlns:xlink="http://www.w3.org/1999/xlink" x="0px" y="0px"
	 viewBox="0 0 792 612" enable-background="new 0 0 792 612" xml:space="preserve">
<path fill="#757575" d="M108,150c-6.7,0-12,5.3-12,12v192c0,6.7,5.3,12,12,12c6.7,0,12-5.3,12-12V162C120,155.3,114.7,150,108,150z"
	/>
<path fill="#757575" d="M252,150c-6.7,0-12,5.3-12,12v192c0,6.7,5.3,12,12,12s12-5.3,12-12V162C264,155.3,258.7,150,252,150z"/>
<path fill="#757575" d="M540,246c6.7,0,12-5.3,12-12v-72c0-6.7-5.3-12-12-12c-6.7,0-12,5.3-12,12v72C528,240.7,533.3,246,540,246z"
	/>
<path fill="#757575" d="M684,150c-6.7,0-12,5.3-12,12v72c0,6.7,5.3,12,12,12s12-5.3,12-12v-72C696,155.3,690.7,150,684,150z"/>
<path fill="#757575" d="M684,78c-30.7,0-57.1,16.3-72,40.8C597.1,94.3,570.7,78,540,78c-30.7,0-57.1,16.3-72,40.8
	C453.1,94.3,426.7,78,396,78s-57.1,16.3-72,40.8C309.1,94.3,282.7,78,252,78s-57.1,16.3-72,40.8C165.1,94.3,138.7,78,108,78
	c-46.1,0-84,37.9-84,84v192c0,46.1,37.9,84,84,84c23.5,0,44.6-9.6,60-25.4V486c0,26.4,21.6,48,48,48s48-21.6,48-48v-49
	c25.4-3.8,47.5-18.7,60-39.8c14.9,24.5,41.3,40.8,72,40.8s57.1-16.3,72-40.8c14.9,24.5,41.3,40.8,72,40.8c30.7,0,57.1-16.3,72-40.8
	c14.9,24.5,41.3,40.8,72,40.8c46.1,0,84-37.9,84-84V162C768,115.9,730.1,78,684,78z M108,414c-33.1,0-60-26.9-60-60V162
	c0-33.1,26.9-60,60-60s60,26.9,60,60v192C168,387.1,141.1,414,108,414z M252,414c-6.7,0-12,5.3-12,12v60c0,13.9-12,25.4-26.4,24
	c-12.5-1.4-21.6-12.5-21.6-25V354V163.9c0-31.2,23-58.6,54.2-61.4C281.8,99.1,312,127,312,162v192C312,387.1,285.1,414,252,414z
	 M390.2,413.5c-31.2-2.9-54.2-30.2-54.2-61.4V318c0-6.7,5.3-12,12-12h24c6.7,0,12,5.3,12,12v35.5c0,6.2,4.3,12,10.6,12.5
	c7.2,0.5,13.4-4.8,13.4-12v-36c0-19.7-16.3-36-36-36c-19.7,0-36-16.3-36-36v-82.1c0-31.2,23-58.6,54.2-61.4
	C425.8,99.1,456,127,456,162v36c0,6.7-5.3,12-12,12h-24c-6.7,0-12-5.3-12-12v-35.5c0-6.2-4.3-12-10.6-12.5
	c-7.2-0.5-13.4,4.8-13.4,12v36c0,19.7,16.3,36,36,36l0,0c19.7,0,36,16.3,36,36v84C456,389,425.8,416.9,390.2,413.5z M534.2,413.5
	c-31.2-2.9-54.2-30.2-54.2-61.4V163.9c0-31.2,23-58.6,54.2-61.4c35.5-3.4,65.8,25,65.8,59.5v120c0,6.7-5.3,12-12,12h-24
	c-19.7,0-36,16.3-36,36v23.5c0,6.2,4.3,12,10.6,12.5c7.2,0.5,13.4-4.8,13.4-12v-24c0-6.7,5.3-12,12-12h24c6.7,0,12,5.3,12,12v24
	C600,389,569.8,416.9,534.2,413.5z M744,282c0,6.7-5.3,12-12,12h-24c-19.7,0-36,16.3-36,36v23.5c0,6.2,4.3,12,10.6,12.5
	c7.2,0.5,13.4-4.8,13.4-12v-24c0-6.7,5.3-12,12-12h24c6.7,0,12,5.3,12,12v24c0,35-30.2,62.9-65.8,59.5
	c-31.2-2.9-54.2-30.2-54.2-61.4V163.9c0-31.2,23-58.6,54.2-61.4c35.5-3.4,65.8,25,65.8,59.5V282z"/>
</svg>
