<?xml version="1.0" encoding="utf-8"?>
<!-- Generator: Adobe Illustrator 18.1.1, SVG Export Plug-In . SVG Version: 6.00 Build 0)  -->
<!DOCTYPE svg PUBLIC "-//W3C//DTD SVG 1.1//EN" "http://www.w3.org/Graphics/SVG/1.1/DTD/svg11.dtd">
<svg version="1.1" id="Layer_1" xmlns="http://www.w3.org/2000/svg" xmlns:xlink="http://www.w3.org/1999/xlink" x="0px" y="0px"
	 viewBox="0 0 792 612" enable-background="new 0 0 792 612" xml:space="preserve">
<g>
	<path fill="#757576" d="M117.5,150h-19c-1.4,0-2.5,1.1-2.5,2.5v211c0,1.4,1.1,2.5,2.5,2.5h19c1.4,0,2.5-1.1,2.5-2.5v-211
		C120,151.1,118.9,150,117.5,150z"/>
	<path fill="#757576" d="M261.5,150h-19c-1.4,0-2.5,1.1-2.5,2.5v211c0,1.4,1.1,2.5,2.5,2.5h19c1.4,0,2.5-1.1,2.5-2.5v-211
		C264,151.1,262.9,150,261.5,150z"/>
	<path fill="#757576" d="M530.5,246h19c1.4,0,2.5-1.1,2.5-2.5v-91c0-1.4-1.1-2.5-2.5-2.5h-19c-1.4,0-2.5,1.1-2.5,2.5v91
		C528,244.9,529.1,246,530.5,246z"/>
	<path fill="#757576" d="M693.5,150h-19c-1.4,0-2.5,1.1-2.5,2.5v91c0,1.4,1.1,2.5,2.5,2.5h19c1.4,0,2.5-1.1,2.5-2.5v-91
		C696,151.1,694.9,150,693.5,150z"/>
	<path fill="#757576" d="M684,78c-30.5,0-57.3,16.4-72,40.8C597.3,94.4,570.5,78,540,78s-57.3,16.4-72,40.8
		C453.3,94.4,426.5,78,396,78s-57.3,16.4-72,40.8C309.3,94.4,282.5,78,252,78s-57.3,16.4-72,40.8C165.3,94.4,138.5,78,108,78
		c-46.3,0-84,37.7-84,84v192c0,46.3,37.7,84,84,84c23.5,0,44.7-9.7,60-25.3V486c0,26.5,21.5,48,48,48s48-21.5,48-48v-48.9
		c25.5-3.7,47.3-18.8,60-39.9c14.7,24.4,41.5,40.8,72,40.8c30.5,0,57.3-16.4,72-40.8c14.7,24.4,41.5,40.8,72,40.8s57.3-16.4,72-40.8
		c14.7,24.4,41.5,40.8,72,40.8c46.3,0,84-37.7,84-84V162C768,115.7,730.3,78,684,78z M108,414c-33.1,0-60-26.9-60-60V162
		c0-33.1,26.9-60,60-60s60,26.9,60,60v192C168,387.1,141.1,414,108,414z M252,414L252,414c-6.6,0-12,5.4-12,12v60
		c0,14-12.1,25.3-26.4,23.9c-12.5-1.2-21.6-12.4-21.6-25V354V163.8c0-31.2,23.1-58.6,54.2-61.5C281.9,98.9,312,127,312,162v192
		C312,387.1,285.1,414,252,414z M390.2,413.7c-31.1-2.9-54.2-30.3-54.2-61.5v-34.3c0-6.6,5.4-12,12-12h24c6.6,0,12,5.4,12,12v35.3
		c0,6.3,4.5,12,10.8,12.6c7.2,0.7,13.2-4.9,13.2-11.9v-36c0-19.9-16.1-36-36-36h0c-19.9,0-36-16.1-36-36v-82.2
		c0-31.2,23.1-58.6,54.2-61.5C425.9,98.9,456,127,456,162v35.9c0,6.6-5.4,12-12,12h-24c-6.6,0-12-5.4-12-12v-35.3
		c0-6.3-4.5-12-10.8-12.6c-7.2-0.7-13.2,4.9-13.2,11.9v36c0,19.9,16.1,36,36,36h0c19.9,0,36,16.1,36,36V354
		C456,389,425.9,417.1,390.2,413.7z M534.2,413.7c-31.1-2.9-54.2-30.3-54.2-61.5V163.8c0-31.2,23.1-58.6,54.2-61.5
		C569.9,98.9,600,127,600,162v120c0,6.6-5.4,12-12,12h-24c-19.9,0-36,16.1-36,36l0,23.3c0,6.3,4.5,12,10.8,12.6
		c7.2,0.7,13.2-4.9,13.2-11.9v-24c0-6.6,5.4-12,12-12h24c6.6,0,12,5.4,12,12v24C600,389,569.9,417.1,534.2,413.7z M744,282
		c0,6.6-5.4,12-12,12h-24c-19.9,0-36,16.1-36,36l0,23.3c0,6.3,4.5,12,10.8,12.6c7.2,0.7,13.2-4.9,13.2-11.9v-24c0-6.6,5.4-12,12-12
		h24c6.6,0,12,5.4,12,12v24c0,35-30.1,63.1-65.8,59.7c-31.1-2.9-54.2-30.3-54.2-61.5V163.8c0-31.2,23.1-58.6,54.2-61.5
		C713.9,98.9,744,127,744,162V282z"/>
</g>
</svg>
