<?xml version="1.0" encoding="utf-8"?>
<!-- Generator: Adobe Illustrator 18.1.1, SVG Export Plug-In . SVG Version: 6.00 Build 0)  -->
<!DOCTYPE svg PUBLIC "-//W3C//DTD SVG 1.1//EN" "http://www.w3.org/Graphics/SVG/1.1/DTD/svg11.dtd">
<svg version="1.1" id="Layer_1" xmlns="http://www.w3.org/2000/svg" xmlns:xlink="http://www.w3.org/1999/xlink" x="0px" y="0px"
	 viewBox="0 0 1000 600" enable-background="new 0 0 1000 600" xml:space="preserve">
<g>
	<path fill="#FFFFFF" d="M447,50c1.7,0,3,1.3,3,3v69c0,1.7-1.3,3-3,3H178c-1.7,0-3-1.3-3-3V53c0-1.7,1.3-3,3-3H447 M447,45H178
		c-4.4,0-8,3.6-8,8v69c0,4.4,3.6,8,8,8h269c4.4,0,8-3.6,8-8V53C455,48.6,451.4,45,447,45L447,45z"/>
</g>
<g>
	<g>
		<path fill="#FFFFFF" d="M277.2,93.8c-4.9,0-8.5-3.8-8.5-8.7c0-4.8,3.6-8.7,8.7-8.7c3.1,0,5,1.1,6.6,2.6l-1.9,2.2
			c-1.3-1.2-2.8-2.1-4.7-2.1c-3.2,0-5.5,2.6-5.5,6c0,3.3,2.3,6,5.5,6c2.1,0,3.4-0.8,4.8-2.2l1.9,1.9
			C282.2,92.7,280.3,93.8,277.2,93.8z"/>
		<path fill="#FFFFFF" d="M290.9,86.4v7.1h-3V76.7h3v7h8v-7h3v16.8h-3v-7.1H290.9z"/>
		<path fill="#FFFFFF" d="M319.5,79.4H310v4.4h8.4v2.6H310v4.5h9.6v2.6H307V76.7h12.5V79.4z"/>
		<path fill="#FFFFFF" d="M331.8,93.8c-4.9,0-8.5-3.8-8.5-8.7c0-4.8,3.6-8.7,8.7-8.7c3.1,0,5,1.1,6.6,2.6l-1.9,2.2
			c-1.3-1.2-2.8-2.1-4.7-2.1c-3.2,0-5.5,2.6-5.5,6c0,3.3,2.3,6,5.5,6c2.1,0,3.4-0.8,4.8-2.2l1.9,1.9
			C336.8,92.7,334.9,93.8,331.8,93.8z"/>
		<path fill="#FFFFFF" d="M357.4,93.5h-3.6l-5.7-7.6l-2.6,2.7v4.9h-3V76.7h3v8.4l8-8.4h3.6l-7,7.2L357.4,93.5z"/>
	</g>
</g>
<g>
	<path fill="#FFFFFF" d="M822,50c1.7,0,3,1.3,3,3v69c0,1.7-1.3,3-3,3H553c-1.7,0-3-1.3-3-3V53c0-1.7,1.3-3,3-3H822 M822,45H553
		c-4.4,0-8,3.6-8,8v69c0,4.4,3.6,8,8,8h269c4.4,0,8-3.6,8-8V53C830,48.6,826.4,45,822,45L822,45z"/>
</g>
<g>
	<g>
		<path fill="#FFFFFF" d="M652.2,93.8c-4.9,0-8.5-3.8-8.5-8.7c0-4.8,3.6-8.7,8.7-8.7c3.1,0,5,1.1,6.6,2.6l-1.9,2.2
			c-1.3-1.2-2.8-2.1-4.7-2.1c-3.2,0-5.5,2.6-5.5,6c0,3.3,2.3,6,5.5,6c2.1,0,3.4-0.8,4.8-2.2l1.9,1.9
			C657.2,92.7,655.3,93.8,652.2,93.8z"/>
		<path fill="#FFFFFF" d="M665.9,86.4v7.1h-3V76.7h3v7h8v-7h3v16.8h-3v-7.1H665.9z"/>
		<path fill="#FFFFFF" d="M694.5,79.4H685v4.4h8.4v2.6H685v4.5h9.6v2.6H682V76.7h12.5V79.4z"/>
		<path fill="#FFFFFF" d="M706.8,93.8c-4.9,0-8.5-3.8-8.5-8.7c0-4.8,3.6-8.7,8.7-8.7c3.1,0,5,1.1,6.6,2.6l-1.9,2.2
			c-1.3-1.2-2.8-2.1-4.7-2.1c-3.2,0-5.5,2.6-5.5,6c0,3.3,2.3,6,5.5,6c2.1,0,3.4-0.8,4.8-2.2l1.9,1.9
			C711.8,92.7,709.9,93.8,706.8,93.8z"/>
		<path fill="#FFFFFF" d="M732.4,93.5h-3.6l-5.7-7.6l-2.6,2.7v4.9h-3V76.7h3v8.4l8-8.4h3.6l-7,7.2L732.4,93.5z"/>
	</g>
</g>
<g>
	<path fill="#FFFFFF" d="M634.5,450c1.7,0,3,1.3,3,3v69c0,1.7-1.3,3-3,3h-269c-1.7,0-3-1.3-3-3v-69c0-1.7,1.3-3,3-3H634.5
		 M634.5,445h-269c-4.4,0-8,3.6-8,8v69c0,4.4,3.6,8,8,8h269c4.4,0,8-3.6,8-8v-69C642.5,448.6,638.9,445,634.5,445L634.5,445z"/>
</g>
<g>
	<g>
		<path fill="#FFFFFF" d="M430.8,493.5h-3v-6.6l-6.7-10.2h3.5l4.7,7.4l4.8-7.4h3.4l-6.7,10.1V493.5z"/>
		<path fill="#FFFFFF" d="M448.9,493.8c-5.2,0-8.8-3.9-8.8-8.7c0-4.8,3.6-8.7,8.8-8.7c5.2,0,8.8,3.9,8.8,8.7
			C457.7,489.8,454.1,493.8,448.9,493.8z M448.9,479.1c-3.3,0-5.7,2.7-5.7,6c0,3.3,2.4,6,5.7,6c3.3,0,5.7-2.7,5.7-6
			C454.6,481.9,452.2,479.1,448.9,479.1z"/>
		<path fill="#FFFFFF" d="M476.3,486.2c0,5-2.8,7.5-7.2,7.5c-4.4,0-7.2-2.5-7.2-7.4v-9.7h3v9.6c0,3.1,1.6,4.8,4.2,4.8
			c2.6,0,4.2-1.6,4.2-4.7v-9.7h3V486.2z"/>
		<path fill="#FFFFFF" d="M492,493.5l-4.1-5.9h-3.7v5.9h-3v-16.8h7.5c3.9,0,6.2,2,6.2,5.3c0,2.8-1.7,4.5-4,5.1l4.5,6.4H492z
			 M488.4,479.4h-4.3v5.6h4.3c2.1,0,3.5-1.1,3.5-2.8C491.9,480.4,490.6,479.4,488.4,479.4z"/>
		<path fill="#FFFFFF" d="M514.6,493.5h-3v-14.1h-5.3v-2.7h13.6v2.7h-5.3V493.5z"/>
		<path fill="#FFFFFF" d="M536.3,479.4h-9.5v4.4h8.4v2.6h-8.4v4.5h9.6v2.6h-12.6v-16.8h12.5V479.4z"/>
		<path fill="#FFFFFF" d="M556.9,493.5h-3.1l-1.7-4.1h-7.9l-1.7,4.1h-3l7.4-16.9h2.7L556.9,493.5z M548.1,480.1l-2.9,6.7h5.8
			L548.1,480.1z"/>
		<path fill="#FFFFFF" d="M568.9,489.4L568.9,489.4l-5.4-7.9v12h-2.9v-16.8h3.1l5.1,7.9l5.1-7.9h3.1v16.8h-3v-12L568.9,489.4z"/>
	</g>
</g>
<g>
	<path fill="#FFFFFF" d="M634.5,200c1.7,0,3,1.3,3,3v169c0,1.7-1.3,3-3,3h-269c-1.7,0-3-1.3-3-3V203c0-1.7,1.3-3,3-3H634.5
		 M634.5,195h-269c-4.4,0-8,3.6-8,8v169c0,4.4,3.6,8,8,8h269c4.4,0,8-3.6,8-8V203C642.5,198.6,638.9,195,634.5,195L634.5,195z"/>
</g>
<g>
	<g>
		<path fill="#FFFFFF" d="M464.7,243.8c-4.9,0-8.5-3.8-8.5-8.7c0-4.8,3.6-8.7,8.7-8.7c3.1,0,5,1.1,6.6,2.6l-1.9,2.2
			c-1.3-1.2-2.8-2.1-4.7-2.1c-3.2,0-5.5,2.6-5.5,6c0,3.3,2.3,6,5.5,6c2.1,0,3.4-0.8,4.8-2.2l1.9,1.9
			C469.7,242.7,467.8,243.8,464.7,243.8z"/>
		<path fill="#FFFFFF" d="M478.4,236.4v7.1h-3v-16.8h3v7h8v-7h3v16.8h-3v-7.1H478.4z"/>
		<path fill="#FFFFFF" d="M507,229.4h-9.5v4.4h8.4v2.6h-8.4v4.5h9.6v2.6h-12.6v-16.8H507V229.4z"/>
		<path fill="#FFFFFF" d="M519.3,243.8c-4.9,0-8.5-3.8-8.5-8.7c0-4.8,3.6-8.7,8.7-8.7c3.1,0,5,1.1,6.6,2.6l-1.9,2.2
			c-1.3-1.2-2.8-2.1-4.7-2.1c-3.2,0-5.5,2.6-5.5,6c0,3.3,2.3,6,5.5,6c2.1,0,3.4-0.8,4.8-2.2l1.9,1.9
			C524.3,242.7,522.4,243.8,519.3,243.8z"/>
		<path fill="#FFFFFF" d="M544.9,243.5h-3.6l-5.7-7.6l-2.6,2.7v4.9h-3v-16.8h3v8.4l8-8.4h3.6l-7,7.2L544.9,243.5z"/>
		<path fill="#FFFFFF" d="M382.6,288.6c-4.8,0-8.4-3.8-8.4-8.6v0c0-4.8,3.6-8.7,8.4-8.7c3,0,4.8,1.1,6.5,2.7l-0.9,0.9
			c-1.5-1.4-3.1-2.5-5.7-2.5c-4,0-7.1,3.3-7.1,7.5v0c0,4.2,3.1,7.6,7.1,7.6c2.4,0,4.1-0.9,5.8-2.6l0.8,0.8
			C387.5,287.4,385.6,288.6,382.6,288.6z"/>
		<path fill="#FFFFFF" d="M402.6,288.3V281c0-2.5-1.4-4.2-3.9-4.2c-2.4,0-4.2,1.8-4.2,4.4v7.1h-1.2v-17.5h1.2v7.6
			c0.8-1.4,2.2-2.6,4.4-2.6c3.1,0,4.9,2.1,4.9,5v7.5H402.6z"/>
		<path fill="#FFFFFF" d="M414.1,287.5c1.9,0,3.2-0.8,4.2-1.9l0.8,0.7c-1.2,1.3-2.7,2.3-5.1,2.3c-3.2,0-6-2.6-6-6.4v0
			c0-3.6,2.5-6.4,5.8-6.4c3.4,0,5.6,2.8,5.6,6.4v0c0,0.2,0,0.2,0,0.4h-10.2C409.5,285.7,411.7,287.5,414.1,287.5z M418.2,281.6
			c-0.2-2.5-1.6-4.8-4.4-4.8c-2.4,0-4.3,2-4.5,4.8H418.2z"/>
		<path fill="#FFFFFF" d="M429.2,288.6c-3.5,0-6.2-2.9-6.2-6.4v0c0-3.4,2.7-6.4,6.2-6.4c2.3,0,3.7,1.1,4.9,2.3l-0.8,0.9
			c-1.1-1.1-2.3-2-4.1-2c-2.8,0-4.9,2.3-4.9,5.3v0c0,3,2.2,5.3,5,5.3c1.7,0,3.1-0.9,4.1-2l0.8,0.7
			C432.9,287.6,431.4,288.6,429.2,288.6z"/>
		<path fill="#FFFFFF" d="M447.3,288.3l-4.8-6l-3,3v3h-1.2v-17.5h1.2v13.1l7.6-7.8h1.6l-5.4,5.4l5.5,6.8H447.3z"/>
		<path fill="#FFFFFF" d="M466.1,288.6c-3.5,0-6.2-2.9-6.2-6.4v0c0-3.4,2.7-6.4,6.2-6.4c2.3,0,3.7,1.1,4.9,2.3l-0.8,0.9
			c-1.1-1.1-2.3-2-4.1-2c-2.8,0-4.9,2.3-4.9,5.3v0c0,3,2.2,5.3,5,5.3c1.7,0,3.1-0.9,4.1-2l0.8,0.7
			C469.8,287.6,468.4,288.6,466.1,288.6z"/>
		<path fill="#FFFFFF" d="M480.7,288.6c-3.6,0-6.3-2.9-6.3-6.4v0c0-3.4,2.7-6.4,6.3-6.4c3.6,0,6.3,2.9,6.3,6.4v0
			C487,285.6,484.3,288.6,480.7,288.6z M485.7,282.2c0-3-2.2-5.3-5-5.3c-2.9,0-5,2.4-5,5.3v0c0,3,2.2,5.3,5,5.3
			C483.6,287.5,485.7,285.1,485.7,282.2L485.7,282.2z"/>
		<path fill="#FFFFFF" d="M500.8,288.3V281c0-2.5-1.4-4.2-3.9-4.2c-2.4,0-4.2,1.8-4.2,4.4v7.1h-1.2v-12.2h1.2v2.3
			c0.8-1.4,2.2-2.6,4.4-2.6c3.1,0,4.9,2.1,4.9,5v7.5H500.8z"/>
		<path fill="#FFFFFF" d="M517.3,288.3v-2.7c-1.1,1.6-2.6,3-5,3c-3,0-6-2.4-6-6.4v0c0-4,3-6.4,6-6.4c2.4,0,4,1.4,5,2.9v-7.9h1.2
			v17.5H517.3z M517.3,282.2c0-3.1-2.4-5.3-5-5.3c-2.7,0-4.8,1.9-4.8,5.2v0c0,3.2,2.2,5.3,4.8,5.3
			C514.9,287.5,517.3,285.3,517.3,282.2L517.3,282.2z"/>
		<path fill="#FFFFFF" d="M523.8,272.9v-1.6h1.5v1.6H523.8z M523.9,288.3v-12.2h1.2v12.2H523.9z"/>
		<path fill="#FFFFFF" d="M534.7,288.5c-1.9,0-3.4-1-3.4-3.4v-8h-1.8v-1.1h1.8v-3.9h1.2v3.9h4.3v1.1h-4.3v7.9c0,1.8,1,2.4,2.4,2.4
			c0.6,0,1.1-0.1,1.8-0.4v1.1C536.1,288.4,535.5,288.5,534.7,288.5z"/>
		<path fill="#FFFFFF" d="M541.1,272.9v-1.6h1.5v1.6H541.1z M541.2,288.3v-12.2h1.2v12.2H541.2z"/>
		<path fill="#FFFFFF" d="M553.3,288.6c-3.6,0-6.3-2.9-6.3-6.4v0c0-3.4,2.7-6.4,6.3-6.4c3.6,0,6.3,2.9,6.3,6.4v0
			C559.7,285.6,557,288.6,553.3,288.6z M558.4,282.2c0-3-2.2-5.3-5-5.3c-2.9,0-5,2.4-5,5.3v0c0,3,2.2,5.3,5,5.3
			C556.3,287.5,558.4,285.1,558.4,282.2L558.4,282.2z"/>
		<path fill="#FFFFFF" d="M573.5,288.3V281c0-2.5-1.4-4.2-3.9-4.2c-2.4,0-4.2,1.8-4.2,4.4v7.1h-1.2v-12.2h1.2v2.3
			c0.8-1.4,2.2-2.6,4.4-2.6c3.1,0,4.9,2.1,4.9,5v7.5H573.5z"/>
		<path fill="#FFFFFF" d="M583.7,288.6c-1.8,0-3.7-0.7-5-1.8l0.7-0.9c1.3,1,2.8,1.6,4.4,1.6c1.7,0,3-0.9,3-2.3v0
			c0-1.4-1.5-2-3.2-2.4c-2-0.6-4.2-1.2-4.2-3.4v0c0-2,1.7-3.4,4-3.4c1.5,0,3.1,0.5,4.3,1.3l-0.6,1c-1.1-0.7-2.5-1.2-3.8-1.2
			c-1.7,0-2.8,0.9-2.8,2.1v0c0,1.4,1.7,1.9,3.4,2.4c2,0.6,4,1.3,4,3.4v0C587.9,287.2,586,288.6,583.7,288.6z"/>
		<path fill="#FFFFFF" d="M380.6,320.3H375v-16.8h5.6c5.3,0,8.9,3.6,8.9,8.4v0C389.5,316.6,385.9,320.3,380.6,320.3z M388.2,311.9
			c0-4-3-7.2-7.6-7.2h-4.3v14.5h4.3C385.3,319.2,388.2,316,388.2,311.9L388.2,311.9z"/>
		<path fill="#FFFFFF" d="M402.8,320.3v-2c-0.8,1.2-2.4,2.3-4.7,2.3c-2.3,0-4.7-1.3-4.7-3.8v0c0-2.5,2.2-4,5.4-4
			c1.7,0,2.9,0.2,4.1,0.5v-0.5c0-2.5-1.5-3.7-4-3.7c-1.5,0-2.7,0.4-3.8,1l-0.4-1c1.3-0.6,2.7-1.1,4.3-1.1c3.1,0,5.1,1.6,5.1,4.8v7.6
			H402.8z M402.8,314.3c-1-0.3-2.4-0.6-4.2-0.6c-2.6,0-4,1.2-4,2.9v0c0,1.8,1.7,2.8,3.6,2.8c2.5,0,4.6-1.5,4.6-3.8V314.3z"/>
		<path fill="#FFFFFF" d="M413.1,320.5c-1.9,0-3.4-1-3.4-3.4v-8h-1.8v-1.1h1.8v-3.9h1.2v3.9h4.3v1.1h-4.3v7.9c0,1.8,1,2.4,2.4,2.4
			c0.6,0,1.1-0.1,1.8-0.4v1.1C414.5,320.4,413.9,320.5,413.1,320.5z"/>
		<path fill="#FFFFFF" d="M427.9,320.3v-2c-0.8,1.2-2.4,2.3-4.7,2.3c-2.3,0-4.7-1.3-4.7-3.8v0c0-2.5,2.2-4,5.4-4
			c1.7,0,2.9,0.2,4.1,0.5v-0.5c0-2.5-1.5-3.7-4-3.7c-1.5,0-2.7,0.4-3.8,1l-0.4-1c1.3-0.6,2.7-1.1,4.3-1.1c3.1,0,5.1,1.6,5.1,4.8v7.6
			H427.9z M427.9,314.3c-1-0.3-2.4-0.6-4.2-0.6c-2.6,0-4,1.2-4,2.9v0c0,1.8,1.7,2.8,3.6,2.8c2.5,0,4.6-1.5,4.6-3.8V314.3z"/>
		<path fill="#FFFFFF" d="M454.9,320.7l-2.9-3c-1.6,1.8-3.4,2.9-5.7,2.9c-3,0-5.2-1.9-5.2-4.7c0-2.3,1.6-3.9,4.3-4.9
			c-1.3-1.4-1.9-2.4-1.9-3.9c0-2.2,1.8-3.8,4.2-3.8c2.2,0,3.9,1.6,3.9,3.7c0,2.1-1.6,3.5-4.1,4.4l4.4,4.5c0.8-1.2,1.5-2.5,2.2-4.1
			l1.1,0.5c-0.8,1.7-1.6,3.2-2.5,4.5l3.1,3.2L454.9,320.7z M446.2,311.7c-2.7,0.9-3.8,2.5-3.8,4.1c0,2.1,1.6,3.6,3.9,3.6
			c1.9,0,3.5-1,4.9-2.6L446.2,311.7z M447.7,304.3c-1.7,0-2.9,1.2-2.9,2.7c0,1.1,0.5,1.9,1.9,3.5c2.4-0.8,3.6-1.9,3.6-3.6
			C450.4,305.4,449.3,304.3,447.7,304.3z"/>
		<path fill="#FFFFFF" d="M473.2,324.2c-2,0-3.9-0.6-5.6-1.9l0.7-1c1.5,1.1,3.1,1.7,4.9,1.7c2.8,0,4.8-1.6,4.8-4.8v-1.8
			c-1.1,1.5-2.7,2.8-5.1,2.8c-3,0-5.9-2.3-5.9-5.8v0c0-3.5,2.9-5.8,5.9-5.8c2.4,0,4.1,1.3,5.1,2.7v-2.4h1.2v10.3
			C479.2,322.1,476.7,324.2,473.2,324.2z M478.1,313.6c0-2.8-2.5-4.7-5.1-4.7c-2.6,0-4.7,1.8-4.7,4.6v0c0,2.8,2.2,4.7,4.7,4.7
			C475.6,318.3,478.1,316.4,478.1,313.6L478.1,313.6z"/>
		<path fill="#FFFFFF" d="M491,309.2c-2.8,0-5.3,2.1-5.3,6.1v5h-1.2v-12.2h1.2v3.5c1-2.2,3-3.8,5.4-3.7v1.3H491z"/>
		<path fill="#FFFFFF" d="M503.4,320.3v-2c-0.8,1.2-2.4,2.3-4.7,2.3c-2.3,0-4.7-1.3-4.7-3.8v0c0-2.5,2.2-4,5.4-4
			c1.7,0,2.9,0.2,4.1,0.5v-0.5c0-2.5-1.5-3.7-4-3.7c-1.5,0-2.7,0.4-3.8,1l-0.4-1c1.3-0.6,2.7-1.1,4.3-1.1c3.1,0,5.1,1.6,5.1,4.8v7.6
			H503.4z M503.4,314.3c-1-0.3-2.4-0.6-4.2-0.6c-2.6,0-4,1.2-4,2.9v0c0,1.8,1.7,2.8,3.6,2.8c2.5,0,4.6-1.5,4.6-3.8V314.3z"/>
		<path fill="#FFFFFF" d="M515.8,320.6c-2.4,0-4-1.4-5-2.9v6.5h-1.2v-16.1h1.2v2.7c1.1-1.6,2.6-3,5-3c3,0,6,2.4,6,6.4v0
			C521.8,318.2,518.8,320.6,515.8,320.6z M520.5,314.2c0-3.2-2.2-5.3-4.8-5.3c-2.5,0-5,2.1-5,5.3v0c0,3.1,2.4,5.3,5,5.3
			C518.4,319.5,520.5,317.5,520.5,314.2L520.5,314.2z"/>
		<path fill="#FFFFFF" d="M535.6,320.3V313c0-2.5-1.4-4.2-3.9-4.2c-2.4,0-4.2,1.8-4.2,4.4v7.1h-1.2v-17.5h1.2v7.6
			c0.8-1.4,2.2-2.6,4.4-2.6c3.1,0,4.9,2.1,4.9,5v7.5H535.6z"/>
		<path fill="#FFFFFF" d="M545.8,320.6c-1.8,0-3.7-0.7-5-1.8l0.7-0.9c1.3,1,2.8,1.6,4.4,1.6c1.7,0,3-0.9,3-2.3v0
			c0-1.4-1.5-2-3.2-2.4c-2-0.6-4.2-1.2-4.2-3.4v0c0-2,1.7-3.4,4-3.4c1.5,0,3.1,0.5,4.3,1.3l-0.6,1c-1.1-0.7-2.5-1.2-3.8-1.2
			c-1.7,0-2.8,0.9-2.8,2.1v0c0,1.4,1.7,1.9,3.4,2.4c2,0.6,4,1.3,4,3.4v0C550.1,319.2,548.2,320.6,545.8,320.6z"/>
		<path fill="#FFFFFF" d="M388,352.3l-11.8-14.9v14.9H375v-16.8h1.2l11.6,14.6v-14.6h1.2v16.8H388z"/>
		<path fill="#FFFFFF" d="M400,352.6c-3.6,0-6.3-2.9-6.3-6.4v0c0-3.4,2.7-6.4,6.3-6.4c3.6,0,6.3,2.9,6.3,6.4v0
			C406.3,349.6,403.6,352.6,400,352.6z M405,346.2c0-3-2.2-5.3-5-5.3c-2.9,0-5,2.4-5,5.3v0c0,3,2.2,5.3,5,5.3
			C402.9,351.5,405,349.1,405,346.2L405,346.2z"/>
		<path fill="#FFFFFF" d="M414.9,352.5c-1.9,0-3.4-1-3.4-3.4v-8h-1.8v-1.1h1.8v-3.9h1.2v3.9h4.3v1.1h-4.3v7.9c0,1.8,1,2.4,2.4,2.4
			c0.6,0,1.1-0.1,1.8-0.4v1.1C416.2,352.4,415.6,352.5,414.9,352.5z"/>
		<path fill="#FFFFFF" d="M421.3,336.9v-1.6h1.5v1.6H421.3z M421.4,352.3v-12.2h1.2v12.2H421.4z"/>
		<path fill="#FFFFFF" d="M432.5,335.8c-1.7,0-2.5,1-2.5,3.1v1.2h4.3v1.1H430v11.2h-1.2v-11.2H427v-1.1h1.8v-1.2
			c0-2.6,1.3-4.2,3.6-4.2c0.7,0,1.3,0.1,1.8,0.3v1.1C433.6,335.9,433.1,335.8,432.5,335.8z"/>
		<path fill="#FFFFFF" d="M437.7,336.9v-1.6h1.5v1.6H437.7z M437.8,352.3v-12.2h1.2v12.2H437.8z"/>
		<path fill="#FFFFFF" d="M449.9,352.6c-3.5,0-6.2-2.9-6.2-6.4v0c0-3.4,2.7-6.4,6.2-6.4c2.3,0,3.7,1.1,4.9,2.3l-0.8,0.9
			c-1.1-1.1-2.3-2-4.1-2c-2.8,0-4.9,2.3-4.9,5.3v0c0,3,2.2,5.3,5,5.3c1.7,0,3.1-0.9,4.1-2l0.8,0.7
			C453.6,351.6,452.1,352.6,449.9,352.6z"/>
		<path fill="#FFFFFF" d="M467.4,352.3v-2c-0.8,1.2-2.4,2.3-4.7,2.3c-2.3,0-4.7-1.3-4.7-3.8v0c0-2.5,2.2-4,5.4-4
			c1.7,0,2.9,0.2,4.1,0.5v-0.5c0-2.5-1.5-3.7-4-3.7c-1.5,0-2.7,0.4-3.8,1l-0.4-1c1.3-0.6,2.7-1.1,4.3-1.1c3.1,0,5.1,1.6,5.1,4.8v7.6
			H467.4z M467.5,346.3c-1-0.3-2.4-0.6-4.2-0.6c-2.6,0-4,1.2-4,2.9v0c0,1.8,1.7,2.8,3.6,2.8c2.5,0,4.6-1.5,4.6-3.8V346.3z"/>
		<path fill="#FFFFFF" d="M477.8,352.5c-1.9,0-3.4-1-3.4-3.4v-8h-1.8v-1.1h1.8v-3.9h1.2v3.9h4.3v1.1h-4.3v7.9c0,1.8,1,2.4,2.4,2.4
			c0.6,0,1.1-0.1,1.8-0.4v1.1C479.1,352.4,478.5,352.5,477.8,352.5z"/>
		<path fill="#FFFFFF" d="M484.2,336.9v-1.6h1.5v1.6H484.2z M484.3,352.3v-12.2h1.2v12.2H484.3z"/>
		<path fill="#FFFFFF" d="M496.4,352.6c-3.6,0-6.3-2.9-6.3-6.4v0c0-3.4,2.7-6.4,6.3-6.4c3.6,0,6.3,2.9,6.3,6.4v0
			C502.7,349.6,500.1,352.6,496.4,352.6z M501.5,346.2c0-3-2.2-5.3-5-5.3c-2.9,0-5,2.4-5,5.3v0c0,3,2.2,5.3,5,5.3
			C499.4,351.5,501.5,349.1,501.5,346.2L501.5,346.2z"/>
		<path fill="#FFFFFF" d="M516.5,352.3V345c0-2.5-1.4-4.2-3.9-4.2c-2.4,0-4.2,1.8-4.2,4.4v7.1h-1.2v-12.2h1.2v2.3
			c0.8-1.4,2.2-2.6,4.4-2.6c3.1,0,4.9,2.1,4.9,5v7.5H516.5z"/>
		<path fill="#FFFFFF" d="M537.3,341.2c-2.8,0-5.3,2.1-5.3,6.1v5h-1.2v-12.2h1.2v3.5c1-2.2,3-3.8,5.4-3.7v1.3H537.3z"/>
		<path fill="#FFFFFF" d="M546.7,352.6c-3.6,0-6.3-2.9-6.3-6.4v0c0-3.4,2.7-6.4,6.3-6.4c3.6,0,6.3,2.9,6.3,6.4v0
			C553,349.6,550.4,352.6,546.7,352.6z M551.8,346.2c0-3-2.2-5.3-5-5.3c-2.9,0-5,2.4-5,5.3v0c0,3,2.2,5.3,5,5.3
			C549.7,351.5,551.8,349.1,551.8,346.2L551.8,346.2z"/>
		<path fill="#FFFFFF" d="M566.6,352.3V350c-0.8,1.4-2.2,2.6-4.4,2.6c-3.1,0-4.9-2.1-4.9-5v-7.5h1.2v7.3c0,2.5,1.4,4.2,3.9,4.2
			c2.4,0,4.2-1.8,4.2-4.4v-7.1h1.2v12.2H566.6z"/>
		<path fill="#FFFFFF" d="M577.2,352.5c-1.9,0-3.4-1-3.4-3.4v-8H572v-1.1h1.8v-3.9h1.2v3.9h4.3v1.1h-4.3v7.9c0,1.8,1,2.4,2.4,2.4
			c0.6,0,1.1-0.1,1.8-0.4v1.1C578.6,352.4,578,352.5,577.2,352.5z"/>
		<path fill="#FFFFFF" d="M588.8,351.5c1.9,0,3.2-0.8,4.2-1.9l0.8,0.7c-1.2,1.3-2.7,2.3-5.1,2.3c-3.2,0-6-2.6-6-6.4v0
			c0-3.6,2.5-6.4,5.8-6.4c3.4,0,5.6,2.8,5.6,6.4v0c0,0.2,0,0.2,0,0.4H584C584.2,349.7,586.4,351.5,588.8,351.5z M592.9,345.6
			c-0.2-2.5-1.6-4.8-4.4-4.8c-2.4,0-4.3,2-4.5,4.8H592.9z"/>
		<path fill="#FFFFFF" d="M602.4,352.6c-1.8,0-3.7-0.7-5-1.8l0.7-0.9c1.3,1,2.8,1.6,4.4,1.6c1.7,0,3-0.9,3-2.3v0
			c0-1.4-1.5-2-3.2-2.4c-2-0.6-4.2-1.2-4.2-3.4v0c0-2,1.7-3.4,4-3.4c1.5,0,3.1,0.5,4.3,1.3l-0.6,1c-1.1-0.7-2.5-1.2-3.8-1.2
			c-1.7,0-2.8,0.9-2.8,2.1v0c0,1.4,1.7,1.9,3.4,2.4c2,0.6,4,1.3,4,3.4v0C606.6,351.2,604.8,352.6,602.4,352.6z"/>
	</g>
</g>
<g>
	<g>
		
			<line fill="none" stroke="#979797" stroke-width="4" stroke-linecap="square" stroke-miterlimit="10" x1="500.5" y1="399.9" x2="500.5" y2="425.1"/>
		<g>
			<polygon fill="#979797" points="500.5,390 494.8,403.9 500.5,400.6 506.2,403.9 			"/>
		</g>
		<g>
			<polygon fill="#979797" points="500.5,435 494.8,421.1 500.5,424.4 506.2,421.1 			"/>
		</g>
	</g>
</g>
<g>
	<g>
		
			<line fill="none" stroke="#979797" stroke-width="4" stroke-linecap="square" stroke-miterlimit="10" x1="545.3" y1="154.9" x2="527.4" y2="172.8"/>
		<g>
			<polygon fill="#979797" points="552.3,147.9 538.4,153.8 544.8,155.4 546.5,161.8 			"/>
		</g>
		<g>
			<polygon fill="#979797" points="520.5,179.7 526.3,165.9 528,172.2 534.3,173.9 			"/>
		</g>
	</g>
</g>
<g>
	<g>
		
			<line fill="none" stroke="#979797" stroke-width="4" stroke-linecap="square" stroke-miterlimit="10" x1="454.7" y1="154.9" x2="472.6" y2="172.8"/>
		<g>
			<polygon fill="#979797" points="447.7,147.9 453.5,161.8 455.2,155.4 461.6,153.8 			"/>
		</g>
		<g>
			<polygon fill="#979797" points="479.5,179.7 465.7,173.9 472,172.2 473.7,165.9 			"/>
		</g>
	</g>
</g>
</svg>
