<?xml version="1.0" encoding="utf-8"?>
<!-- Generator: Adobe Illustrator 19.1.0, SVG Export Plug-In . SVG Version: 6.00 Build 0)  -->
<svg version="1.1" id="Layer_1" xmlns="http://www.w3.org/2000/svg" xmlns:xlink="http://www.w3.org/1999/xlink" x="0px" y="0px"
	 viewBox="488 -288 1000 600" style="enable-background:new 488 -288 1000 600;" xml:space="preserve">
<style type="text/css">
	.st0{fill:#BDBDBD;}
	.st1{fill-rule:evenodd;clip-rule:evenodd;fill:none;stroke:#FAA629;stroke-width:3;stroke-miterlimit:10;}
	.st2{fill:none;stroke:#BDBDBD;stroke-width:3;stroke-miterlimit:10;}
	.st3{fill:#E3E3E3;}
	.st4{fill:#FAA629;}
	.st5{fill-rule:evenodd;clip-rule:evenodd;fill:none;stroke:#FFFFFF;stroke-width:3;stroke-miterlimit:10;}
	.st6{fill:#FFFFFF;}
</style>
<g>
	<g>
		<path class="st0" d="M987-241c-2,0-4.1,0-6.1,0.1l0.1,3c0.4,0,0.8,0,1.2,0l0,0c0,0,0.1,0,0.1,0l0,0c0,0,0.1,0,0.1,0c0,0,0,0,0,0
			c0,0,0,0,0.1,0c0,0,0,0,0,0c0,0,0,0,0.1,0c0,0,0,0,0,0c0,0,0,0,0,0c0,0,0,0,0.1,0c0,0,0,0,0,0c0,0,0,0,0.1,0c0,0,0,0,0,0
			c0.7,0,1.4,0,2,0c0,0,0,0,0,0c0,0,0.1,0,0.1,0c0,0,0,0,0,0c0,0,0.1,0,0.1,0c0,0,0,0,0,0c0,0,0.1,0,0.1,0c0,0,0,0,0,0
			c0,0,0.1,0,0.1,0c0,0,0,0,0,0c0,0,0.1,0,0.1,0c0,0,0,0,0,0c0.2,0,0.4,0,0.5,0c0,0,0,0,0,0c0,0,0,0,0.1,0c0,0,0,0,0,0
			c0,0,0,0,0.1,0c0,0,0,0,0,0c0,0,0,0,0.1,0c0,0,0,0,0,0c0,0,0,0,0.1,0c0,0,0,0,0,0c0,0,0,0,0,0c0,0,0,0,0.1,0c0,0,0,0,0,0
			c0,0,0,0,0.1,0c0,0,0,0,0,0c0,0,0,0,0.1,0c0,0,0,0,0,0c0,0,0,0,0.1,0c0,0,0,0,0,0c0,0,0,0,0.1,0c0,0,0,0,0,0c0,0,0,0,0.1,0
			c0,0,0,0,0,0c0,0,0.1,0,0.1,0V-241L987-241z M974.9-240.7c-2,0.1-4.1,0.2-6.1,0.4l0.2,3c1.4-0.1,2.7-0.2,4.1-0.3c0,0,0,0,0,0
			c0,0,0,0,0,0c0,0,0,0,0.1,0c0,0,0,0,0,0c0,0,0,0,0.1,0c0,0,0,0,0,0c0,0,0,0,0.1,0c0,0,0,0,0,0c0,0,0,0,0.1,0c0,0,0,0,0,0
			c0,0,0.1,0,0.1,0l0,0c0,0,0.1,0,0.1,0l0,0c0,0,0.1,0,0.1,0l0,0c0.4,0,0.8,0,1.2-0.1L974.9-240.7L974.9-240.7z M962.7-239.9
			c-2,0.2-4,0.4-6,0.6l0.4,3c0,0,0,0,0,0c0,0,0,0,0,0c0,0,0,0,0.1,0c0,0,0,0,0,0c0,0,0,0,0.1,0c0,0,0,0,0,0c0,0,0,0,0,0c0,0,0,0,0,0
			c0,0,0,0,0,0c0,0,0,0,0.1,0c0,0,0,0,0,0c0,0,0,0,0.1,0c0,0,0,0,0,0c0,0,0,0,0.1,0c0,0,0,0,0,0c0,0,0,0,0.1,0c0,0,0,0,0,0
			c0.1,0,0.2,0,0.2,0c0,0,0,0,0,0c0,0,0,0,0.1,0c0,0,0,0,0,0c0,0,0,0,0.1,0c0,0,0,0,0,0c0,0,0,0,0.1,0c0,0,0,0,0,0c0,0,0,0,0.1,0
			c0,0,0,0,0,0c0,0,0,0,0,0c0,0,0,0,0.1,0c0,0,0,0,0,0c0,0,0,0,0.1,0c0,0,0,0,0,0c0,0,0,0,0.1,0c0,0,0,0,0,0c0,0,0,0,0.1,0
			c0,0,0,0,0,0c0,0,0,0,0.1,0c0,0,0,0,0,0c0,0,0,0,0.1,0c0,0,0,0,0,0c0,0,0,0,0.1,0c0,0,0,0,0,0c0,0,0,0,0.1,0c0,0,0,0,0,0
			c0,0,0.1,0,0.1,0c0,0,0,0,0,0c0,0,0.1,0,0.1,0l0,0c0.3,0,0.5-0.1,0.8-0.1l0,0c0,0,0.1,0,0.1,0l0,0c0,0,0.1,0,0.1,0l0,0
			c0,0,0.1,0,0.1,0l0,0c0,0,0.1,0,0.1,0l0,0c0,0,0.1,0,0.1,0l0,0c0,0,0.1,0,0.1,0l0,0c0.4,0,0.9-0.1,1.3-0.1l0,0c0,0,0.1,0,0.1,0
			l0,0c0,0,0.1,0,0.1,0l0,0c0,0,0.1,0,0.1,0l0,0c0,0,0,0,0.1,0c0,0,0,0,0,0c0,0,0,0,0.1,0c0,0,0,0,0,0c0,0,0,0,0.1,0c0,0,0,0,0,0
			c0,0,0,0,0.1,0c0,0,0,0,0,0c0,0,0,0,0.1,0c0,0,0,0,0,0c0,0,0,0,0,0c0,0,0,0,0.1,0c0,0,0,0,0,0L962.7-239.9L962.7-239.9z
			 M950.7-238.4c-2,0.3-4,0.6-6,0.9l0.5,3c0.6-0.1,1.1-0.2,1.7-0.3c0,0,0,0,0,0c0,0,0.1,0,0.1,0c0,0,0,0,0,0c0,0,0,0,0.1,0
			c0,0,0,0,0,0c0,0,0,0,0.1,0c0,0,0,0,0,0c0,0,0,0,0.1,0c0,0,0,0,0,0c0,0,0,0,0.1,0c0,0,0,0,0,0c0,0,0,0,0.1,0c0,0,0,0,0,0
			c0,0,0,0,0.1,0c0,0,0,0,0,0c0,0,0,0,0,0c0,0,0,0,0.1,0c0,0,0,0,0,0c0,0,0,0,0.1,0c0,0,0,0,0,0c0,0,0.1,0,0.1,0l0,0
			c0.2,0,0.5-0.1,0.7-0.1l0,0c0,0,0.1,0,0.1,0l0,0c0,0,0.1,0,0.1,0l0,0c0,0,0.1,0,0.1,0l0,0c0,0,0.1,0,0.1,0c0,0,0,0,0,0
			c0,0,0,0,0.1,0c0,0,0,0,0,0c0,0,0,0,0.1,0c0,0,0,0,0,0c0,0,0,0,0.1,0c0,0,0,0,0,0c0,0,0,0,0.1,0c0,0,0,0,0,0c0,0,0,0,0.1,0
			c0,0,0,0,0,0c0,0,0,0,0.1,0c0,0,0,0,0,0c0,0,0,0,0,0c0,0,0,0,0.1,0c0,0,0,0,0,0c0,0,0,0,0.1,0c0,0,0,0,0,0c0,0,0,0,0.1,0
			c0,0,0,0,0,0c0.4-0.1,0.9-0.1,1.3-0.2L950.7-238.4L950.7-238.4z M938.7-236.4c-2,0.4-4,0.8-5.9,1.2l0.6,2.9
			c1.4-0.3,2.9-0.6,4.3-0.9l0,0c0,0,0.1,0,0.1,0l0,0c0,0,0,0,0.1,0c0,0,0,0,0,0c0,0,0,0,0.1,0c0,0,0,0,0,0c0,0,0,0,0,0
			c0,0,0,0,0.1,0c0,0,0,0,0,0c0,0,0,0,0.1,0c0,0,0,0,0,0c0,0,0,0,0.1,0c0,0,0,0,0,0c0,0,0.1,0,0.1,0c0,0,0,0,0,0
			c0.3-0.1,0.5-0.1,0.8-0.2L938.7-236.4L938.7-236.4z M926.9-233.8c-2,0.5-3.9,1-5.9,1.5l0.8,2.9c1.2-0.3,2.5-0.7,3.7-1l0,0
			c0,0,0.1,0,0.1,0l0,0c0,0,0,0,0.1,0c0,0,0,0,0,0c0,0,0,0,0.1,0c0,0,0,0,0,0c0,0,0,0,0,0c0.6-0.2,1.2-0.3,1.8-0.4L926.9-233.8
			L926.9-233.8z M915.1-230.6c-1.9,0.6-3.9,1.2-5.8,1.8l0.9,2.9c0,0,0,0,0,0c0,0,0.1,0,0.1,0c0,0,0,0,0,0c1.9-0.6,3.8-1.2,5.6-1.7
			L915.1-230.6L915.1-230.6z M903.6-226.9c-1.9,0.7-3.8,1.4-5.7,2.1l1.1,2.8c0.7-0.3,1.4-0.5,2-0.8c0,0,0,0,0,0c0,0,0,0,0.1,0
			c0,0,0,0,0,0c0,0,0,0,0.1,0c0,0,0,0,0,0c0,0,0,0,0.1,0c0,0,0,0,0,0c0,0,0,0,0,0c0,0,0,0,0,0c0,0,0,0,0,0c0,0,0,0,0.1,0
			c0,0,0,0,0,0c0,0,0,0,0.1,0c0,0,0,0,0,0c0,0,0,0,0.1,0c0,0,0,0,0,0c0,0,0,0,0.1,0c0,0,0,0,0,0c0,0,0,0,0.1,0c0,0,0,0,0,0
			c0,0,0,0,0.1,0c0,0,0,0,0,0c0,0,0,0,0.1,0c0,0,0,0,0,0c0,0,0,0,0.1,0c0,0,0,0,0,0c0,0,0.1,0,0.1,0c0,0,0,0,0,0c0,0,0,0,0.1,0
			c0,0,0,0,0,0c0,0,0,0,0.1,0c0,0,0,0,0,0c0,0,0.1,0,0.1,0c0,0,0,0,0,0c0,0,0.1,0,0.1,0c0,0,0,0,0,0c0,0,0.1,0,0.1,0c0,0,0,0,0,0
			c0,0,0.1,0,0.1,0c0,0,0,0,0,0c0,0,0.1,0,0.1,0c0,0,0,0,0,0c0,0,0.1,0,0.1,0c0,0,0,0,0,0c0,0,0.1,0,0.1,0c0,0,0,0,0,0
			c0,0,0.1,0,0.1,0c0,0,0,0,0,0c0,0,0.1,0,0.1,0c0,0,0,0,0,0c0,0,0,0,0.1,0c0,0,0,0,0,0c0,0,0,0,0.1,0c0,0,0,0,0,0c0,0,0,0,0.1,0
			c0,0,0,0,0,0c0,0,0,0,0.1,0c0,0,0,0,0,0c0,0,0,0,0.1,0c0,0,0,0,0,0c0,0,0,0,0,0c0,0,0,0,0.1,0c0,0,0,0,0,0c0,0,0,0,0.1,0
			c0,0,0,0,0,0c0,0,0.1,0,0.1,0l0,0c0.2-0.1,0.4-0.1,0.6-0.2L903.6-226.9L903.6-226.9z M892.2-222.6c-1.9,0.8-3.8,1.5-5.6,2.3
			l1.2,2.8c0.7-0.3,1.4-0.6,2.1-0.9c0,0,0,0,0,0c0.1,0,0.1,0,0.2-0.1c0,0,0,0,0,0c0,0,0,0,0.1,0c0,0,0,0,0,0c0,0,0,0,0.1,0
			c0,0,0,0,0,0c0,0,0,0,0.1,0c0,0,0,0,0,0c0,0,0,0,0.1,0c0,0,0,0,0,0c0,0,0,0,0,0c0,0,0,0,0,0c0,0,0,0,0,0c0,0,0,0,0,0c0,0,0,0,0,0
			c0,0,0,0,0,0c0,0,0,0,0.1,0c0,0,0,0,0,0c0,0,0,0,0.1,0c0,0,0,0,0,0c0,0,0,0,0.1,0c0,0,0,0,0,0c0,0,0,0,0.1,0c0,0,0,0,0,0
			c0,0,0,0,0.1,0c0,0,0,0,0,0c0,0,0,0,0.1,0c0,0,0,0,0,0c0,0,0,0,0.1,0c0,0,0,0,0,0c0,0,0,0,0.1,0c0,0,0,0,0,0c0,0,0,0,0.1,0
			c0,0,0,0,0,0c0,0,0,0,0.1,0c0,0,0,0,0,0c0,0,0,0,0.1,0c0,0,0,0,0,0c0,0,0,0,0.1,0c0,0,0,0,0,0c0,0,0,0,0.1,0c0,0,0,0,0,0
			c0,0,0,0,0.1,0c0,0,0,0,0,0c0,0,0,0,0.1,0c0,0,0,0,0,0c0,0,0.1,0,0.1,0c0,0,0,0,0,0c0,0,0.1,0,0.1,0c0,0,0,0,0,0c0,0,0,0,0.1,0
			c0,0,0,0,0,0c0,0,0.1,0,0.1,0c0,0,0,0,0,0c0.3-0.1,0.6-0.3,1-0.4L892.2-222.6L892.2-222.6z M881.1-217.8c-1.8,0.8-3.7,1.7-5.5,2.6
			l1.3,2.7c0,0,0,0,0,0c0,0,0,0,0,0c0,0,0,0,0.1,0l0,0c0.6-0.3,1.2-0.6,1.9-0.9l0,0c0,0,0.1,0,0.1,0l0,0c0,0,0,0,0.1,0c0,0,0,0,0,0
			c0,0,0,0,0.1,0c0,0,0,0,0,0c0,0,0,0,0.1,0c0,0,0,0,0,0c0,0,0,0,0,0c0,0,0,0,0,0c0,0,0,0,0,0c0,0,0,0,0.1,0c0,0,0,0,0,0
			c0,0,0,0,0.1,0c0,0,0,0,0,0c0,0,0,0,0.1,0c0,0,0,0,0,0c0,0,0,0,0.1,0c0,0,0,0,0,0c0.9-0.4,1.7-0.8,2.6-1.2L881.1-217.8
			L881.1-217.8z M870.2-212.5c-1.8,0.9-3.6,1.9-5.3,2.9l1.5,2.6c1.3-0.7,2.5-1.4,3.8-2.1c0,0,0,0,0,0c0,0,0.1,0,0.1,0c0,0,0,0,0,0
			c0,0,0.1,0,0.1,0c0,0,0,0,0,0c0,0,0,0,0.1,0c0,0,0,0,0,0c0,0,0,0,0.1,0c0,0,0,0,0,0c0,0,0,0,0.1,0c0,0,0,0,0,0c0,0,0,0,0,0
			c0,0,0,0,0,0c0,0,0,0,0,0c0,0,0,0,0.1,0c0,0,0,0,0,0c0,0,0,0,0.1,0l0,0c0,0,0.1,0,0.1,0l0,0c0.2-0.1,0.5-0.2,0.7-0.4L870.2-212.5
			L870.2-212.5z M859.5-206.6c-1.7,1-3.5,2.1-5.2,3.1l1.6,2.6c1.1-0.7,2.1-1.3,3.2-1.9c0,0,0,0,0,0c0,0,0.1,0,0.1,0c0,0,0,0,0,0
			c0,0,0.1,0,0.1,0c0,0,0,0,0,0c0,0,0,0,0.1,0c0,0,0,0,0,0c0,0,0,0,0.1,0c0,0,0,0,0,0c0,0,0,0,0.1,0c0,0,0,0,0,0c0,0,0,0,0.1,0
			c0,0,0,0,0,0c0,0,0,0,0.1,0c0,0,0,0,0,0c0,0,0,0,0.1,0c0,0,0,0,0,0c0,0,0,0,0.1,0c0,0,0,0,0,0c0,0,0,0,0.1,0c0,0,0,0,0,0
			c0,0,0,0,0.1,0c0,0,0,0,0,0c0,0,0,0,0.1,0c0,0,0,0,0,0c0,0,0,0,0.1,0c0,0,0,0,0,0c0,0,0,0,0.1,0c0,0,0,0,0,0c0,0,0,0,0.1,0
			c0,0,0,0,0,0c0,0,0,0,0.1,0c0,0,0,0,0,0c0,0,0,0,0.1,0c0,0,0,0,0,0c0.2-0.1,0.4-0.2,0.6-0.3L859.5-206.6L859.5-206.6z
			 M849.2-200.2c-1.7,1.1-3.4,2.2-5,3.4l1.7,2.5c1.6-1.1,3.3-2.2,5-3.3L849.2-200.2L849.2-200.2z M839.2-193.3
			c-1.6,1.2-3.3,2.4-4.9,3.6l1.8,2.4c0.1-0.1,0.2-0.2,0.3-0.2c0,0,0,0,0,0c0,0,0,0,0.1-0.1c0,0,0,0,0,0c0,0,0,0,0.1,0c0,0,0,0,0,0
			c0,0,0,0,0,0c0,0,0,0,0,0c0,0,0,0,0,0c0,0,0,0,0.1,0l0,0c0,0,0,0,0.1-0.1l0,0c0.5-0.4,1.1-0.8,1.7-1.2l0,0c0,0,0,0,0.1,0l0,0
			c0,0,0,0,0.1,0c0,0,0,0,0,0c0,0,0,0,0,0c0,0,0,0,0,0c0,0,0,0,0,0c0,0,0,0,0,0c0,0,0,0,0,0c0,0,0,0,0,0c0,0,0,0,0,0c0,0,0,0,0.1,0
			c0,0,0,0,0,0c0,0,0,0,0.1,0c0,0,0,0,0,0c0,0,0,0,0.1,0c0,0,0,0,0,0c0.6-0.4,1.2-0.9,1.8-1.3L839.2-193.3L839.2-193.3z M829.5-186
			c-1.6,1.3-3.2,2.5-4.7,3.8l1.9,2.3c0.7-0.6,1.4-1.2,2.1-1.8l0,0c0,0,0,0,0.1-0.1l0,0c0,0,0,0,0.1-0.1l0,0c0,0,0,0,0.1,0
			c0,0,0,0,0,0c0,0,0,0,0,0c0,0,0,0,0,0c0,0,0,0,0,0c0,0,0,0,0,0c0,0,0,0,0,0c0,0,0,0,0,0c0,0,0,0,0,0c0,0,0,0,0,0c0,0,0,0,0,0
			c0,0,0,0,0.1,0c0,0,0,0,0,0c0,0,0,0,0.1,0c0,0,0,0,0,0c0,0,0,0,0.1,0c0,0,0,0,0,0c0,0,0,0,0.1-0.1c0,0,0,0,0,0c0,0,0,0,0.1-0.1
			c0,0,0,0,0,0c0.5-0.4,1.1-0.9,1.6-1.3L829.5-186L829.5-186z M820.2-178.2c-1.5,1.3-3,2.7-4.5,4.1l2,2.2c0,0,0,0,0,0
			c0,0,0,0,0.1-0.1c0,0,0,0,0,0c0,0,0,0,0.1-0.1c0,0,0,0,0,0c0,0,0,0,0,0c0,0,0,0,0,0c0,0,0,0,0,0c0,0,0,0,0,0c0,0,0,0,0,0
			c0,0,0,0,0,0c0,0,0,0,0,0c0,0,0,0,0,0c0,0,0,0,0,0c0,0,0,0,0,0c0,0,0,0,0,0c0,0,0,0,0,0c0,0,0,0,0,0c0,0,0,0,0,0c0,0,0,0,0,0
			c0,0,0,0,0.1,0c0,0,0,0,0,0c0,0,0,0,0.1-0.1l0,0c0,0,0,0,0.1-0.1l0,0c0,0,0,0,0.1-0.1l0,0c1.2-1.1,2.3-2.1,3.5-3.2L820.2-178.2
			L820.2-178.2z M811.3-170c-1.4,1.4-2.9,2.8-4.3,4.3l2.1,2.1c0.5-0.5,0.9-0.9,1.4-1.4c0,0,0,0,0,0c0,0,0,0,0.1-0.1c0,0,0,0,0,0
			c0,0,0,0,0,0c0,0,0,0,0,0c0,0,0,0,0,0c0,0,0,0,0,0c0,0,0,0,0,0c0,0,0,0,0,0c0,0,0,0,0,0c0,0,0,0,0.1-0.1c0,0,0,0,0,0
			c0,0,0,0,0.1-0.1c0,0,0,0,0,0c0.7-0.7,1.4-1.4,2.1-2.1c0,0,0,0,0,0c0,0,0,0,0.1-0.1c0,0,0,0,0,0c0,0,0,0,0.1-0.1c0,0,0,0,0,0
			c0,0,0,0,0.1,0c0,0,0,0,0,0c0,0,0,0,0,0c0,0,0,0,0,0L811.3-170L811.3-170z M802.7-161.4c-1.4,1.5-2.8,3-4.1,4.5l2.2,2
			c0.2-0.3,0.5-0.5,0.7-0.8l0,0c0,0,0,0,0.1-0.1l0,0c0,0,0,0,0-0.1c0,0,0,0,0,0c0,0,0,0,0,0c0,0,0,0,0,0c0,0,0,0,0,0c0,0,0,0,0,0
			c0,0,0,0,0,0c0,0,0,0,0,0c0,0,0,0,0,0c0,0,0,0,0.1-0.1c0,0,0,0,0,0c0.9-1,1.9-2.1,2.9-3.1c0,0,0,0,0,0c0,0,0,0,0-0.1c0,0,0,0,0,0
			L802.7-161.4L802.7-161.4z M794.6-152.3c-1.3,1.5-2.6,3.1-3.9,4.7l2.3,1.9c0,0,0,0,0,0c0,0,0,0,0-0.1c0,0,0,0,0,0
			c1.2-1.5,2.5-3,3.8-4.5L794.6-152.3L794.6-152.3z M787-142.9c-1.2,1.6-2.5,3.2-3.7,4.8l2.4,1.8c0.3-0.4,0.5-0.7,0.8-1.1l0,0
			c0-0.1,0.1-0.1,0.1-0.1c0,0,0,0,0,0c0,0,0,0,0.1-0.1l0,0c0,0,0,0,0.1-0.1c0,0,0,0,0,0c0,0,0,0,0-0.1c0,0,0,0,0,0c0,0,0,0,0-0.1
			c0,0,0,0,0,0c0,0,0,0,0-0.1c0,0,0,0,0,0c0,0,0,0,0-0.1c0,0,0,0,0,0c0,0,0,0,0,0c0,0,0,0,0,0c0,0,0,0,0,0c0,0,0,0,0,0c0,0,0,0,0,0
			c0,0,0,0,0,0c0,0,0,0,0,0c0,0,0,0,0,0c0,0,0,0,0,0c0,0,0,0,0,0c0,0,0,0,0,0c0,0,0,0,0,0c0,0,0,0,0,0c0,0,0,0,0,0c0,0,0,0,0,0
			c0,0,0,0,0,0c0,0,0,0,0,0c0,0,0,0,0,0c0,0,0,0,0,0c0,0,0,0,0,0c0,0,0,0,0,0c0,0,0,0,0,0c0,0,0,0,0,0c0,0,0,0,0,0c0,0,0,0,0,0
			c0,0,0,0,0,0c0,0,0,0,0,0c0,0,0,0,0,0c0,0,0,0,0,0c0,0,0,0,0,0c0,0,0,0,0,0c0,0,0,0,0,0c0,0,0,0,0,0c0,0,0,0,0,0c0,0,0,0,0,0
			c0,0,0,0,0,0c0,0,0,0,0,0c0,0,0,0,0,0c0,0,0,0,0-0.1c0,0,0,0,0,0c0,0,0,0,0-0.1c0,0,0,0,0,0c0,0,0,0,0-0.1c0,0,0,0,0,0
			c0,0,0,0,0.1-0.1c0,0,0,0,0,0c0,0,0,0,0.1-0.1c0,0,0,0,0,0c0.3-0.4,0.7-0.9,1-1.3L787-142.9L787-142.9z M779.7-133.1
			c-1.2,1.6-2.3,3.3-3.4,5l2.5,1.7c0.2-0.3,0.4-0.7,0.7-1l0,0c0,0,0,0,0-0.1l0,0c0,0,0,0,0,0c0,0,0,0,0,0c0,0,0,0,0,0c0,0,0,0,0,0
			c0,0,0,0,0,0c0.8-1.2,1.7-2.5,2.5-3.7L779.7-133.1L779.7-133.1z M773-123c-1.1,1.7-2.1,3.4-3.2,5.2l2.6,1.5c0,0,0,0,0,0
			c0,0,0,0,0-0.1c0,0,0,0,0,0c0,0,0,0,0-0.1c0,0,0,0,0,0c0.4-0.7,0.9-1.5,1.4-2.2c0,0,0,0,0,0c0,0,0,0,0-0.1c0,0,0,0,0,0
			c0,0,0,0,0-0.1c0,0,0,0,0,0c0,0,0,0,0-0.1c0,0,0,0,0,0c0,0,0,0,0-0.1c0,0,0,0,0,0c0,0,0,0,0,0c0,0,0,0,0,0c0,0,0,0,0,0
			c0,0,0,0,0,0c0,0,0,0,0,0c0,0,0,0,0-0.1c0,0,0,0,0,0c0,0,0,0,0-0.1l0,0c0,0,0,0,0-0.1l0,0c0.4-0.7,0.8-1.3,1.2-1.9L773-123
			L773-123z M766.8-112.6c-1,1.8-2,3.5-2.9,5.3l2.6,1.4c0.4-0.7,0.8-1.4,1.1-2.1l0,0c0,0,0,0,0-0.1c0,0,0,0,0,0c0,0,0,0,0-0.1
			c0,0,0,0,0,0c0,0,0,0,0-0.1c0,0,0,0,0,0c0,0,0,0,0,0c0,0,0,0,0,0c0,0,0,0,0,0c0,0,0,0,0-0.1c0,0,0,0,0,0c0,0,0,0,0-0.1
			c0,0,0,0,0,0c0.5-0.9,1-1.7,1.5-2.6L766.8-112.6L766.8-112.6z M761-101.9c-0.9,1.8-1.8,3.6-2.7,5.5l2.7,1.3
			c0.2-0.4,0.3-0.7,0.5-1.1c0,0,0,0,0,0c0,0,0-0.1,0-0.1c0,0,0,0,0,0c0,0,0,0,0-0.1c0,0,0,0,0,0c0,0,0,0,0,0c0,0,0,0,0,0
			c0,0,0,0,0,0c0,0,0,0,0-0.1l0,0c0,0,0-0.1,0-0.1l0,0c0.6-1.3,1.3-2.6,1.9-3.8L761-101.9L761-101.9z M755.8-90.9
			c-0.8,1.8-1.6,3.7-2.4,5.6l2.8,1.2c0.3-0.6,0.5-1.2,0.8-1.8l0,0c0,0,0-0.1,0-0.1l0,0c0,0,0,0,0-0.1c0,0,0,0,0,0c0,0,0,0,0-0.1
			c0,0,0,0,0,0c0,0,0,0,0,0c0,0,0,0,0,0c0,0,0,0,0,0c0,0,0-0.1,0-0.1c0,0,0,0,0,0c0.5-1.1,0.9-2.2,1.4-3.3L755.8-90.9L755.8-90.9z
			 M751.1-79.7c-0.7,1.9-1.4,3.8-2.1,5.7l2.8,1c0.1-0.3,0.2-0.7,0.4-1l0,0c0,0,0-0.1,0-0.1l0,0c0,0,0-0.1,0-0.1l0,0c0,0,0,0,0-0.1
			c0,0,0,0,0,0c0,0,0,0,0-0.1c0,0,0,0,0,0c0,0,0,0,0-0.1c0,0,0,0,0,0c0,0,0,0,0,0c0,0,0,0,0-0.1c0,0,0,0,0,0c0,0,0,0,0-0.1
			c0,0,0,0,0,0c0,0,0,0,0-0.1c0,0,0,0,0,0c0,0,0-0.1,0-0.1c0,0,0,0,0,0c0,0,0-0.1,0-0.1c0,0,0,0,0,0c0.2-0.5,0.4-1,0.6-1.6
			c0,0,0,0,0,0c0,0,0,0,0-0.1c0,0,0,0,0,0c0,0,0,0,0,0c0,0,0,0,0,0c0,0,0,0,0,0c0,0,0,0,0,0c0,0,0,0,0,0c0,0,0,0,0-0.1l0,0
			c0,0,0-0.1,0-0.1l0,0c0.2-0.5,0.4-1.1,0.6-1.6L751.1-79.7L751.1-79.7z M747-68.3c-0.6,1.9-1.3,3.9-1.9,5.8l2.9,0.9c0,0,0,0,0,0
			c0,0,0,0,0-0.1c0,0,0,0,0,0c0,0,0,0,0,0c0,0,0,0,0,0c0,0,0,0,0,0c0,0,0,0,0-0.1c0,0,0,0,0,0c0,0,0,0,0-0.1c0,0,0,0,0,0
			c0,0,0,0,0-0.1c0,0,0,0,0,0c0,0,0,0,0-0.1c0,0,0,0,0,0c0,0,0-0.1,0-0.1l0,0c0,0,0-0.1,0-0.1l0,0c0.5-1.7,1-3.3,1.6-4.9L747-68.3
			L747-68.3z M743.4-56.7c-0.5,1.9-1.1,3.9-1.6,5.9l2.9,0.7c0.4-1.7,0.9-3.4,1.4-5.1c0,0,0,0,0,0c0,0,0-0.1,0-0.1c0,0,0,0,0,0
			c0,0,0-0.1,0-0.1c0,0,0,0,0,0c0,0,0,0,0-0.1c0,0,0,0,0,0c0,0,0,0,0,0c0,0,0,0,0-0.1c0,0,0,0,0,0c0,0,0,0,0-0.1c0,0,0,0,0,0
			c0-0.1,0-0.1,0.1-0.2L743.4-56.7L743.4-56.7z M740.4-44.9c-0.5,2-0.9,4-1.3,5.9l2.9,0.6c0,0,0,0,0-0.1l0,0c0,0,0,0,0-0.1
			c0,0,0,0,0,0c0,0,0,0,0-0.1c0,0,0,0,0,0c0,0,0,0,0-0.1c0,0,0,0,0,0c0,0,0,0,0,0c0-0.2,0.1-0.5,0.1-0.7c0,0,0,0,0,0
			c0,0,0-0.1,0-0.1c0,0,0,0,0,0c0,0,0-0.1,0-0.1c0,0,0,0,0,0c0,0,0-0.1,0-0.1c0,0,0,0,0,0c0,0,0,0,0-0.1c0,0,0,0,0,0c0,0,0,0,0-0.1
			c0,0,0,0,0,0c0,0,0,0,0-0.1c0,0,0,0,0,0c0,0,0,0,0-0.1c0,0,0,0,0,0c0,0,0,0,0-0.1c0,0,0,0,0,0c0,0,0,0,0,0c0,0,0,0,0,0
			c0,0,0,0,0,0c0,0,0,0,0-0.1c0,0,0,0,0,0c0,0,0,0,0-0.1c0,0,0,0,0,0c0,0,0,0,0-0.1c0,0,0,0,0,0c0,0,0-0.1,0-0.1l0,0
			c0,0,0-0.1,0-0.1l0,0c0.2-1.1,0.5-2.3,0.8-3.4L740.4-44.9L740.4-44.9z M738-33c-0.4,2-0.7,4-1,6l3,0.5c0.1-0.3,0.1-0.7,0.2-1
			c0,0,0,0,0,0c0,0,0,0,0-0.1c0,0,0,0,0-0.1c0,0,0,0,0,0c0,0,0,0,0-0.1c0,0,0,0,0,0c0,0,0,0,0-0.1c0,0,0,0,0,0c0,0,0,0,0-0.1
			c0,0,0,0,0,0c0,0,0,0,0-0.1c0,0,0,0,0,0c0,0,0,0,0-0.1c0,0,0,0,0,0c0,0,0,0,0-0.1c0,0,0,0,0,0c0,0,0,0,0-0.1c0,0,0,0,0,0
			c0,0,0,0,0-0.1c0,0,0,0,0,0c0,0,0,0,0-0.1c0,0,0,0,0,0c0,0,0,0,0-0.1c0,0,0,0,0,0c0,0,0,0,0-0.1c0,0,0,0,0,0c0,0,0,0,0-0.1
			c0,0,0,0,0,0c0,0,0,0,0-0.1c0,0,0,0,0,0c0,0,0,0,0-0.1c0,0,0,0,0,0c0,0,0,0,0-0.1c0,0,0,0,0,0c0,0,0,0,0-0.1c0,0,0,0,0,0
			c0,0,0,0,0-0.1c0,0,0,0,0,0c0,0,0,0,0-0.1c0,0,0,0,0,0c0,0,0,0,0-0.1c0,0,0,0,0,0c0,0,0-0.1,0-0.1c0,0,0,0,0-0.1c0,0,0,0,0,0
			c0,0,0,0,0-0.1c0,0,0,0,0,0c0,0,0,0,0-0.1c0,0,0,0,0,0c0,0,0,0,0,0c0,0,0,0,0,0c0,0,0,0,0-0.1c0,0,0,0,0,0c0,0,0,0,0-0.1
			c0,0,0,0,0,0c0,0,0,0,0-0.1c0,0,0,0,0,0c0,0,0,0,0,0c0,0,0,0,0-0.1c0,0,0,0,0,0c0,0,0,0,0-0.1c0,0,0,0,0,0c0,0,0,0,0-0.1
			c0,0,0,0,0,0c0,0,0,0,0-0.1c0,0,0,0,0,0c0,0,0,0,0-0.1c0,0,0,0,0,0c0,0,0,0,0-0.1c0,0,0,0,0,0c0,0,0,0,0-0.1c0,0,0,0,0,0
			c0,0,0-0.1,0-0.1c0,0,0,0,0,0c0.1-0.5,0.2-0.9,0.2-1.4L738-33L738-33z M736.1-21c-0.3,2-0.5,4-0.7,6l3,0.3
			c0.1-0.6,0.1-1.1,0.2-1.7c0,0,0,0,0,0c0,0,0,0,0-0.1c0,0,0,0,0,0c0,0,0,0,0-0.1c0,0,0,0,0,0c0,0,0,0,0-0.1c0,0,0,0,0,0
			c0,0,0,0,0,0c0,0,0,0,0-0.1c0,0,0,0,0,0c0,0,0,0,0-0.1c0,0,0,0,0,0c0,0,0-0.1,0-0.1l0,0c0.1-0.8,0.2-1.7,0.3-2.5
			c0-0.4,0.1-0.7,0.1-1.1L736.1-21L736.1-21z M734.9-9c-0.2,2-0.3,4-0.4,6.1l3,0.2c0.1-1.6,0.2-3.1,0.3-4.7c0,0,0,0,0,0
			c0,0,0,0,0-0.1c0,0,0,0,0,0c0,0,0,0,0,0c0,0,0,0,0-0.1c0,0,0,0,0,0c0,0,0,0,0-0.1c0,0,0,0,0,0c0,0,0,0,0-0.1c0,0,0,0,0,0
			c0,0,0-0.1,0-0.1c0,0,0,0,0,0c0-0.2,0-0.5,0.1-0.7L734.9-9L734.9-9z M734.2,3.1c-0.1,2-0.1,4.1-0.1,6.1l3,0c0-0.3,0-0.7,0-1l0,0
			c0,0,0-0.1,0-0.1l0,0c0,0,0,0,0-0.1c0,0,0,0,0,0c0,0,0,0,0-0.1c0,0,0,0,0,0c0,0,0,0,0,0c0,0,0,0,0-0.1c0,0,0,0,0,0c0,0,0,0,0-0.1
			c0,0,0,0,0,0c0-1,0-1.9,0.1-2.9c0,0,0-0.1,0-0.1l0,0c0-0.5,0-1,0-1.5L734.2,3.1L734.2,3.1z M737,15.3l-3,0c0,2,0.1,4.1,0.1,6.1
			l3-0.1C737.1,19.3,737,17.3,737,15.3L737,15.3z M737.5,27.3l-3,0.2c0.1,2,0.3,4,0.4,6.1l3-0.3c0-0.5-0.1-0.9-0.1-1.4c0,0,0,0,0,0
			c0,0,0,0,0,0c0,0,0-0.1,0-0.1l0,0c0,0,0-0.1,0-0.1l0,0c0,0,0-0.1,0-0.1l0,0C737.6,30.1,737.5,28.7,737.5,27.3L737.5,27.3z
			 M738.5,39.2l-3,0.3c0.2,2,0.5,4,0.7,6l3-0.4c-0.2-1.2-0.3-2.5-0.5-3.7c0,0,0,0,0,0c0,0,0-0.1,0-0.1c0,0,0,0,0,0c0,0,0,0,0-0.1
			c0,0,0,0,0,0c0,0,0,0,0-0.1c0,0,0,0,0,0c0,0,0,0,0-0.1c0,0,0,0,0,0c0,0,0,0,0,0c0,0,0,0,0-0.1c0,0,0,0,0,0
			C738.6,40.3,738.5,39.8,738.5,39.2L738.5,39.2z M740,51.1l-3,0.5c0.3,2,0.7,4,1,6l3-0.5C740.7,55.1,740.4,53.1,740,51.1L740,51.1z
			 M742.2,62.9l-2.9,0.6c0.4,2,0.8,4,1.3,5.9l2.9-0.7c-0.2-1.1-0.5-2.1-0.7-3.2c0,0,0,0,0,0c0,0,0-0.1,0-0.1c0,0,0,0,0,0
			c0,0,0-0.1,0-0.1c0,0,0,0,0,0c0,0,0-0.1,0-0.1c0,0,0,0,0,0c0,0,0-0.1,0-0.1c0,0,0,0,0,0c0,0,0,0,0-0.1c0,0,0,0,0,0c0,0,0,0,0-0.1
			c0,0,0,0,0,0c0,0,0,0,0-0.1c0,0,0,0,0,0c0,0,0,0,0-0.1c0,0,0,0,0,0c0,0,0,0,0-0.1c0,0,0,0,0,0c0,0,0,0,0-0.1c0,0,0,0,0,0
			c0,0,0,0,0-0.1c0,0,0,0,0,0c0,0,0,0,0,0c0,0,0,0,0-0.1c0,0,0,0,0,0c0,0,0-0.1,0-0.1c0,0,0,0,0,0c0-0.1-0.1-0.3-0.1-0.4
			c0,0,0,0,0,0c0,0,0-0.1,0-0.1c0,0,0,0,0,0c0,0,0-0.1,0-0.1c0,0,0,0,0,0c0,0,0-0.1,0-0.1l0,0c0,0,0-0.1,0-0.1c0,0,0,0,0,0
			c0,0,0,0,0-0.1c0,0,0,0,0,0c0,0,0,0,0-0.1c0,0,0,0,0,0c0,0,0,0,0-0.1c0,0,0,0,0,0c0,0,0,0,0-0.1c0,0,0,0,0,0c0,0,0,0,0-0.1
			c0,0,0,0,0,0C742.2,63,742.2,63,742.2,62.9C742.2,63,742.2,63,742.2,62.9C742.2,62.9,742.2,62.9,742.2,62.9L742.2,62.9z
			 M744.9,74.6l-2.9,0.7c0.5,2,1,3.9,1.6,5.9l2.9-0.8c-0.3-1-0.6-2.1-0.9-3.1l0,0c0,0,0-0.1,0-0.1l0,0c0,0,0-0.1,0-0.1l0,0
			c0,0,0-0.1,0-0.1l0,0c0,0,0-0.1,0-0.1l0,0c0,0,0-0.1,0-0.1l0,0c0,0,0-0.1,0-0.1l0,0c0,0,0-0.1,0-0.1l0,0c0,0,0-0.1,0-0.1l0,0
			c0,0,0-0.1,0-0.1l0,0c0,0,0-0.1,0-0.1l0,0c0,0,0-0.1,0-0.1l0,0c0,0,0-0.1,0-0.1l0,0c0-0.1,0-0.1,0-0.2l0,0
			C745.1,75.5,745,75.1,744.9,74.6L744.9,74.6z M748.2,86.1l-2.9,0.9c0.6,1.9,1.2,3.9,1.9,5.8l2.8-1c-0.1-0.4-0.2-0.7-0.4-1.1l0,0
			c0,0,0-0.1,0-0.1l0,0c0,0,0,0,0-0.1c0,0,0,0,0,0c0,0,0,0,0-0.1c0,0,0,0,0,0c0,0,0,0,0-0.1c0,0,0,0,0,0c0,0,0,0,0,0c0,0,0,0,0-0.1
			c0,0,0,0,0,0c0,0,0,0,0-0.1c0,0,0,0,0,0c0,0,0-0.1,0-0.1v0C749,88.8,748.6,87.5,748.2,86.1L748.2,86.1z M752,97.5l-2.8,1
			c0.7,1.9,1.4,3.8,2.1,5.7l2.8-1.1c0,0,0-0.1,0-0.1c0,0,0,0,0,0c0,0,0-0.1,0-0.1c0,0,0,0,0,0c0,0,0,0,0-0.1c0,0,0,0,0,0
			c0,0,0,0,0,0c0,0,0,0,0-0.1c0,0,0,0,0,0C753.3,101,752.6,99.2,752,97.5L752,97.5z M756.4,108.7l-2.8,1.2c0.8,1.9,1.6,3.7,2.4,5.6
			l2.7-1.2c-0.8-1.8-1.6-3.5-2.3-5.3c0,0,0,0,0,0C756.4,108.8,756.4,108.8,756.4,108.7C756.4,108.8,756.4,108.7,756.4,108.7
			C756.4,108.7,756.4,108.7,756.4,108.7C756.4,108.7,756.4,108.7,756.4,108.7L756.4,108.7z M761.3,119.6l-2.7,1.3
			c0.9,1.8,1.8,3.7,2.7,5.4l2.7-1.4c0,0,0-0.1-0.1-0.1l0,0c0,0,0,0,0-0.1l0,0c0,0,0,0,0-0.1c0,0,0,0,0,0c0,0,0,0,0-0.1c0,0,0,0,0,0
			c0,0,0,0,0,0c0,0,0,0,0,0c0,0,0,0,0,0c0,0,0,0,0-0.1c0,0,0,0,0,0c0,0,0,0,0-0.1c0,0,0,0,0,0c0,0,0,0,0-0.1c0,0,0,0,0,0
			c0,0,0,0,0-0.1c0,0,0,0,0,0c0,0,0-0.1,0-0.1c0,0,0,0,0,0c0,0,0-0.1,0-0.1c0,0,0,0,0,0c0,0-0.1-0.1-0.1-0.2c0,0,0,0,0,0
			c0-0.1-0.1-0.1-0.1-0.2v0c-0.2-0.5-0.4-0.9-0.7-1.3c0,0,0,0,0,0C762.2,121.4,761.7,120.5,761.3,119.6L761.3,119.6z M766.7,130.3
			l-2.6,1.4c1,1.8,1.9,3.6,2.9,5.3l2.6-1.5c-0.3-0.6-0.6-1.1-1-1.7c0,0,0,0,0,0c0,0,0-0.1,0-0.1c0,0,0,0,0,0c0,0,0,0,0-0.1
			c0,0,0,0,0,0c0,0,0,0,0,0c0,0,0,0,0-0.1c0,0,0,0,0,0c0,0,0,0,0-0.1l0,0C767.9,132.4,767.3,131.4,766.7,130.3L766.7,130.3z
			 M772.7,140.8l-2.6,1.5c1,1.7,2.1,3.5,3.2,5.2l2.5-1.6C774.7,144.2,773.7,142.5,772.7,140.8L772.7,140.8z M779.1,150.9l-2.5,1.7
			c1.1,1.7,2.3,3.4,3.4,5l2.5-1.7C781.3,154.2,780.2,152.5,779.1,150.9L779.1,150.9z M786,160.7l-2.4,1.8c1.2,1.6,2.4,3.2,3.7,4.8
			l2.4-1.8C788.4,163.9,787.2,162.3,786,160.7L786,160.7z M793.4,170.2l-2.3,1.9c1.3,1.6,2.6,3.1,3.9,4.7l2.3-2
			c-0.7-0.9-1.5-1.8-2.2-2.6c0,0,0,0,0,0c0,0,0,0,0,0c0,0,0,0,0,0c0,0,0,0,0,0c0,0,0,0,0,0c0,0,0,0,0,0
			C794.4,171.4,793.9,170.8,793.4,170.2L793.4,170.2z M801.2,179.3l-2.2,2c1.3,1.5,2.7,3,4.1,4.5l2.2-2.1
			C803.9,182.2,802.5,180.7,801.2,179.3L801.2,179.3z M809.4,188l-2.1,2.1c1.4,1.4,2.9,2.9,4.3,4.3l2.1-2.2
			c-0.3-0.3-0.6-0.6-0.9-0.9c0,0,0,0,0,0c0,0,0,0,0,0c0,0,0,0,0,0c0,0,0,0,0,0c0,0,0,0,0,0c0,0,0,0,0,0c0,0,0,0,0,0c0,0,0,0,0,0
			c0,0,0,0,0,0c0,0,0,0,0,0c0,0,0,0,0,0c0,0,0,0,0,0c0,0,0,0,0,0c0,0,0,0,0,0c0,0,0,0,0,0c0,0,0,0,0,0c0,0,0,0,0,0c0,0,0,0,0,0
			c0,0,0,0,0,0c0,0,0,0,0,0c0,0,0,0,0,0c0,0,0,0,0,0c0,0,0,0,0,0c0,0,0,0,0,0c0,0,0,0,0,0c0,0,0,0,0,0c0,0,0,0,0,0c0,0,0,0,0,0
			c0,0,0,0,0,0c0,0,0,0,0,0c0,0,0,0,0,0c0,0,0,0,0,0c0,0,0,0,0,0c0,0,0,0,0,0c0,0,0,0,0,0c0,0,0,0,0,0c0,0,0,0,0,0c0,0,0,0,0,0
			c0,0,0,0,0,0c0,0,0,0-0.1-0.1c0,0,0,0,0,0c0,0,0,0-0.1-0.1c0,0,0,0,0,0C810.7,189.3,810.1,188.6,809.4,188L809.4,188z
			 M818.1,196.3l-2,2.2c1.5,1.4,3,2.7,4.5,4l2-2.3c-0.5-0.5-1-0.9-1.6-1.4c0,0,0,0,0,0c0,0,0,0,0,0c0,0,0,0,0,0c0,0,0,0,0,0
			c0,0,0,0-0.1-0.1c0,0,0,0,0,0C819.9,197.9,819,197.1,818.1,196.3L818.1,196.3z M827.1,204.2l-1.9,2.3c1.5,1.3,3.1,2.6,4.7,3.8
			l1.9-2.4c-0.8-0.7-1.7-1.3-2.5-2c0,0,0,0,0,0c0,0,0,0,0,0c0,0,0,0-0.1-0.1c0,0,0,0,0,0C828.5,205.3,827.8,204.8,827.1,204.2
			L827.1,204.2z M836.5,211.7l-1.8,2.4c1.6,1.2,3.3,2.4,4.9,3.6l1.7-2.4c-0.2-0.1-0.3-0.2-0.5-0.4c0,0,0,0,0,0c0,0,0,0,0,0
			c0,0,0,0,0,0c0,0,0,0,0,0c-0.8-0.6-1.6-1.1-2.3-1.7c0,0,0,0,0,0c0,0,0,0,0,0C837.7,212.6,837.1,212.1,836.5,211.7L836.5,211.7z
			 M846.3,218.7l-1.7,2.5c1.7,1.1,3.4,2.3,5.1,3.4l1.6-2.5c-1.2-0.8-2.5-1.6-3.7-2.5l0,0c0,0,0,0-0.1,0l0,0c0,0,0,0-0.1,0
			c0,0,0,0,0,0c0,0,0,0-0.1,0c0,0,0,0,0,0c0,0,0,0,0,0c0,0,0,0,0,0c0,0,0,0,0,0c0,0,0,0,0,0c0,0,0,0,0,0c0,0,0,0,0,0c0,0,0,0,0,0
			c0,0,0,0,0,0c0,0,0,0,0,0c0,0,0,0-0.1,0c0,0,0,0,0,0c0,0,0,0-0.1,0c0,0,0,0,0,0c0,0,0,0-0.1,0c0,0,0,0,0,0c0,0-0.1,0-0.1,0
			c0,0,0,0,0,0C846.5,218.8,846.4,218.7,846.3,218.7L846.3,218.7z M856.3,225.2l-1.6,2.6c1.7,1.1,3.5,2.1,5.2,3.1l1.5-2.6
			C859.8,227.3,858,226.2,856.3,225.2L856.3,225.2z M866.7,231.2l-1.4,2.6c1.8,1,3.6,1.9,5.4,2.9l1.4-2.7c-1-0.5-2-1-3-1.6
			c0,0,0,0,0,0c0,0,0,0-0.1,0c0,0,0,0,0,0c0,0,0,0-0.1,0c0,0,0,0,0,0c0,0,0,0,0,0c0,0,0,0,0,0c0,0,0,0,0,0c0,0,0,0-0.1,0l0,0
			C868,231.9,867.4,231.6,866.7,231.2L866.7,231.2z M877.4,236.7l-1.3,2.7c1.8,0.9,3.7,1.8,5.5,2.6l1.3-2.7c-1.1-0.5-2.2-1-3.2-1.5
			C878.8,237.4,878.1,237.1,877.4,236.7L877.4,236.7z M888.3,241.7l-1.2,2.8c1.9,0.8,3.7,1.6,5.6,2.3l1.1-2.8
			c-1.7-0.7-3.3-1.4-5-2.1l0,0c0,0-0.1,0-0.1,0l0,0c0,0-0.1,0-0.1,0l0,0c0,0,0,0-0.1,0c0,0,0,0,0,0c0,0,0,0-0.1,0c0,0,0,0,0,0
			c0,0,0,0-0.1,0c0,0,0,0,0,0C888.3,241.8,888.3,241.8,888.3,241.7C888.3,241.8,888.3,241.8,888.3,241.7
			C888.3,241.7,888.3,241.7,888.3,241.7L888.3,241.7z M899.4,246.2l-1.1,2.8c1.9,0.7,3.8,1.4,5.7,2.1l1-2.8
			c-0.4-0.2-0.9-0.3-1.3-0.5c0,0,0,0,0,0c0,0-0.1,0-0.1,0c0,0,0,0,0,0c0,0-0.1,0-0.1,0c0,0,0,0,0,0c0,0,0,0-0.1,0c0,0,0,0,0,0
			c0,0,0,0-0.1,0c0,0,0,0,0,0c0,0,0,0-0.1,0c0,0,0,0,0,0c0,0,0,0-0.1,0c0,0,0,0,0,0c0,0,0,0-0.1,0c0,0,0,0,0,0c0,0,0,0,0,0
			c0,0,0,0-0.1,0c0,0,0,0,0,0c0,0,0,0-0.1,0c0,0,0,0,0,0c-0.6-0.2-1.1-0.4-1.7-0.6l0,0c0,0-0.1,0-0.1,0c0,0,0,0,0,0c0,0,0,0-0.1,0
			c0,0,0,0,0,0c0,0,0,0-0.1,0c0,0,0,0,0,0c0,0,0,0-0.1,0c0,0,0,0,0,0c0,0,0,0,0,0c0,0,0,0,0,0c0,0,0,0,0,0c0,0,0,0-0.1,0
			c0,0,0,0,0,0c0,0,0,0-0.1,0c0,0,0,0,0,0c0,0-0.1,0-0.1,0c0,0,0,0,0,0C900,246.5,899.7,246.3,899.4,246.2L899.4,246.2z
			 M910.7,250.2l-0.9,2.9c1.9,0.6,3.9,1.2,5.8,1.8l0.8-2.9c-0.4-0.1-0.7-0.2-1.1-0.3c0,0,0,0,0,0c0,0-0.1,0-0.1,0c0,0,0,0,0,0
			c0,0,0,0-0.1,0c0,0,0,0-0.1,0c0,0,0,0,0,0c0,0-0.1,0-0.1,0l0,0c-0.7-0.2-1.5-0.4-2.2-0.7l0,0c0,0-0.1,0-0.1,0c0,0,0,0,0,0
			c0,0,0,0-0.1,0c0,0,0,0,0,0c0,0,0,0-0.1,0c0,0,0,0,0,0c0,0,0,0,0,0c0,0,0,0,0,0c0,0,0,0,0,0c0,0,0,0-0.1,0c0,0,0,0,0,0
			c0,0,0,0-0.1,0c0,0,0,0,0,0c0,0,0,0-0.1,0c0,0,0,0,0,0C911.7,250.5,911.2,250.3,910.7,250.2L910.7,250.2z M922.2,253.5l-0.8,2.9
			c1.9,0.5,3.9,1,5.9,1.5l0.7-2.9c-0.6-0.1-1.2-0.3-1.8-0.4c0,0,0,0,0,0c-0.1,0-0.2,0-0.3-0.1c0,0,0,0,0,0c0,0-0.1,0-0.1,0
			c0,0,0,0,0,0c-0.9-0.2-1.9-0.5-2.8-0.7c0,0,0,0,0,0c0,0-0.1,0-0.1,0c0,0,0,0,0,0c0,0,0,0-0.1,0c0,0,0,0,0,0c0,0,0,0-0.1,0
			c0,0,0,0,0,0c0,0,0,0-0.1,0c0,0,0,0,0,0c0,0,0,0,0,0c0,0,0,0-0.1,0c0,0,0,0,0,0c0,0,0,0-0.1,0c0,0,0,0,0,0c0,0-0.1,0-0.1,0l0,0
			C922.3,253.6,922.3,253.5,922.2,253.5L922.2,253.5z M933.9,256.4l-0.6,2.9c2,0.4,4,0.8,6,1.2l0.6-2.9
			C937.8,257.2,935.9,256.8,933.9,256.4L933.9,256.4z M945.7,258.6l-0.5,3c2,0.3,4,0.6,6,0.9l0.4-3c-1.2-0.2-2.5-0.4-3.7-0.6
			c0,0,0,0,0,0c-0.1,0-0.1,0-0.2,0c0,0,0,0,0,0c0,0-0.1,0-0.1,0c0,0,0,0,0,0c0,0-0.1,0-0.1,0c0,0,0,0,0,0c0,0-0.1,0-0.1,0
			c0,0,0,0,0,0c0,0-0.1,0-0.1,0c0,0,0,0,0,0c0,0,0,0-0.1,0c0,0,0,0,0,0c0,0,0,0-0.1,0c0,0,0,0,0,0c0,0,0,0-0.1,0c0,0,0,0,0,0
			c0,0,0,0-0.1,0c-0.1,0-0.2,0-0.3,0l0,0c0,0-0.1,0-0.1,0l0,0C946.3,258.7,946,258.7,945.7,258.6L945.7,258.6z M957.6,260.3l-0.3,3
			c2,0.2,4,0.4,6,0.6l0.3-3c-0.1,0-0.2,0-0.3,0c0,0,0,0,0,0c0,0,0,0-0.1,0c0,0,0,0,0,0c0,0,0,0-0.1,0c0,0,0,0,0,0c0,0,0,0,0,0
			c0,0,0,0-0.1,0c0,0,0,0,0,0C961.1,260.7,959.3,260.5,957.6,260.3L957.6,260.3z M969.5,261.4l-0.2,3c2,0.1,4,0.3,6.1,0.3l0.1-3
			c-0.2,0-0.4,0-0.6,0c0,0,0,0,0,0c0,0,0,0-0.1,0c0,0,0,0,0,0c0,0,0,0-0.1,0c0,0,0,0,0,0c0,0,0,0,0,0c0,0,0,0-0.1,0c0,0,0,0,0,0
			c0,0,0,0-0.1,0c0,0,0,0,0,0c0,0,0,0-0.1,0c0,0,0,0,0,0c0,0,0,0-0.1,0c0,0,0,0,0,0c0,0,0,0-0.1,0c0,0,0,0,0,0c0,0,0,0-0.1,0
			c0,0,0,0,0,0c0,0,0,0-0.1,0c0,0,0,0,0,0c0,0-0.1,0-0.1,0c0,0,0,0,0,0c0,0-0.1,0-0.1,0l0,0c0,0-0.1,0-0.1,0l0,0c-0.1,0-0.1,0-0.2,0
			l0,0c0,0-0.1,0-0.1,0c0,0,0,0,0,0c0,0,0,0-0.1,0c0,0,0,0,0,0c0,0,0,0-0.1,0c0,0,0,0,0,0c0,0,0,0-0.1,0c0,0,0,0,0,0c0,0,0,0-0.1,0
			c0,0,0,0,0,0c0,0,0,0,0,0c0,0,0,0-0.1,0c0,0,0,0,0,0c0,0,0,0-0.1,0c0,0,0,0,0,0c0,0,0,0-0.1,0c0,0,0,0,0,0c0,0,0,0-0.1,0
			c0,0,0,0,0,0c0,0,0,0-0.1,0c0,0,0,0,0,0c0,0,0,0-0.1,0c0,0,0,0,0,0c0,0-0.1,0-0.1,0c0,0,0,0,0,0c-0.2,0-0.4,0-0.7,0c0,0,0,0,0,0
			c0,0-0.1,0-0.1,0c0,0,0,0,0,0c0,0-0.1,0-0.1,0c0,0,0,0,0,0c0,0-0.1,0-0.1,0c0,0,0,0,0,0c0,0,0,0-0.1,0c0,0,0,0,0,0
			c0,0-0.1,0-0.1,0c0,0,0,0,0,0c0,0-0.1,0-0.1,0c0,0,0,0,0,0c0,0-0.1,0-0.1,0c0,0,0,0,0,0c0,0-0.1,0-0.1,0c0,0,0,0,0,0
			c0,0-0.1,0-0.1,0c0,0,0,0,0,0c0,0-0.1,0-0.1,0c0,0,0,0,0,0c0,0-0.1,0-0.1,0c0,0,0,0,0,0c0,0-0.1,0-0.1,0c0,0,0,0-0.1,0l0,0
			c0,0-0.1,0-0.1,0l0,0c-0.1,0-0.1,0-0.2,0l0,0C969.9,261.4,969.7,261.4,969.5,261.4L969.5,261.4z M981.5,261.9l-0.1,3
			c1.8,0,3.7,0.1,5.6,0.1l0.5,0l0-3c-0.2,0-0.3,0-0.5,0l0,0l0,0c0,0-0.1,0-0.1,0c0,0,0,0,0,0c0,0,0,0-0.1,0c0,0,0,0,0,0
			c0,0,0,0-0.1,0c0,0,0,0,0,0c0,0,0,0-0.1,0c0,0,0,0,0,0c0,0,0,0-0.1,0c0,0,0,0,0,0c0,0-0.1,0-0.1,0c0,0,0,0,0,0c0,0,0,0-0.1,0
			c0,0,0,0,0,0c0,0,0,0-0.1,0c0,0,0,0,0,0c0,0,0,0,0,0c0,0,0,0,0,0c0,0,0,0,0,0c0,0,0,0,0,0c0,0,0,0,0,0c0,0-0.1,0-0.1,0
			c0,0,0,0,0,0c0,0,0,0-0.1,0c0,0,0,0,0,0c0,0,0,0-0.1,0c0,0,0,0,0,0c0,0,0,0-0.1,0c0,0,0,0,0,0c0,0,0,0-0.1,0c0,0,0,0,0,0
			c-0.1,0-0.2,0-0.3,0c0,0,0,0,0,0c0,0-0.1,0-0.1,0c0,0,0,0,0,0c0,0,0,0-0.1,0c0,0,0,0,0,0C983.8,262,982.6,262,981.5,261.9
			L981.5,261.9z M999.5,261.7c-2,0.1-4,0.2-6,0.2l0.1,3c2-0.1,4.1-0.1,6.1-0.2L999.5,261.7L999.5,261.7z M1011.5,260.8
			c-0.3,0-0.6,0.1-0.9,0.1l0,0c0,0-0.1,0-0.1,0l0,0c0,0-0.1,0-0.1,0l0,0c0,0,0,0-0.1,0c0,0,0,0,0,0c0,0,0,0-0.1,0c0,0,0,0,0,0
			c0,0,0,0-0.1,0c0,0,0,0,0,0c0,0,0,0-0.1,0c0,0,0,0,0,0c0,0,0,0-0.1,0c0,0,0,0,0,0c0,0,0,0,0,0c-0.1,0-0.2,0-0.2,0c0,0,0,0,0,0
			c0,0,0,0-0.1,0c0,0,0,0,0,0c0,0,0,0-0.1,0c0,0,0,0,0,0c0,0,0,0-0.1,0c0,0,0,0,0,0c0,0,0,0,0,0s0,0,0,0c0,0,0,0,0,0c0,0,0,0-0.1,0
			c0,0,0,0,0,0c0,0,0,0-0.1,0c0,0,0,0,0,0c0,0,0,0-0.1,0c0,0,0,0,0,0c0,0,0,0-0.1,0c0,0,0,0,0,0c0,0-0.1,0-0.1,0l0,0
			c0,0-0.1,0-0.1,0l0,0c-1,0.1-2.1,0.2-3.1,0.2l0.2,3c2-0.1,4-0.3,6-0.5L1011.5,260.8L1011.5,260.8z M1023.4,259.4
			c-0.8,0.1-1.7,0.2-2.5,0.4c0,0,0,0,0,0c0,0-0.1,0-0.1,0c-1.1,0.2-2.2,0.3-3.4,0.4l0.4,3c2-0.2,4-0.5,6-0.8L1023.4,259.4
			L1023.4,259.4z M1035.2,257.4c-0.5,0.1-0.9,0.2-1.4,0.3c0,0,0,0,0,0c0,0-0.1,0-0.1,0c0,0,0,0,0,0c-0.1,0-0.1,0-0.2,0c0,0,0,0,0,0
			c0,0,0,0,0,0c0,0,0,0-0.1,0c0,0,0,0,0,0c0,0,0,0-0.1,0c0,0,0,0,0,0c0,0,0,0-0.1,0c0,0,0,0,0,0c0,0,0,0-0.1,0c0,0,0,0,0,0
			c0,0,0,0-0.1,0c0,0,0,0,0,0c0,0,0,0-0.1,0c0,0,0,0,0,0c0,0,0,0-0.1,0c0,0,0,0,0,0c0,0,0,0,0,0c0,0,0,0,0,0c0,0,0,0-0.1,0
			c0,0,0,0,0,0c0,0,0,0,0,0c0,0,0,0,0,0c0,0,0,0,0,0c0,0,0,0,0,0c0,0,0,0,0,0c0,0,0,0,0,0c0,0,0,0,0,0c0,0,0,0-0.1,0c0,0,0,0,0,0
			c0,0,0,0-0.1,0c0,0,0,0,0,0c0,0,0,0-0.1,0c0,0,0,0,0,0c0,0,0,0-0.1,0c0,0,0,0,0,0c0,0,0,0-0.1,0c0,0,0,0,0,0c0,0,0,0-0.1,0
			c0,0,0,0,0,0c0,0,0,0-0.1,0c0,0,0,0,0,0c0,0-0.1,0-0.1,0l0,0c-0.2,0-0.4,0.1-0.6,0.1l0,0c0,0-0.1,0-0.1,0c0,0,0,0,0,0
			c0,0,0,0-0.1,0c0,0,0,0,0,0c0,0,0,0-0.1,0c0,0,0,0,0,0c0,0,0,0-0.1,0c0,0,0,0,0,0c0,0,0,0-0.1,0c0,0,0,0,0,0c0,0,0,0,0,0
			c0,0,0,0-0.1,0c0,0,0,0,0,0c0,0,0,0-0.1,0c0,0,0,0,0,0c0,0,0,0-0.1,0l0,0c0,0-0.1,0-0.1,0l0,0c-0.3,0-0.5,0.1-0.8,0.1l0.5,3
			c2-0.3,4-0.7,6-1.1L1035.2,257.4L1035.2,257.4z M1046.9,254.8c-1.4,0.3-2.8,0.7-4.2,1l0,0c-0.5,0.1-1.1,0.2-1.6,0.4l0.6,2.9
			c2-0.4,4-0.9,5.9-1.4L1046.9,254.8L1046.9,254.8z M1058.5,251.6c-0.2,0.1-0.4,0.1-0.5,0.2c0,0,0,0,0,0c0,0,0,0-0.1,0c0,0,0,0,0,0
			c0,0,0,0-0.1,0c0,0,0,0,0,0c0,0,0,0-0.1,0c0,0,0,0,0,0c0,0,0,0-0.1,0c0,0,0,0,0,0c0,0,0,0,0,0c0,0,0,0-0.1,0c0,0,0,0,0,0
			c0,0,0,0-0.1,0c0,0,0,0,0,0c0,0,0,0-0.1,0l0,0c0,0-0.1,0-0.1,0l0,0c-1.5,0.4-3,0.9-4.5,1.3l0.8,2.9c1.9-0.5,3.9-1.1,5.8-1.7
			L1058.5,251.6L1058.5,251.6z M1069.9,247.9c-1.9,0.7-3.8,1.3-5.7,1.9l0.9,2.9c1.9-0.6,3.9-1.3,5.8-1.9L1069.9,247.9L1069.9,247.9z
			 M1081.1,243.7c-1,0.4-2.1,0.8-3.1,1.2c0,0,0,0,0,0c0,0-0.1,0-0.1,0c0,0,0,0,0,0c0,0,0,0-0.1,0c0,0,0,0,0,0c0,0,0,0-0.1,0
			c0,0,0,0,0,0c0,0,0,0-0.1,0c0,0,0,0,0,0c0,0,0,0,0,0c0,0,0,0-0.1,0c0,0,0,0,0,0c0,0,0,0-0.1,0c0,0,0,0,0,0c0,0-0.1,0-0.1,0l0,0
			c-0.6,0.2-1.2,0.5-1.8,0.7l1.1,2.8c1.9-0.7,3.8-1.5,5.7-2.2L1081.1,243.7L1081.1,243.7z M1092.1,238.9c-1.8,0.8-3.6,1.7-5.5,2.5
			l1.2,2.8c1.8-0.8,3.7-1.6,5.5-2.5L1092.1,238.9L1092.1,238.9z M1102.9,233.6c-0.3,0.1-0.5,0.3-0.8,0.4c-0.7,0.4-1.5,0.8-2.2,1.1
			l0,0c0,0-0.1,0-0.1,0c0,0,0,0,0,0c0,0,0,0-0.1,0c0,0,0,0,0,0c0,0,0,0,0,0c0,0,0,0,0,0c0,0,0,0,0,0c0,0,0,0-0.1,0c0,0,0,0,0,0
			c0,0,0,0-0.1,0c0,0,0,0,0,0c-0.6,0.3-1.2,0.6-1.8,0.9l1.3,2.7c1.8-0.9,3.6-1.8,5.4-2.8L1102.9,233.6L1102.9,233.6z M1113.4,227.7
			c-1.7,1-3.5,2-5.2,3l1.5,2.6c1.8-1,3.5-2,5.3-3L1113.4,227.7L1113.4,227.7z M1123.6,221.4c-0.2,0.1-0.4,0.3-0.6,0.4l0,0
			c0,0,0,0-0.1,0l0,0c0,0,0,0-0.1,0c0,0,0,0,0,0c0,0,0,0-0.1,0c0,0,0,0,0,0c0,0,0,0-0.1,0c0,0,0,0,0,0c0,0,0,0-0.1,0c0,0,0,0,0,0
			c0,0,0,0,0,0c0,0,0,0,0,0c0,0,0,0,0,0c0,0,0,0,0,0c0,0,0,0,0,0c0,0,0,0,0,0c0,0,0,0,0,0c0,0,0,0,0,0c0,0,0,0,0,0c0,0,0,0,0,0
			c0,0,0,0,0,0c0,0,0,0,0,0c0,0,0,0,0,0c0,0,0,0-0.1,0c0,0,0,0,0,0c0,0,0,0-0.1,0c0,0,0,0,0,0c0,0,0,0-0.1,0c0,0,0,0,0,0
			c0,0,0,0-0.1,0c0,0,0,0,0,0c0,0,0,0-0.1,0c0,0,0,0,0,0c0,0,0,0-0.1,0c0,0,0,0,0,0c0,0,0,0,0,0c0,0,0,0,0,0c0,0,0,0,0,0
			c0,0,0,0,0,0c0,0,0,0,0,0c0,0,0,0,0,0c0,0,0,0,0,0c0,0,0,0,0,0c0,0,0,0,0,0c0,0,0,0,0,0c0,0,0,0,0,0c0,0,0,0,0,0c0,0,0,0,0,0
			c0,0,0,0-0.1,0c0,0,0,0,0,0c0,0,0,0-0.1,0c0,0,0,0,0,0c0,0,0,0-0.1,0l0,0c0,0,0,0-0.1,0l0,0c0,0,0,0-0.1,0l0,0c0,0,0,0-0.1,0l0,0
			c-0.7,0.4-1.4,0.9-2.1,1.3l1.6,2.5c1.7-1.1,3.4-2.2,5.1-3.3L1123.6,221.4L1123.6,221.4z M1133.5,214.6c-0.1,0-0.1,0.1-0.2,0.1
			c-1.1,0.8-2.2,1.6-3.3,2.4c0,0,0,0,0,0c0,0,0,0-0.1,0c0,0,0,0,0,0c0,0,0,0,0,0c0,0,0,0,0,0c0,0,0,0,0,0c0,0,0,0-0.1,0l0,0
			c-0.4,0.3-0.8,0.5-1.1,0.8l1.7,2.5c1.7-1.1,3.3-2.3,5-3.5L1133.5,214.6L1133.5,214.6z M1143,207.3c-0.4,0.3-0.8,0.6-1.2,1
			c0,0,0,0,0,0c0,0,0,0,0,0c0,0,0,0,0,0c0,0,0,0,0,0c-1.1,0.9-2.3,1.8-3.4,2.6l1.8,2.4c1.6-1.2,3.2-2.5,4.8-3.7L1143,207.3
			L1143,207.3z M1152.2,199.6c-0.2,0.2-0.4,0.3-0.6,0.5c0,0,0,0,0,0c0,0,0,0-0.1,0.1c0,0,0,0,0,0c0,0,0,0-0.1,0.1c0,0,0,0,0,0
			c0,0,0,0-0.1,0.1c0,0,0,0,0,0c0,0,0,0-0.1,0.1c0,0,0,0,0,0c0,0,0,0-0.1,0c0,0,0,0,0,0c0,0,0,0-0.1,0c0,0,0,0,0,0c0,0,0,0-0.1,0
			c0,0,0,0,0,0c0,0,0,0-0.1,0c0,0,0,0,0,0c0,0,0,0,0,0c0,0,0,0,0,0c0,0,0,0-0.1,0c0,0,0,0,0,0c0,0,0,0-0.1,0c0,0,0,0,0,0
			c0,0,0,0-0.1,0c0,0,0,0,0,0c0,0,0,0-0.1,0c0,0,0,0,0,0c0,0,0,0-0.1,0.1c0,0,0,0,0,0c0,0,0,0-0.1,0.1c0,0,0,0,0,0c0,0,0,0-0.1,0.1
			c0,0,0,0,0,0c0,0,0,0-0.1,0c0,0,0,0,0,0c0,0,0,0-0.1,0c0,0,0,0,0,0c0,0,0,0-0.1,0c0,0,0,0,0,0c0,0,0,0-0.1,0.1c0,0,0,0,0,0
			c0,0,0,0-0.1,0c0,0,0,0,0,0c0,0,0,0-0.1,0.1c0,0,0,0,0,0c0,0,0,0-0.1,0.1c0,0,0,0,0,0c0,0,0,0-0.1,0.1c0,0,0,0,0,0
			c0,0,0,0-0.1,0.1c0,0,0,0,0,0c0,0,0,0-0.1,0.1c0,0,0,0,0,0c0,0-0.1,0.1-0.1,0.1l0,0c-0.7,0.6-1.3,1.1-2,1.7l1.9,2.3
			c1.5-1.3,3.1-2.6,4.6-4L1152.2,199.6L1152.2,199.6z M1161,191.5C1161,191.5,1161,191.5,1161,191.5
			C1161,191.5,1161,191.5,1161,191.5C1161,191.6,1160.9,191.6,1161,191.5c-0.1,0.1-0.1,0.1-0.1,0.1c0,0,0,0,0,0c0,0,0,0,0,0
			c0,0,0,0,0,0c0,0,0,0,0,0c0,0,0,0,0,0c0,0,0,0,0,0c0,0,0,0,0,0c0,0,0,0,0,0c0,0,0,0,0,0c0,0,0,0,0,0c0,0,0,0,0,0c0,0,0,0-0.1,0
			c0,0,0,0,0,0c0,0,0,0,0,0c0,0,0,0,0,0c0,0,0,0-0.1,0.1c0,0,0,0,0,0c0,0,0,0-0.1,0.1c0,0,0,0,0,0c0,0,0,0-0.1,0.1c0,0,0,0,0,0
			c0,0,0,0-0.1,0.1c0,0,0,0,0,0c0,0,0,0-0.1,0.1c0,0,0,0,0,0c0,0,0,0-0.1,0.1c0,0,0,0,0,0c0,0,0,0-0.1,0.1c0,0,0,0,0,0
			c0,0,0,0-0.1,0.1c0,0,0,0,0,0c0,0,0,0-0.1,0.1c0,0,0,0,0,0c0,0-0.1,0.1-0.1,0.1c0,0,0,0,0,0c0,0,0,0-0.1,0.1c0,0,0,0,0,0
			c0,0,0,0-0.1,0.1c0,0,0,0,0,0c0,0-0.1,0.1-0.1,0.1c0,0,0,0,0,0c0,0,0,0-0.1,0.1c0,0,0,0,0,0c0,0,0,0-0.1,0.1c0,0,0,0,0,0
			c0,0,0,0-0.1,0.1c0,0,0,0,0,0c0,0,0,0-0.1,0.1c0,0,0,0,0,0c0,0,0,0-0.1,0.1c0,0,0,0,0,0c0,0,0,0-0.1,0.1c0,0,0,0,0,0
			c0,0,0,0-0.1,0.1c0,0,0,0,0,0c0,0,0,0-0.1,0.1c0,0,0,0,0,0c0,0,0,0,0,0c0,0,0,0,0,0c0,0,0,0-0.1,0c0,0,0,0,0,0c0,0,0,0-0.1,0.1
			c0,0,0,0,0,0c0,0,0,0-0.1,0.1c0,0,0,0,0,0c0,0,0,0,0,0c0,0,0,0,0,0c0,0,0,0,0,0c0,0,0,0,0,0c0,0,0,0-0.1,0c0,0,0,0,0,0
			c0,0,0,0,0,0c0,0,0,0,0,0c0,0,0,0,0,0c0,0,0,0,0,0c0,0,0,0,0,0c0,0,0,0,0,0c0,0,0,0,0,0c0,0,0,0,0,0c0,0,0,0,0,0c0,0,0,0,0,0
			c0,0,0,0,0,0c0,0,0,0,0,0c0,0,0,0,0,0c0,0,0,0,0,0c0,0,0,0,0,0c0,0,0,0,0,0c0,0,0,0,0,0c0,0,0,0-0.1,0c0,0,0,0,0,0c0,0,0,0-0.1,0
			c0,0,0,0,0,0c0,0,0,0-0.1,0c0,0,0,0,0,0c0,0,0,0-0.1,0.1l0,0c0,0,0,0-0.1,0.1l0,0c0,0,0,0-0.1,0.1l0,0c0,0,0,0-0.1,0.1l0,0
			c-0.2,0.2-0.4,0.4-0.6,0.6l2,2.2c1.5-1.4,3-2.8,4.4-4.2L1161,191.5L1161,191.5z M1169.4,182.9c-0.3,0.3-0.5,0.5-0.8,0.8
			c0,0,0,0,0,0c0,0,0,0-0.1,0.1c0,0,0,0,0,0c0,0,0,0-0.1,0.1c0,0,0,0,0,0c0,0,0,0-0.1,0.1c0,0,0,0,0,0c0,0,0,0,0,0.1c0,0,0,0,0,0
			c0,0,0,0,0,0c0,0,0,0,0,0c0,0,0,0,0,0c0,0,0,0,0,0c0,0,0,0,0,0c0,0,0,0,0,0c0,0,0,0,0,0c0,0,0,0,0,0c0,0,0,0,0,0c0,0,0,0,0,0
			c0,0,0,0,0,0c0,0,0,0,0,0c0,0,0,0,0,0c0,0,0,0-0.1,0.1l0,0c0,0,0,0-0.1,0.1l0,0c-0.6,0.6-1.1,1.2-1.7,1.7l0,0c0,0,0,0-0.1,0.1l0,0
			c0,0,0,0-0.1,0.1c0,0,0,0,0,0c0,0,0,0,0,0c0,0,0,0,0,0c0,0,0,0,0,0c0,0,0,0,0,0c0,0,0,0,0,0c0,0,0,0,0,0c0,0,0,0,0,0c0,0,0,0,0,0
			c0,0,0,0,0,0c0,0,0,0-0.1,0.1c0,0,0,0,0,0c-0.1,0.1-0.3,0.3-0.4,0.4l2.1,2.1c1.4-1.4,2.8-2.9,4.2-4.4L1169.4,182.9L1169.4,182.9z
			 M1177.4,174c-1.2,1.4-2.4,2.8-3.7,4.2c0,0,0,0,0,0c-0.1,0.1-0.2,0.2-0.2,0.3l2.2,2c1.3-1.5,2.7-3,4-4.6L1177.4,174L1177.4,174z
			 M1185,164.7c-1.2,1.6-2.5,3.2-3.7,4.7l2.3,1.9c1.3-1.6,2.5-3.2,3.8-4.8L1185,164.7L1185,164.7z M1192.1,155
			c-0.3,0.4-0.6,0.8-0.8,1.2l0,0c0,0,0,0,0,0.1l0,0c0,0,0,0,0,0.1c0,0,0,0,0,0c0,0,0,0,0,0c0,0,0,0,0,0c0,0,0,0,0,0c0,0,0,0,0,0
			c0,0,0,0,0,0c0,0,0,0,0,0.1c0,0,0,0,0,0c0,0,0,0,0,0.1c0,0,0,0,0,0c0,0,0,0-0.1,0.1c0,0,0,0,0,0c0,0,0,0-0.1,0.1c0,0,0,0,0,0
			c-0.3,0.4-0.6,0.8-0.9,1.2c0,0,0,0,0,0c0,0,0,0-0.1,0.1c0,0,0,0,0,0c0,0,0,0-0.1,0.1c0,0,0,0,0,0c0,0,0,0,0,0.1c0,0,0,0,0,0
			c0,0,0,0,0,0.1c0,0,0,0,0,0c0,0,0,0,0,0.1c0,0,0,0,0,0c0,0,0,0,0,0c0,0,0,0,0,0c0,0,0,0,0,0c0,0,0,0,0,0c0,0,0,0,0,0
			c0,0,0,0,0,0.1c0,0,0,0,0,0c0,0,0,0,0,0.1l0,0c0,0,0,0,0,0.1l0,0c-0.2,0.3-0.5,0.7-0.7,1l2.4,1.8c1.2-1.6,2.4-3.3,3.5-4.9
			L1192.1,155L1192.1,155z M1198.7,145c-1.1,1.7-2.2,3.4-3.3,5c0,0,0,0,0,0l2.5,1.7c1.1-1.7,2.2-3.4,3.3-5.1L1198.7,145L1198.7,145z
			 M1204.9,134.7C1204.9,134.7,1204.9,134.7,1204.9,134.7C1204.9,134.7,1204.9,134.7,1204.9,134.7
			C1204.8,134.8,1204.8,134.8,1204.9,134.7c-0.1,0.1-0.1,0.1-0.1,0.1c0,0,0,0,0,0c0,0,0,0,0,0c0,0,0,0,0,0.1c0,0,0,0,0,0
			c0,0,0,0,0,0.1c0,0,0,0,0,0c0,0,0,0,0,0.1l0,0c0,0,0,0,0,0.1l0,0c0,0,0,0,0,0.1l0,0c0,0.1-0.1,0.1-0.1,0.2l0,0
			c-0.4,0.7-0.7,1.3-1.1,2l0,0c0,0,0,0.1,0,0.1l0,0c0,0,0,0.1,0,0.1l0,0c0,0,0,0.1,0,0.1l0,0c0,0,0,0,0,0.1l0,0c0,0,0,0,0,0.1l0,0
			c0,0,0,0.1,0,0.1l0,0c0,0,0,0.1,0,0.1l0,0c0,0,0,0,0,0.1l0,0c0,0,0,0,0,0.1l0,0c0,0,0,0.1,0,0.1l0,0c0,0,0,0.1,0,0.1l0,0
			c0,0,0,0.1,0,0.1l0,0c-0.3,0.5-0.6,1-0.9,1.5l2.6,1.5c1-1.7,2.1-3.5,3-5.3L1204.9,134.7L1204.9,134.7z M1210.5,124.1
			c-0.6,1.2-1.2,2.3-1.8,3.5c0,0,0,0,0,0c0,0,0,0.1,0,0.1c0,0,0,0,0,0c0,0,0,0.1,0,0.1c0,0,0,0,0,0c0,0,0,0,0,0.1c0,0,0,0,0,0
			c0,0,0,0,0,0.1c0,0,0,0,0,0c0,0,0,0,0,0.1c0,0,0,0,0,0c0,0,0,0,0,0c0,0,0,0,0,0c0,0,0,0,0,0c0,0,0,0,0,0.1c0,0,0,0,0,0
			c0,0,0,0,0,0.1c0,0,0,0,0,0c0,0,0,0,0,0.1l0,0c0,0,0,0,0,0.1l0,0c-0.2,0.3-0.3,0.6-0.5,0.9l2.6,1.4c0.9-1.8,1.9-3.6,2.8-5.4
			L1210.5,124.1L1210.5,124.1z M1215.6,113.3c-0.2,0.3-0.3,0.7-0.5,1c0,0,0,0,0,0.1c0,0,0,0,0,0c-0.7,1.5-1.3,2.9-2,4.3l2.7,1.3
			c0.9-1.8,1.7-3.7,2.5-5.5L1215.6,113.3L1215.6,113.3z M1220.2,102.2c-0.1,0.3-0.2,0.6-0.3,0.9c0,0,0,0,0,0c0,0,0,0,0,0
			c-0.3,0.8-0.7,1.7-1,2.5l0,0c0,0,0,0.1,0,0.1l0,0c0,0,0,0,0,0.1c0,0,0,0,0,0c0,0,0,0,0,0.1c0,0,0,0,0,0c0,0,0,0,0,0.1c0,0,0,0,0,0
			c0,0,0,0,0,0.1c0,0,0,0,0,0c0,0,0,0,0,0c0,0,0,0,0,0c0,0,0,0,0,0c0,0,0,0,0,0.1c0,0,0,0,0,0c0,0,0,0,0,0.1c0,0,0,0,0,0
			c0,0,0,0,0,0.1c0,0,0,0,0,0c0,0,0,0.1,0,0.1v0c-0.2,0.4-0.3,0.8-0.5,1.2l2.8,1.1c0.8-1.9,1.5-3.8,2.3-5.6L1220.2,102.2
			L1220.2,102.2z M1224.3,90.9c-0.2,0.5-0.3,1-0.5,1.5l0,0c0,0,0,0.1,0,0.1l0,0c0,0,0,0,0,0.1c0,0,0,0,0,0c0,0,0,0,0,0.1
			c0,0,0,0,0,0c0,0,0,0,0,0.1c0,0,0,0,0,0c0,0,0,0,0,0.1c0,0,0,0,0,0c0,0,0,0,0,0c0,0,0,0,0,0.1c0,0,0,0,0,0c0,0,0,0,0,0.1
			c0,0,0,0,0,0c0,0,0,0,0,0.1c0,0,0,0,0,0c0,0,0,0.1,0,0.1c0,0,0,0,0,0c-0.1,0.3-0.2,0.6-0.3,0.9c0,0,0,0,0,0c0,0,0,0,0,0.1
			c0,0,0,0,0,0c0,0,0,0,0,0.1c0,0,0,0,0,0c0,0,0,0,0,0.1c0,0,0,0,0,0c0,0,0,0,0,0c0,0,0,0,0,0c0,0,0,0,0,0c0,0,0,0,0,0c0,0,0,0,0,0
			c0,0,0,0,0,0.1c0,0,0,0,0,0c0,0,0,0,0,0.1c0,0,0,0,0,0c0,0,0,0,0,0.1l0,0c0,0,0,0.1,0,0.1l0,0c0,0,0,0.1,0,0.1l0,0
			c0,0,0,0.1,0,0.1l0,0c-0.2,0.5-0.3,1-0.5,1.5l2.8,1c0.7-1.9,1.3-3.8,2-5.7L1224.3,90.9L1224.3,90.9z M1227.8,79.4
			c-0.1,0.3-0.2,0.6-0.3,0.9c0,0,0,0,0,0c0,0,0,0,0,0.1c0,0,0,0,0,0c0,0,0,0,0,0.1c0,0,0,0,0,0c0,0,0,0,0,0c0,0,0,0,0,0.1
			c0,0,0,0,0,0c0,0,0,0,0,0.1c0,0,0,0,0,0c0,0,0,0.1,0,0.1l0,0c-0.2,0.7-0.4,1.4-0.6,2.1l0,0c0,0,0,0.1,0,0.1c0,0,0,0,0,0
			c0,0,0,0,0,0.1c0,0,0,0,0,0c0,0,0,0,0,0.1c0,0,0,0,0,0c0,0,0,0,0,0c0,0,0,0,0,0.1c0,0,0,0,0,0c0,0,0,0,0,0.1c0,0,0,0,0,0
			c0,0,0,0,0,0.1c0,0,0,0,0,0c0,0,0,0.1,0,0.1c0,0,0,0,0,0c0,0,0,0.1,0,0.1c0,0,0,0,0,0c-0.1,0.5-0.3,0.9-0.4,1.4l2.9,0.9
			c0.6-1.9,1.2-3.9,1.7-5.8L1227.8,79.4L1227.8,79.4z M1230.8,67.8c-0.2,0.7-0.3,1.4-0.5,2.1c0,0,0,0,0,0c0,0,0,0,0,0
			c-0.3,1.2-0.6,2.4-0.9,3.6l2.9,0.7c0.5-2,1-3.9,1.4-5.9L1230.8,67.8L1230.8,67.8z M1233.1,56c0,0.1,0,0.2-0.1,0.4c0,0,0,0,0,0
			c0,0,0,0.1,0,0.1c0,0,0,0,0,0c0,0,0,0,0,0.1c0,0,0,0,0,0c0,0,0,0,0,0c0,0,0,0.1,0,0.1c0,0,0,0,0,0c-0.2,1.1-0.4,2.2-0.6,3.3l0,0
			c0,0,0,0.1,0,0.1c0,0,0,0,0,0c0,0,0,0,0,0.1c0,0,0,0,0,0c0,0,0,0,0,0.1c0,0,0,0,0,0c0,0,0,0,0,0.1c0,0,0,0,0,0c0,0,0,0,0,0.1
			c0,0,0,0,0,0c0,0,0,0,0,0.1c0,0,0,0,0,0c0,0,0,0,0,0.1c0,0,0,0,0,0c0,0,0,0,0,0c0,0,0,0,0,0c0,0,0,0,0,0.1c0,0,0,0,0,0
			c0,0,0,0,0,0.1c0,0,0,0,0,0c0,0,0,0,0,0.1c0,0,0,0,0,0c0,0,0,0,0,0.1c0,0,0,0,0,0c0,0,0,0,0,0.1c0,0,0,0,0,0c0,0,0,0,0,0.1
			c0,0,0,0,0,0c0,0,0,0.1,0,0.1c0,0,0,0,0,0c0,0.2-0.1,0.3-0.1,0.5l2.9,0.6c0.4-2,0.8-4,1.1-6L1233.1,56L1233.1,56z M1235,44.2
			c-0.2,1.6-0.4,3.2-0.7,4.7c0,0,0,0,0,0c0,0,0,0,0,0.1c0,0,0,0,0,0c0,0,0,0,0,0c0,0,0,0,0,0.1c0,0,0,0,0,0c0,0,0,0,0,0.1l0,0
			c0,0,0,0.1,0,0.1l0,0c0,0.3-0.1,0.5-0.1,0.8l3,0.5c0.3-2,0.6-4,0.8-6L1235,44.2L1235,44.2z M1236.2,32.2c0,0.2,0,0.4,0,0.6l0,0
			c0,0,0,0.1,0,0.1l0,0c0,0,0,0.1,0,0.1l0,0c0,0,0,0.1,0,0.1c0,0,0,0,0,0c0,0,0,0,0,0.1c0,0,0,0,0,0c0,0,0,0,0,0.1c0,0,0,0,0,0
			c0,0,0,0,0,0.1c0,0,0,0,0,0c0,0,0,0.1,0,0.1c0,0,0,0,0,0c0,0,0,0.1,0,0.1c0,0,0,0,0,0c0,0.1,0,0.1,0,0.2l0,0c0,0,0,0.1,0,0.1
			c0,0,0,0,0,0c0,0,0,0,0,0.1c0,0,0,0,0,0c0,0,0,0,0,0.1c0,0,0,0,0,0c0,0,0,0,0,0.1c0,0,0,0,0,0c0,0,0,0,0,0.1c0,0,0,0,0,0
			c0,0,0,0,0,0.1c0,0,0,0,0,0c0,0,0,0,0,0.1c0,0,0,0,0,0c0,0,0,0,0,0.1c0,0,0,0,0,0c0,0,0,0,0,0.1c0,0,0,0,0,0c0,0,0,0,0,0.1
			c0,0,0,0,0,0c0,0,0,0.1,0,0.1l0,0c0,0,0,0.1,0,0.1l0,0c-0.1,0.8-0.2,1.6-0.2,2.5l0,0c0,0,0,0.1,0,0.1c0,0,0,0,0,0c0,0,0,0,0,0.1
			c0,0,0,0,0,0c0,0,0,0,0,0.1c0,0,0,0,0,0c0,0,0,0,0,0c0,0,0,0,0,0.1c0,0,0,0,0,0c0,0,0,0,0,0.1c0,0,0,0,0,0c0,0,0,0,0,0.1
			c0,0,0,0,0,0c0,0,0,0.1,0,0.1l3,0.3c0.2-2,0.4-4,0.6-6L1236.2,32.2L1236.2,32.2z M1236.9,20.2c0,0.1,0,0.2,0,0.3c0,0,0,0,0,0
			c0,0,0,0,0,0.1c0,0,0,0,0,0c0,0,0,0,0,0.1c0,0,0,0,0,0c0,0,0,0,0,0.1c0,0,0,0,0,0c0,0,0,0,0,0.1c0,0,0,0,0,0c0,0,0,0,0,0.1
			c0,0,0,0,0,0.1c0,0,0,0,0,0c0,0,0,0.1,0,0.1l0,0c-0.1,1.7-0.1,3.4-0.2,5.1l3,0.2c0.1-2,0.2-4.1,0.3-6.1L1236.9,20.2L1236.9,20.2z
			 M1240,8.2l-3,0c0,0.2,0,0.4,0,0.6c0,0,0,0,0,0c0,0,0,0.1,0,0.1c0,0,0,0,0,0c0,0,0,0.1,0,0.1c0,0,0,0,0,0c0,0,0,0.1,0,0.1
			c0,0,0,0,0,0.1c0,0,0,0,0,0.1c0,0,0,0,0,0.1c0,0,0,0,0,0c0,0,0,0,0,0.1c0,0,0,0,0,0c0,0,0,0,0,0.1c0,0,0,0,0,0c0,0,0,0.1,0,0.1
			c0,0,0,0,0,0c0,0.1,0,0.3,0,0.4l0,0c0,0,0,0.1,0,0.1l0,0c0,0,0,0.1,0,0.1c0,0,0,0,0,0c0,0,0,0.1,0,0.1c0,0,0,0,0,0
			c0,0.1,0,0.2,0,0.4c0,0,0,0,0,0c0,0,0,0,0,0.1c0,0,0,0,0,0c0,0,0,0,0,0.1c0,0,0,0,0,0c0,0,0,0,0,0.1c0,0,0,0,0,0c0,0,0,0,0,0.1
			c0,0,0,0,0,0c0,0,0,0.1,0,0.1c0,0,0,0,0,0.1c0,0,0,0,0,0.1c0,0,0,0,0,0.1c0,0,0,0,0,0.1c0,0,0,0,0,0.1c0,0,0,0,0,0.1
			c0,0,0,0,0,0.1c0,0,0,0,0,0c0,0,0,0,0,0.1c0,0,0,0,0,0c0,0,0,0.1,0,0.1l0,0l0,0l0,0l0,0c0,0,0,0.1,0,0.1c0,0,0,0,0,0
			c0,0,0,0.1,0,0.1v0c0,0,0,0.1,0,0.1c0,0,0,0,0,0c0,0,0,0,0,0.1c0,0,0,0,0,0c0,0,0,0.1,0,0.1c0,0,0,0,0,0c0,0,0,0,0,0.1
			c0,0,0,0,0,0c0,0,0,0.1,0,0.1c0,0,0,0,0,0c0,0,0,0,0,0.1c0,0,0,0,0,0c0,0,0,0,0,0.1l0,0c0,0,0,0.1,0,0.1c0,0,0,0,0,0
			c0,0,0,0.1,0,0.1v0c0,0,0,0.1,0,0.1v0c0,0.3,0,0.7,0,1l3,0c0-0.8,0-1.5,0-2.3C1240,10.7,1240,9.5,1240,8.2L1240,8.2z M1239.5-3.9
			l-3,0.2c0.1,1.6,0.2,3.2,0.3,4.8l0,0c0,0,0,0.1,0,0.1l0,0c0,0,0,0.1,0,0.1l0,0c0,0,0,0.1,0,0.1v0c0,0.3,0,0.6,0,0.9l3-0.1
			C1239.7,0.1,1239.6-1.9,1239.5-3.9L1239.5-3.9z M1238.5-16l-3,0.3c0.2,2,0.4,4,0.6,6l3-0.3C1238.9-12,1238.7-14,1238.5-16
			L1238.5-16z M1236.8-28.1l-3,0.5c0.3,1.6,0.5,3.2,0.7,4.8l0,0c0,0,0,0.1,0,0.1c0,0,0,0,0,0c0,0,0,0,0,0.1c0,0,0,0,0,0
			c0,0,0,0,0,0.1c0,0,0,0,0,0c0,0,0,0,0,0.1c0,0,0,0,0,0c0,0,0,0,0,0c0,0,0,0,0,0.1c0,0,0,0,0,0c0,0,0,0,0,0.1c0,0,0,0,0,0
			c0,0,0,0,0,0.1c0,0,0,0,0,0c0,0,0,0,0,0.1c0,0,0,0,0,0c0,0,0,0.1,0,0.1c0,0,0,0,0,0c0,0.1,0,0.1,0,0.2l3-0.4
			C1237.5-24.1,1237.2-26.1,1236.8-28.1L1236.8-28.1z M1234.6-40l-2.9,0.6c0.2,1.1,0.5,2.2,0.7,3.3c0,0,0,0,0,0c0,0,0,0,0,0.1
			c0,0,0,0,0,0c0,0,0,0,0,0.1c0,0,0,0,0,0c0,0,0,0,0,0c0,0,0,0,0,0c0,0,0,0,0,0c0,0,0,0,0,0.1c0,0,0,0,0,0c0,0,0,0,0,0.1
			c0,0,0,0,0,0c0,0,0,0,0,0.1c0,0,0,0,0,0c0,0,0,0,0,0.1c0,0,0,0,0,0c0,0,0,0,0,0.1c0,0,0,0,0,0c0,0,0,0,0,0.1l0,0c0,0,0,0.1,0,0.1
			l0,0c0,0,0,0.1,0,0.1l0,0c0,0,0,0.1,0,0.1l0,0c0,0,0,0.1,0,0.1l0,0c0,0,0,0.1,0,0.1l0,0c0,0,0,0.1,0,0.1l0,0c0,0,0,0.1,0,0.1l0,0
			c0.1,0.3,0.1,0.6,0.2,0.9l0,0c0,0,0,0.1,0,0.1c0,0,0,0,0,0c0,0,0,0,0,0.1l3-0.5C1235.5-36,1235.1-38,1234.6-40L1234.6-40z
			 M1231.9-51.8l-2.9,0.8c0.5,1.9,1,3.9,1.4,5.8l2.9-0.7C1232.9-47.9,1232.4-49.9,1231.9-51.8L1231.9-51.8z M1228.5-63.5l-2.9,0.9
			c0.5,1.5,0.9,3,1.4,4.5l0,0c0,0,0,0.1,0,0.1l0,0c0,0,0,0.1,0,0.1l0,0c0,0,0,0.1,0,0.1l0,0c0,0,0,0.1,0,0.1l0,0
			c0,0.1,0,0.1,0.1,0.2l0,0c0.1,0.2,0.1,0.4,0.2,0.7l2.9-0.8C1229.7-59.6,1229.1-61.6,1228.5-63.5L1228.5-63.5z M1224.6-75l-2.8,1
			c0.7,1.9,1.4,3.8,2,5.7l2.8-1C1226-71.2,1225.3-73.1,1224.6-75L1224.6-75z M1220.2-86.3l-2.8,1.2c0,0,0,0,0,0c0,0,0,0,0,0
			c0,0,0,0,0,0.1c0,0,0,0,0,0c0,0,0,0,0,0c0,0,0,0,0,0.1c0,0,0,0,0,0c0,0,0,0,0,0.1c0,0,0,0,0,0c0,0,0,0,0,0.1c0,0,0,0,0,0
			c0,0,0,0,0,0.1c0,0,0,0,0,0c0,0,0,0.1,0,0.1c0,0,0,0,0,0c0.5,1.2,1,2.5,1.5,3.7c0.2,0.4,0.3,0.8,0.5,1.2l2.8-1.1
			C1221.7-82.6,1221-84.5,1220.2-86.3L1220.2-86.3z M1215.2-97.4l-2.7,1.3c0.2,0.3,0.3,0.7,0.5,1c0,0,0,0,0,0c0,0,0,0,0,0.1
			c0,0,0,0,0,0c0,0,0,0,0,0.1c0,0,0,0,0,0c0,0,0,0,0,0.1c0,0,0,0,0,0c0,0,0,0,0,0c0,0,0,0,0,0c0,0,0,0,0,0c0,0,0,0,0,0c0,0,0,0,0,0
			c0,0,0,0,0,0c0,0,0,0,0,0c0,0,0,0,0,0.1c0,0,0,0,0,0c0,0,0,0,0,0.1c0,0,0,0,0,0c0,0,0,0,0,0.1c0,0,0,0,0,0c0,0,0,0,0,0.1
			c0,0,0,0,0,0c0,0,0,0.1,0,0.1l0,0c0,0,0,0,0,0.1c0,0,0,0,0,0c0,0,0,0.1,0,0.1l0,0c0,0,0,0.1,0,0.1l0,0c0,0.1,0.1,0.1,0.1,0.2l0,0
			c0.1,0.1,0.1,0.2,0.2,0.3l0,0c0,0,0,0.1,0,0.1l0,0c0,0,0,0,0,0.1c0,0,0,0,0,0c0,0,0,0,0,0.1c0,0,0,0,0,0c0,0,0,0,0,0
			c0.4,0.8,0.7,1.6,1.1,2.4l2.7-1.2C1216.9-93.7,1216.1-95.6,1215.2-97.4L1215.2-97.4z M1209.7-108.2l-2.6,1.4
			c0.8,1.4,1.5,2.9,2.3,4.3c0,0,0,0,0,0c0,0,0,0,0,0.1c0,0,0,0,0,0c0,0,0,0,0,0.1c0,0,0,0,0,0c0,0,0,0,0,0c0,0,0,0,0,0.1
			c0,0,0,0,0,0c0.1,0.2,0.2,0.5,0.3,0.7l2.7-1.4C1211.6-104.6,1210.6-106.4,1209.7-108.2L1209.7-108.2z M1203.6-118.7l-2.6,1.6
			c0.8,1.4,1.7,2.8,2.5,4.2c0,0,0,0,0,0c0,0.1,0.1,0.1,0.1,0.2c0,0,0,0,0,0c0,0,0,0,0,0.1c0,0,0,0,0,0c0,0,0,0,0,0.1c0,0,0,0,0,0
			c0,0,0,0,0,0c0,0,0,0,0,0c0,0,0,0,0,0c0,0,0,0,0,0c0,0,0,0,0,0c0,0,0,0,0,0.1l0,0c0.1,0.1,0.1,0.2,0.2,0.3l2.6-1.5
			C1205.7-115.3,1204.7-117,1203.6-118.7L1203.6-118.7z M1197.1-129l-2.5,1.7c0,0,0,0.1,0.1,0.1c0,0,0,0,0,0c0,0,0,0,0,0
			c1.1,1.6,2.1,3.2,3.2,4.9l2.5-1.6C1199.4-125.6,1198.2-127.3,1197.1-129L1197.1-129z M1190.1-138.9l-2.4,1.8
			c0.5,0.7,1,1.4,1.6,2.1c0,0,0,0,0,0c0,0,0,0,0,0.1c0,0,0,0,0,0c0,0,0,0,0,0.1c0,0,0,0,0,0c0,0,0,0,0,0c0,0,0,0,0,0c0,0,0,0,0,0
			c0,0,0,0,0,0.1c0,0,0,0,0,0c0,0,0,0,0,0.1l0,0c0.6,0.8,1.1,1.5,1.7,2.3l2.4-1.7C1192.5-135.6,1191.3-137.3,1190.1-138.9
			L1190.1-138.9z M1182.6-148.5l-2.3,1.9c0.1,0.2,0.3,0.3,0.4,0.5c0,0,0,0,0,0c0,0,0,0,0,0.1c0,0,0,0,0,0c0,0,0,0,0,0c0,0,0,0,0,0
			c0,0,0,0,0,0c0,0,0,0,0,0c0,0,0,0,0,0c0,0,0,0,0,0.1l0,0c0,0,0,0,0.1,0.1l0,0c0,0,0,0,0.1,0.1l0,0c0.7,0.8,1.4,1.7,2.1,2.6l0,0
			c0,0,0,0,0,0.1c0,0,0,0,0,0c0,0,0,0,0,0c0,0,0,0,0,0c0,0,0,0,0,0c0,0,0,0,0,0c0,0,0,0,0,0c0,0,0,0,0,0.1c0,0,0,0,0,0
			c0,0,0,0,0.1,0.1c0,0,0,0,0,0c0.2,0.2,0.4,0.5,0.6,0.7l2.4-1.8C1185.2-145.3,1183.9-146.9,1182.6-148.5L1182.6-148.5z
			 M1174.7-157.7l-2.2,2c0.3,0.3,0.6,0.6,0.9,1c0,0,0,0,0,0c0,0,0,0,0.1,0.1c0,0,0,0,0,0c0,0,0,0,0,0c0,0,0,0,0,0c0,0,0,0,0,0
			c0,0,0,0,0,0c0,0,0,0,0,0c0,0,0,0,0,0c0,0,0,0,0,0c0,0,0,0,0,0c0,0,0,0,0,0c0,0,0,0,0.1,0.1l0,0c0,0,0,0,0.1,0.1l0,0
			c0.8,0.9,1.6,1.8,2.3,2.7l0,0c0,0,0,0,0.1,0.1l0,0c0,0,0,0,0,0.1c0,0,0,0,0,0c0,0,0,0,0,0c0,0,0,0,0,0c0,0,0,0,0,0c0,0,0,0,0,0
			c0,0,0,0,0,0l2.3-2C1177.4-154.6,1176-156.2,1174.7-157.7L1174.7-157.7z M1166.3-166.5l-2.1,2.1c0.3,0.3,0.7,0.7,1,1l0,0
			c0,0,0,0,0.1,0.1c0,0,0,0,0,0c0,0,0,0,0.1,0.1c0,0,0,0,0,0c0,0,0,0,0,0c0,0,0,0,0,0c0,0,0,0,0,0c0,0,0,0,0,0c0,0,0,0,0,0
			c0,0,0,0,0,0c0,0,0,0,0,0c0,0,0,0,0.1,0.1l0,0c0.8,0.8,1.6,1.6,2.3,2.4l0,0c0,0,0,0,0,0c0,0,0,0,0,0c0,0,0,0,0,0c0,0,0,0,0,0
			c0,0,0,0,0,0c0,0,0,0,0,0.1c0,0,0,0,0,0c0.1,0.1,0.1,0.1,0.2,0.2l2.2-2.1C1169.2-163.6,1167.8-165,1166.3-166.5L1166.3-166.5z
			 M1157.6-174.9l-2,2.2c0.9,0.8,1.8,1.7,2.7,2.5l0,0c0,0,0,0,0.1,0.1l0,0c0,0,0,0,0.1,0.1l0,0c0,0,0,0,0.1,0c0,0,0,0,0,0
			c0,0,0,0,0,0c0,0,0,0,0,0c0,0,0,0,0,0c0,0,0,0,0,0c0,0,0,0,0,0c0,0,0,0,0,0c0,0,0,0,0,0c0,0,0,0,0,0c0,0,0,0,0,0c0,0,0,0,0,0
			c0,0,0,0,0,0c0,0,0,0,0.1,0.1c0,0,0,0,0,0c0.3,0.3,0.7,0.6,1,1l2.1-2.2C1160.5-172.1,1159.1-173.5,1157.6-174.9L1157.6-174.9z
			 M1148.4-182.8l-1.9,2.3c0.6,0.5,1.2,1,1.8,1.5l0,0c0,0,0,0,0.1,0.1l0,0c0,0,0,0,0.1,0.1l0,0c0,0,0,0,0.1,0.1l0,0c0,0,0,0,0.1,0.1
			l0,0c0,0,0,0,0.1,0.1l0,0c0,0,0,0,0.1,0.1l0,0c0,0,0,0,0.1,0.1l0,0c0,0,0,0,0.1,0.1l0,0c0,0,0,0,0.1,0c0,0,0,0,0,0c0,0,0,0,0.1,0
			c0,0,0,0,0,0c0,0,0,0,0.1,0c0,0,0,0,0,0c0,0,0,0,0.1,0c0,0,0,0,0,0c0,0,0,0,0.1,0c0,0,0,0,0,0c0,0,0,0,0,0c0,0,0,0,0,0
			c0,0,0,0,0.1,0c0,0,0,0,0,0c0,0,0,0,0.1,0c0,0,0,0,0,0c0,0,0,0,0,0c0,0,0,0,0,0c0,0,0,0,0,0c0,0,0,0,0,0c0,0,0,0,0,0c0,0,0,0,0,0
			c0,0,0,0,0,0c0,0,0,0,0,0c0,0,0,0,0,0c0,0,0,0,0,0c0,0,0,0,0.1,0c0,0,0,0,0,0c0,0,0,0,0.1,0c0,0,0,0,0,0c0,0,0,0,0.1,0l0,0
			c0,0,0,0,0.1,0c0,0,0,0,0,0c0,0,0,0,0.1,0l0,0c0,0,0,0,0.1,0.1l0,0c0,0,0,0,0.1,0.1l0,0c0,0,0,0,0.1,0.1l0,0c0,0,0,0,0.1,0.1l0,0
			c0,0,0,0,0.1,0.1l0,0c0.2,0.2,0.4,0.3,0.6,0.5l2-2.3C1151.5-180.2,1150-181.5,1148.4-182.8L1148.4-182.8z M1138.9-190.4l-1.8,2.4
			c0,0,0,0,0,0c0,0,0,0,0,0c0,0,0,0,0.1,0c0,0,0,0,0,0c0,0,0,0,0.1,0c0,0,0,0,0,0c0,0,0,0,0.1,0c0,0,0,0,0,0c0,0,0,0,0.1,0
			c0,0,0,0,0,0c0,0,0,0,0,0c0,0,0,0,0,0c0,0,0,0,0,0c0,0,0,0,0,0c0,0,0,0,0,0c0,0,0,0,0,0c0,0,0,0,0,0c0,0,0,0,0,0c0,0,0,0,0,0
			c0,0,0,0,0,0c0,0,0,0,0,0c0,0,0,0,0,0c0,0,0,0,0,0c0,0,0,0,0,0c0,0,0,0,0,0c0,0,0,0,0,0c0,0,0,0,0,0c0,0,0,0,0,0c0,0,0,0,0,0
			c0,0,0,0,0,0c0,0,0,0,0,0c0,0,0,0,0,0c0,0,0,0,0,0c0,0,0,0,0,0c0,0,0,0,0,0c0,0,0,0,0.1,0c0,0,0,0,0,0c0,0,0,0,0,0c0,0,0,0,0,0
			c0,0,0,0,0.1,0c0,0,0,0,0,0c0,0,0,0,0.1,0c0,0,0,0,0,0c0,0,0,0,0.1,0c0,0,0,0,0,0c0,0,0,0,0.1,0c0,0,0,0,0,0c0,0,0,0,0.1,0
			c0,0,0,0,0,0c0,0,0,0,0.1,0c0,0,0,0,0,0c0,0,0,0,0.1,0c0,0,0,0,0,0c0,0,0,0,0.1,0c0,0,0,0,0,0c0,0,0,0,0.1,0c0,0,0,0,0,0
			c0,0,0,0,0.1,0c0,0,0,0,0,0c0,0,0,0,0.1,0c0,0,0,0,0,0c0,0,0,0,0.1,0c0,0,0,0,0,0c0,0,0,0,0.1,0c0,0,0,0,0,0c0,0,0,0,0,0
			c0,0,0,0,0,0c0,0,0,0,0.1,0c0,0,0,0,0,0c0,0,0,0,0,0c0,0,0,0,0,0c0,0,0,0,0,0c0,0,0,0,0,0c0,0,0,0,0,0c0,0,0,0,0,0c0,0,0,0,0,0
			c0,0,0,0,0,0c0,0,0,0,0,0c0,0,0,0,0,0c0,0,0,0,0,0c0,0,0,0,0,0c0,0,0,0,0,0c0,0,0,0,0,0c0,0,0,0,0,0c0,0,0,0,0,0c0,0,0,0,0,0
			c0,0,0,0,0,0c0,0,0,0,0,0c0,0,0,0,0,0c0,0,0,0,0,0c0,0,0,0,0.1,0c0,0,0,0,0,0c0,0,0,0,0.1,0l0,0c0,0,0,0,0.1,0l0,0
			c0,0,0,0,0.1,0.1l0,0c0,0,0,0,0.1,0.1l0,0c0.4,0.3,0.7,0.6,1.1,0.8l1.9-2.4C1142.1-187.9,1140.5-189.2,1138.9-190.4L1138.9-190.4z
			 M1129-197.4l-1.7,2.5c0.4,0.3,0.9,0.6,1.3,0.9l0,0c0,0,0,0,0.1,0l0,0c0,0,0,0,0.1,0l0,0c0,0,0,0,0.1,0l0,0c0,0,0,0,0.1,0
			c0,0,0,0,0,0c0,0,0,0,0.1,0l0,0c0,0,0,0,0.1,0l0,0c0,0,0,0,0.1,0l0,0c0,0,0,0,0.1,0c0,0,0,0,0,0c0,0,0,0,0.1,0l0,0c0,0,0,0,0.1,0
			l0,0c0,0,0,0,0.1,0l0,0c0,0,0,0,0.1,0l0,0c0,0,0,0,0.1,0l0,0c0,0,0.1,0,0.1,0.1l0,0c0.1,0,0.1,0.1,0.2,0.1l0,0
			c0.1,0,0.1,0.1,0.2,0.1l0,0c0.1,0,0.1,0.1,0.2,0.1l0,0c0.1,0,0.1,0.1,0.2,0.1l0,0c0,0,0.1,0,0.1,0.1l0,0c0,0,0,0,0.1,0.1l0,0
			c0,0,0,0,0.1,0l0,0c0,0,0,0,0.1,0l0,0c0,0,0,0,0.1,0l0,0c0,0,0,0,0.1,0c0,0,0,0,0,0c0,0,0,0,0.1,0c0,0,0,0,0,0c0,0,0,0,0.1,0
			c0,0,0,0,0,0c0,0,0,0,0.1,0c0,0,0,0,0,0c0,0,0,0,0,0c0,0,0,0,0,0c0,0,0,0,0,0c0,0,0,0,0,0c0,0,0,0,0,0c0,0,0,0,0,0c0,0,0,0,0,0
			c0,0,0,0,0.1,0c0,0,0,0,0,0c0,0,0,0,0.1,0c0,0,0,0,0,0c0,0,0,0,0.1,0.1c0,0,0,0,0,0c0.2,0.2,0.5,0.3,0.7,0.5l1.7-2.4
			C1132.3-195.1,1130.7-196.3,1129-197.4L1129-197.4z M1118.8-204l-1.6,2.6c0,0,0,0,0,0c0,0,0,0,0,0c0,0,0,0,0,0c0,0,0,0,0,0
			c0,0,0,0,0,0c0,0,0,0,0,0c0,0,0,0,0,0c0,0,0,0,0,0c0,0,0,0,0,0c0,0,0,0,0,0c0,0,0,0,0,0c0,0,0,0,0,0c0,0,0,0,0,0c0,0,0,0,0,0
			c0,0,0,0,0,0c0,0,0,0,0,0c0,0,0,0,0,0c0,0,0,0,0,0c0,0,0,0,0,0c0,0,0,0,0,0c0,0,0,0,0,0c0,0,0,0,0,0c0,0,0,0,0,0c0,0,0,0,0,0
			c0,0,0,0,0,0c0,0,0,0,0,0c0,0,0,0,0,0c0,0,0,0,0,0c0,0,0,0,0,0c0,0,0,0,0,0c0,0,0,0,0.1,0c0,0,0,0,0,0c0,0,0,0,0.1,0c0,0,0,0,0,0
			c0,0,0,0,0.1,0c0,0,0,0,0,0c0,0,0,0,0.1,0c0,0,0,0,0,0c0,0,0,0,0.1,0c0,0,0,0,0,0c0,0,0,0,0.1,0c0,0,0,0,0,0c0,0,0,0,0.1,0
			c0,0,0,0,0,0c0,0,0,0,0.1,0c0,0,0,0,0,0c0,0,0,0,0.1,0l0,0c0,0,0,0,0.1,0l0,0c0,0,0,0,0.1,0l0,0c0,0,0.1,0,0.1,0l0,0
			c1,0.6,2,1.2,2.9,1.9l1.6-2.5C1122.2-201.9,1120.5-203,1118.8-204L1118.8-204z M1108.3-210.1l-1.4,2.6c0,0,0,0,0.1,0l0,0
			c0,0,0.1,0,0.1,0l0,0c0,0,0.1,0,0.1,0l0,0c1.7,0.9,3.3,1.9,5,2.8l1.5-2.6C1111.8-208.1,1110.1-209.1,1108.3-210.1L1108.3-210.1z
			 M1097.5-215.7l-1.3,2.7c1.4,0.7,2.9,1.4,4.3,2.1c0,0,0,0,0,0c0,0,0,0,0.1,0c0,0,0,0,0,0c0,0,0,0,0,0c0,0,0,0,0.1,0c0,0,0,0,0,0
			c0.3,0.2,0.6,0.3,0.9,0.5l1.4-2.7C1101.1-213.9,1099.3-214.8,1097.5-215.7L1097.5-215.7z M1086.4-220.7l-1.2,2.8
			c1.8,0.8,3.7,1.6,5.5,2.4l1.2-2.7C1090.2-219.1,1088.3-219.9,1086.4-220.7L1086.4-220.7z M1075.2-225.2l-1,2.8
			c1.1,0.4,2.3,0.9,3.4,1.3l0,0c0,0,0.1,0,0.1,0l0,0c0,0,0.1,0,0.1,0l0,0c0,0,0,0,0.1,0c0,0,0,0,0,0c0,0,0,0,0.1,0c0,0,0,0,0,0
			c0,0,0,0,0.1,0c0,0,0,0,0,0c0,0,0,0,0.1,0c0,0,0,0,0,0c0,0,0,0,0,0c0,0,0,0,0,0c0,0,0,0,0,0c0,0,0,0,0,0c0,0,0,0,0,0
			c0,0,0,0,0.1,0c0,0,0,0,0,0c0,0,0,0,0.1,0c0,0,0,0,0,0c0.4,0.2,0.9,0.3,1.3,0.5l1.1-2.8C1079-223.8,1077.1-224.5,1075.2-225.2
			L1075.2-225.2z M1063.7-229.2l-0.9,2.9c0.4,0.1,0.7,0.2,1.1,0.3c0,0,0,0,0,0c0,0,0.1,0,0.1,0c0,0,0,0,0,0c0,0,0,0,0.1,0
			c0,0,0,0,0,0c0,0,0,0,0.1,0c0,0,0,0,0,0c0,0,0,0,0,0c0,0,0,0,0.1,0c0,0,0,0,0,0c0,0,0.1,0,0.1,0l0,0c0,0,0.1,0,0.1,0l0,0
			c1.3,0.4,2.7,0.9,4,1.3l1-2.8C1067.6-227.9,1065.6-228.6,1063.7-229.2L1063.7-229.2z M1052-232.6l-0.8,2.9c1.9,0.5,3.9,1,5.8,1.6
			l0.8-2.9C1055.9-231.5,1054-232,1052-232.6L1052-232.6z M1040.2-235.4l-0.6,2.9c0,0,0,0,0.1,0l0,0c0.8,0.2,1.5,0.3,2.3,0.5l0,0
			c0,0,0.1,0,0.1,0l0,0c0,0,0.1,0,0.1,0l0,0c0,0,0.1,0,0.1,0l0,0c0,0,0.1,0,0.1,0l0,0c0,0,0.1,0,0.1,0l0,0c0,0,0.1,0,0.1,0
			c0,0,0,0,0,0c0,0,0,0,0.1,0c0,0,0,0,0,0c0,0,0,0,0.1,0c0,0,0,0,0,0c0,0,0,0,0,0c0.9,0.2,1.8,0.4,2.7,0.6l0.7-2.9
			C1044.2-234.5,1042.2-235,1040.2-235.4L1040.2-235.4z M1028.3-237.6l-0.5,3c2,0.3,4,0.7,5.9,1l0.6-2.9
			C1032.3-237,1030.3-237.3,1028.3-237.6L1028.3-237.6z M1016.3-239.3l-0.3,3c1.5,0.2,3.1,0.4,4.6,0.6l0,0c0,0,0.1,0,0.1,0l0,0
			c0,0,0.1,0,0.1,0l0,0c0,0,0.1,0,0.1,0l0,0c0,0,0.1,0,0.1,0l0,0c0,0,0.1,0,0.1,0l0,0c0,0,0.1,0,0.1,0l0,0c0,0,0.1,0,0.1,0l0,0
			c0.2,0,0.5,0.1,0.7,0.1l0.4-3C1020.3-238.8,1018.3-239.1,1016.3-239.3L1016.3-239.3z M1004.2-240.4l-0.2,3c0.2,0,0.5,0,0.7,0.1
			c0,0,0,0,0,0c0,0,0.1,0,0.1,0c0,0,0,0,0,0c0,0,0.1,0,0.1,0c0,0,0,0,0,0c0,0,0.1,0,0.1,0c0,0,0,0,0,0c0,0,0,0,0.1,0c0,0,0,0,0,0
			c0,0,0.1,0,0.1,0c0,0,0,0,0,0c0,0,0,0,0.1,0c0,0,0,0,0,0c0,0,0.1,0,0.1,0c0,0,0,0,0,0c0,0,0.1,0,0.1,0c0,0,0,0,0,0
			c0,0,0.1,0,0.1,0c0,0,0,0,0,0c1.5,0.1,2.9,0.2,4.4,0.4l0.3-3C1008.2-240.1,1006.2-240.3,1004.2-240.4L1004.2-240.4z M992-241
			l-0.1,3c0.3,0,0.6,0,1,0l0,0c0,0,0.1,0,0.1,0c0,0,0,0,0,0c0,0,0.1,0,0.1,0c0,0,0,0,0,0c0,0,0,0,0.1,0c0,0,0,0,0,0c0,0,0,0,0.1,0
			c0,0,0,0,0,0c0,0,0,0,0.1,0c0,0,0,0,0,0c0,0,0,0,0,0c0,0,0,0,0,0c0,0,0,0,0,0c0,0,0,0,0.1,0c0,0,0,0,0,0c0,0,0.1,0,0.1,0
			c0,0,0,0,0,0c0.2,0,0.3,0,0.5,0c0,0,0,0,0,0c0,0,0.1,0,0.1,0c0,0,0,0,0,0c0,0,0.1,0,0.1,0c0,0,0,0,0,0c0,0,0.1,0,0.1,0
			c0,0,0,0,0,0c0,0,0.1,0,0.1,0c0,0,0,0,0,0c0,0,0.1,0,0.1,0c0,0,0,0,0,0c0,0,0.1,0,0.1,0c0,0,0,0,0,0c1.1,0,2.1,0.1,3.2,0.1l0.1-3
			C996.1-240.8,994.1-240.9,992-241L992-241z"/>
	</g>
</g>
<circle class="st1" cx="987" cy="12" r="30"/>
<g>
	<g>
		<line class="st2" x1="987.5" y1="-43" x2="987.5" y2="-65"/>
		<g>
			<polygon class="st0" points="999.5,-54.7 997.3,-52.7 987.2,-63.5 977.1,-52.7 974.9,-54.7 987.2,-67.9 			"/>
		</g>
	</g>
</g>
<g>
	<g>
		<line class="st2" x1="1029.8" y1="-22.6" x2="1046.6" y2="-36.2"/>
		<g>
			<polygon class="st0" points="1046.6,-20.4 1043.6,-20.9 1045.7,-35.5 1030.9,-36.5 1031.1,-39.5 1049.1,-38.3 			"/>
		</g>
	</g>
</g>
<g>
	<g>
		<line class="st2" x1="944.4" y1="-22.8" x2="927.6" y2="-36.4"/>
		<g>
			<polygon class="st0" points="943,-39.7 943.2,-36.7 928.5,-35.7 930.6,-21.1 927.6,-20.6 925.1,-38.5 			"/>
		</g>
	</g>
</g>
<g>
	<path class="st3" d="M936.4,183.8v6.7h-1.2v-6.6l-7.2-10.2h1.6l6.3,9l6.3-9h1.5L936.4,183.8z"/>
	<path class="st3" d="M949.4,190.8c-3.6,0-6.3-2.9-6.3-6.4v0c0-3.4,2.7-6.4,6.3-6.4c3.6,0,6.3,2.9,6.3,6.4v0
		C955.7,187.8,953.1,190.8,949.4,190.8z M954.5,184.4c0-3-2.2-5.3-5-5.3c-2.9,0-5,2.4-5,5.3v0c0,3,2.2,5.3,5,5.3
		C952.4,189.7,954.5,187.3,954.5,184.4L954.5,184.4z"/>
	<path class="st3" d="M968.4,190.5v-2.3c-0.8,1.4-2.2,2.6-4.4,2.6c-3.1,0-4.9-2.1-4.9-5v-7.5h1.2v7.3c0,2.5,1.4,4.2,3.9,4.2
		c2.4,0,4.2-1.8,4.2-4.4v-7.1h1.2v12.2H968.4z"/>
	<path class="st3" d="M980.6,179.4c-2.8,0-5.3,2.1-5.3,6.1v5h-1.2v-12.2h1.2v3.5c1-2.2,3-3.8,5.4-3.7v1.3H980.6z"/>
	<path class="st3" d="M1005.2,190.5l-2.1-4.7h-9.9l-2.1,4.7h-1.3l7.8-16.9h1.2l7.8,16.9H1005.2z M998.1,174.9l-4.4,9.7h8.9
		L998.1,174.9z"/>
	<path class="st3" d="M1024.6,190.6h-1l-4.9-14.6l-4.9,14.6h-1l-6.1-16.9h1.4l5.3,15l4.9-15h1l4.9,15l5.3-15h1.3L1024.6,190.6z"/>
	<path class="st3" d="M1039.6,190.7c-2.7,0-4.8-0.9-6.8-2.7l0.8-0.9c1.8,1.7,3.6,2.5,6,2.5c2.5,0,4.2-1.4,4.2-3.3v0
		c0-1.8-0.9-2.8-4.8-3.6c-4-0.8-5.7-2.2-5.7-4.7v0c0-2.5,2.3-4.4,5.4-4.4c2.4,0,4.1,0.7,5.8,2l-0.8,1c-1.6-1.4-3.2-1.9-5-1.9
		c-2.5,0-4.1,1.4-4.1,3.2v0c0,1.8,0.9,2.9,4.9,3.7c3.9,0.8,5.5,2.2,5.5,4.6v0C1045.2,188.9,1042.9,190.7,1039.6,190.7z"/>
	<path class="st3" d="M919.7,218.5c1.9,0,3.2-0.8,4.2-1.9l0.8,0.7c-1.2,1.3-2.7,2.3-5.1,2.3c-3.2,0-6-2.6-6-6.4v0
		c0-3.6,2.5-6.4,5.8-6.4c3.4,0,5.6,2.8,5.6,6.4v0c0,0.2,0,0.2,0,0.4h-10.2C915.1,216.7,917.3,218.5,919.7,218.5z M923.8,212.6
		c-0.2-2.5-1.6-4.8-4.4-4.8c-2.4,0-4.3,2-4.5,4.8H923.8z"/>
	<path class="st3" d="M937.8,219.3V212c0-2.5-1.4-4.2-3.9-4.2c-2.4,0-4.2,1.8-4.2,4.4v7.1h-1.2v-12.2h1.2v2.3
		c0.8-1.4,2.2-2.6,4.4-2.6c3.1,0,4.9,2.1,4.9,5v7.5H937.8z"/>
	<path class="st3" d="M948.5,219.4h-1l-5.5-12.3h1.4L948,218l4.7-10.9h1.3L948.5,219.4z"/>
	<path class="st3" d="M957.2,203.9v-1.6h1.5v1.6H957.2z M957.3,219.3v-12.2h1.2v12.2H957.3z"/>
	<path class="st3" d="M969.6,208.2c-2.8,0-5.3,2.1-5.3,6.1v5h-1.2v-12.2h1.2v3.5c1-2.2,3-3.8,5.4-3.7v1.3H969.6z"/>
	<path class="st3" d="M978.2,219.6c-3.6,0-6.3-2.9-6.3-6.4v0c0-3.4,2.7-6.4,6.3-6.4c3.6,0,6.3,2.9,6.3,6.4v0
		C984.5,216.6,981.8,219.6,978.2,219.6z M983.2,213.2c0-3-2.2-5.3-5-5.3c-2.9,0-5,2.4-5,5.3v0c0,3,2.2,5.3,5,5.3
		C981.1,218.5,983.2,216.1,983.2,213.2L983.2,213.2z"/>
	<path class="st3" d="M997.4,219.3V212c0-2.5-1.4-4.2-3.9-4.2c-2.4,0-4.2,1.8-4.2,4.4v7.1h-1.2v-12.2h1.2v2.3
		c0.8-1.4,2.2-2.6,4.4-2.6c3.1,0,4.9,2.1,4.9,5v7.5H997.4z"/>
	<path class="st3" d="M1020.2,219.3V212c0-2.6-1.4-4.2-3.6-4.2c-2.1,0-3.9,1.6-3.9,4.3v7.1h-1.2V212c0-2.5-1.4-4.1-3.6-4.1
		c-2.2,0-3.9,1.9-3.9,4.4v7.1h-1.2v-12.2h1.2v2.2c0.8-1.3,1.9-2.5,4.1-2.5c2.1,0,3.5,1.2,4.1,2.6c0.8-1.4,2.1-2.6,4.4-2.6
		c2.9,0,4.7,2,4.7,5.1v7.4H1020.2z"/>
	<path class="st3" d="M1030.9,218.5c1.9,0,3.2-0.8,4.2-1.9l0.8,0.7c-1.2,1.3-2.7,2.3-5.1,2.3c-3.2,0-6-2.6-6-6.4v0
		c0-3.6,2.5-6.4,5.8-6.4c3.4,0,5.6,2.8,5.6,6.4v0c0,0.2,0,0.2,0,0.4h-10.2C1026.3,216.7,1028.5,218.5,1030.9,218.5z M1035,212.6
		c-0.2-2.5-1.6-4.8-4.4-4.8c-2.4,0-4.3,2-4.5,4.8H1035z"/>
	<path class="st3" d="M1049,219.3V212c0-2.5-1.4-4.2-3.9-4.2c-2.4,0-4.2,1.8-4.2,4.4v7.1h-1.2v-12.2h1.2v2.3
		c0.8-1.4,2.2-2.6,4.4-2.6c3.1,0,4.9,2.1,4.9,5v7.5H1049z"/>
	<path class="st3" d="M1058.5,219.5c-1.9,0-3.4-1-3.4-3.4v-8h-1.8v-1.1h1.8v-3.9h1.2v3.9h4.3v1.1h-4.3v7.9c0,1.8,1,2.4,2.4,2.4
		c0.6,0,1.1-0.1,1.8-0.4v1.1C1059.8,219.4,1059.2,219.5,1058.5,219.5z"/>
</g>
<g>
	<path class="st4" d="M951.2,72.4h-8V55.6h7.8c3.4,0,5.5,1.7,5.5,4.3v0c0,1.9-1,3-2.2,3.6c1.9,0.7,3.1,1.9,3.1,4.1v0
		C957.5,70.9,955,72.4,951.2,72.4z M952.8,60.6c0-1.1-0.9-1.7-2.4-1.7h-3.6v3.6h3.4C951.8,62.4,952.8,61.9,952.8,60.6L952.8,60.6z
		 M953.8,67.3c0-1.1-0.8-1.8-2.7-1.8h-4.3v3.7h4.4C952.8,69.2,953.8,68.6,953.8,67.3L953.8,67.3z"/>
	<path class="st4" d="M967.7,72.4V71c-0.9,1-2.1,1.6-3.9,1.6c-2.4,0-4.4-1.4-4.4-3.9v0c0-2.8,2.1-4.1,5.2-4.1c1.3,0,2.2,0.2,3.1,0.5
		v-0.2c0-1.5-0.9-2.4-2.8-2.4c-1.4,0-2.4,0.3-3.6,0.7l-0.9-2.8c1.4-0.6,2.8-1,5-1c4,0,5.7,2.1,5.7,5.5v7.5H967.7z M967.7,67.2
		c-0.6-0.3-1.4-0.5-2.3-0.5c-1.6,0-2.5,0.6-2.5,1.8v0c0,1,0.8,1.6,2,1.6c1.7,0,2.9-0.9,2.9-2.3V67.2z"/>
	<path class="st4" d="M978.8,72.6c-1.8,0-3.8-0.6-5.5-1.9l1.6-2.4c1.4,1,2.9,1.5,4.1,1.5c1.1,0,1.5-0.4,1.5-1v0
		c0-0.8-1.2-1.1-2.7-1.5c-1.8-0.5-3.8-1.4-3.8-3.9v0c0-2.6,2.1-4.1,4.7-4.1c1.6,0,3.4,0.6,4.8,1.5l-1.4,2.5
		c-1.3-0.7-2.5-1.2-3.5-1.2c-0.9,0-1.3,0.4-1.3,0.9v0c0,0.7,1.2,1.1,2.6,1.5c1.8,0.6,3.9,1.5,3.9,3.8v0
		C983.8,71.3,981.6,72.6,978.8,72.6z"/>
	<path class="st4" d="M990.7,72.6c-2.2,0-3.7-0.9-3.7-3.9v-6.1h-1.5v-3.1h1.5v-3.3h3.6v3.3h3v3.1h-3v5.5c0,0.8,0.4,1.2,1.2,1.2
		c0.7,0,1.3-0.2,1.8-0.5v2.9C992.8,72.3,991.9,72.6,990.7,72.6z"/>
	<path class="st4" d="M996.4,58.1v-3.2h3.8v3.2H996.4z M996.5,72.4V59.5h3.6v12.9H996.5z"/>
	<path class="st4" d="M1009.9,72.7c-4,0-6.9-3-6.9-6.6v0c0-3.7,3-6.7,7-6.7c4,0,6.9,3,6.9,6.6v0
		C1016.9,69.7,1013.9,72.7,1009.9,72.7z M1013.3,66c0-1.9-1.4-3.6-3.4-3.6c-2.1,0-3.3,1.6-3.3,3.5v0c0,1.9,1.4,3.6,3.4,3.6
		C1012,69.5,1013.3,67.9,1013.3,66L1013.3,66z"/>
	<path class="st4" d="M1027.7,72.4v-7.2c0-1.7-0.8-2.6-2.2-2.6c-1.4,0-2.3,0.9-2.3,2.6v7.2h-3.6V59.5h3.6v1.8
		c0.8-1.1,1.9-2.1,3.8-2.1c2.8,0,4.4,1.8,4.4,4.8v8.3H1027.7z"/>
</g>
<circle class="st5" cx="837" cy="-108" r="30"/>
<g>
	<g>
		<path class="st6" d="M794.6-44.4c-1.8,0-3.8-0.6-5.5-1.9l1.6-2.4c1.4,1,2.9,1.5,4.1,1.5c1.1,0,1.5-0.4,1.5-1v0
			c0-0.8-1.2-1.1-2.7-1.5c-1.8-0.5-3.8-1.4-3.8-3.9v0c0-2.6,2.1-4.1,4.7-4.1c1.6,0,3.4,0.6,4.8,1.5l-1.4,2.5
			c-1.3-0.7-2.5-1.2-3.5-1.2c-0.9,0-1.3,0.4-1.3,0.9v0c0,0.7,1.2,1.1,2.6,1.5c1.8,0.6,3.9,1.5,3.9,3.8v0
			C799.5-45.7,797.4-44.4,794.6-44.4z"/>
		<path class="st6" d="M814.1-49.8h-9c0.4,1.7,1.5,2.5,3.1,2.5c1.2,0,2.1-0.4,3.1-1.3l2.1,1.8c-1.2,1.5-2.9,2.4-5.3,2.4
			c-3.9,0-6.7-2.7-6.7-6.6v0c0-3.7,2.6-6.7,6.4-6.7c4.3,0,6.3,3.3,6.3,7v0C814.2-50.3,814.1-50.1,814.1-49.8z M807.9-54.8
			c-1.5,0-2.5,1.1-2.8,2.7h5.5C810.4-53.7,809.4-54.8,807.9-54.8z"/>
		<path class="st6" d="M822.9-44.3c-3.9,0-6.7-3-6.7-6.6v0c0-3.7,2.8-6.7,6.7-6.7c2.4,0,3.9,0.8,5.1,2.2l-2.2,2.4
			c-0.8-0.9-1.6-1.4-2.9-1.4c-1.8,0-3.1,1.6-3.1,3.5v0c0,2,1.3,3.6,3.3,3.6c1.2,0,2.1-0.5,3-1.4l2.1,2.2
			C826.9-45.3,825.5-44.3,822.9-44.3z"/>
		<path class="st6" d="M838.6-44.6v-1.8c-0.8,1.1-1.9,2.1-3.8,2.1c-2.8,0-4.4-1.8-4.4-4.8v-8.3h3.6v7.2c0,1.7,0.8,2.6,2.2,2.6
			s2.3-0.9,2.3-2.6v-7.2h3.6v12.9H838.6z"/>
		<path class="st6" d="M853.1-53.9c-2.4,0-3.9,1.5-3.9,4.5v4.8h-3.6v-12.9h3.6v2.6c0.7-1.8,1.9-2.9,4.1-2.8v3.8H853.1z"/>
		<path class="st6" d="M855.6-58.9v-3.2h3.8v3.2H855.6z M855.7-44.6v-12.9h3.6v12.9H855.7z"/>
		<path class="st6" d="M867.1-44.4c-2.2,0-3.7-0.9-3.7-3.9v-6.1h-1.5v-3.1h1.5v-3.3h3.6v3.3h3v3.1h-3v5.5c0,0.8,0.4,1.2,1.2,1.2
			c0.7,0,1.3-0.2,1.8-0.5v2.9C869.3-44.7,868.4-44.4,867.1-44.4z"/>
		<path class="st6" d="M880.1-44.3c-1,2.6-2,3.6-4.2,3.6c-1.3,0-2.3-0.3-3.2-0.9l1.2-2.6c0.5,0.3,1.1,0.5,1.6,0.5
			c0.6,0,1-0.2,1.3-0.8l-5-12.9h3.9l2.9,8.8l2.8-8.8h3.8L880.1-44.3z"/>
		<path class="st6" d="M807.9-11.9c-2.1,0-4.1-0.5-5.7-1.3l1.2-2.7c1.3,0.7,2.6,1.2,4.3,1.2c2.5,0,3.7-1.2,3.7-3.5v-0.6
			c-1.1,1.3-2.3,2.1-4.2,2.1c-3,0-5.7-2.2-5.7-6v0c0-3.8,2.8-6,5.7-6c2,0,3.2,0.8,4.2,1.9v-1.7h3.6v10
			C815.1-13.9,812.7-11.9,807.9-11.9z M811.5-22.9c0-1.8-1.4-3-3.1-3c-1.8,0-3.1,1.2-3.1,3v0c0,1.8,1.3,3,3.1,3
			C810.1-19.9,811.5-21.1,811.5-22.9L811.5-22.9z"/>
		<path class="st6" d="M825.9-25.1c-2.4,0-3.9,1.5-3.9,4.5v4.8h-3.6v-12.9h3.6v2.6c0.7-1.8,1.9-2.9,4.1-2.8v3.8H825.9z"/>
		<path class="st6" d="M834.3-15.5c-4,0-6.9-3-6.9-6.6v0c0-3.7,3-6.7,7-6.7c4,0,6.9,3,6.9,6.6v0C841.3-18.5,838.3-15.5,834.3-15.5z
			 M837.7-22.2c0-1.9-1.4-3.6-3.4-3.6c-2.1,0-3.3,1.6-3.3,3.5v0c0,1.9,1.4,3.6,3.4,3.6C836.5-18.7,837.7-20.3,837.7-22.2L837.7-22.2
			z"/>
		<path class="st6" d="M852-15.8v-1.8c-0.8,1.1-1.9,2.1-3.8,2.1c-2.8,0-4.4-1.8-4.4-4.8v-8.3h3.6v7.2c0,1.7,0.8,2.6,2.2,2.6
			s2.3-0.9,2.3-2.6v-7.2h3.6v12.9H852z"/>
		<path class="st6" d="M866.6-15.6c-1.9,0-3.1-0.9-4-1.9v5.5h-3.6v-16.7h3.6v1.8c0.9-1.2,2.1-2.1,4-2.1c3,0,5.9,2.4,5.9,6.6v0
			C872.4-17.9,869.6-15.6,866.6-15.6z M868.8-22.3c0-2.1-1.4-3.6-3.1-3.6s-3.1,1.4-3.1,3.6v0c0,2.1,1.4,3.6,3.1,3.6
			S868.8-20,868.8-22.3L868.8-22.3z"/>
	</g>
</g>
<circle class="st5" cx="1137" cy="-108" r="30"/>
<g>
	<g>
		<path class="st6" d="M1114.9-44.6v-16.8h12.7v3.3h-9v3.4h7.9v3.3h-7.9v3.5h9.1v3.3H1114.9z"/>
		<path class="st6" d="M1131-44.6v-16.8h3.7V-48h8.4v3.4H1131z"/>
		<path class="st6" d="M1153.8-44.6h-8v-16.8h7.8c3.4,0,5.5,1.7,5.5,4.3v0c0,1.9-1,3-2.2,3.6c1.9,0.7,3.1,1.9,3.1,4.1v0
			C1160.1-46.1,1157.6-44.6,1153.8-44.6z M1155.5-56.4c0-1.1-0.9-1.7-2.4-1.7h-3.6v3.6h3.4C1154.5-54.6,1155.5-55.1,1155.5-56.4
			L1155.5-56.4z M1156.4-49.7c0-1.1-0.8-1.8-2.7-1.8h-4.3v3.7h4.4C1155.4-47.8,1156.4-48.4,1156.4-49.7L1156.4-49.7z"/>
	</g>
</g>
<circle class="st5" cx="987" cy="-184" r="30"/>
<g>
	<g>
		<path class="st6" d="M932.8-120.6v-1.4c-0.9,1-2.1,1.6-3.9,1.6c-2.4,0-4.4-1.4-4.4-3.9v0c0-2.8,2.1-4.1,5.2-4.1
			c1.3,0,2.2,0.2,3.1,0.5v-0.2c0-1.5-0.9-2.4-2.8-2.4c-1.4,0-2.4,0.3-3.6,0.7l-0.9-2.8c1.4-0.6,2.8-1,5-1c4,0,5.7,2.1,5.7,5.5v7.5
			H932.8z M932.9-125.8c-0.6-0.3-1.4-0.5-2.3-0.5c-1.6,0-2.5,0.6-2.5,1.8v0c0,1,0.8,1.6,2,1.6c1.7,0,2.9-0.9,2.9-2.3V-125.8z"/>
		<path class="st6" d="M947.6-120.6v-1.8c-0.8,1.1-1.9,2.1-3.8,2.1c-2.8,0-4.4-1.8-4.4-4.8v-8.3h3.6v7.2c0,1.7,0.8,2.6,2.2,2.6
			s2.3-0.9,2.3-2.6v-7.2h3.6v12.9H947.6z"/>
		<path class="st6" d="M958.8-120.4c-2.2,0-3.7-0.9-3.7-3.9v-6.1h-1.5v-3.1h1.5v-3.3h3.6v3.3h3v3.1h-3v5.5c0,0.8,0.4,1.2,1.2,1.2
			c0.7,0,1.3-0.2,1.8-0.5v2.9C960.9-120.7,960-120.4,958.8-120.4z"/>
		<path class="st6" d="M970.4-120.3c-4,0-6.9-3-6.9-6.6v0c0-3.7,3-6.7,7-6.7c4,0,6.9,3,6.9,6.6v0
			C977.4-123.3,974.4-120.3,970.4-120.3z M973.8-127c0-1.9-1.4-3.6-3.4-3.6c-2.1,0-3.3,1.6-3.3,3.5v0c0,1.9,1.4,3.6,3.4,3.6
			C972.5-123.5,973.8-125.1,973.8-127L973.8-127z"/>
		<path class="st6" d="M984.5-120.4c-1.8,0-3.8-0.6-5.5-1.9l1.6-2.4c1.4,1,2.9,1.5,4.1,1.5c1.1,0,1.5-0.4,1.5-1v0
			c0-0.8-1.2-1.1-2.7-1.5c-1.8-0.5-3.8-1.4-3.8-3.9v0c0-2.6,2.1-4.1,4.7-4.1c1.6,0,3.4,0.6,4.8,1.5l-1.4,2.5
			c-1.3-0.7-2.5-1.2-3.5-1.2c-0.9,0-1.3,0.4-1.3,0.9v0c0,0.7,1.2,1.1,2.6,1.5c1.8,0.6,3.9,1.5,3.9,3.8v0
			C989.4-121.7,987.3-120.4,984.5-120.4z"/>
		<path class="st6" d="M998.1-120.3c-3.9,0-6.7-3-6.7-6.6v0c0-3.7,2.8-6.7,6.7-6.7c2.4,0,3.9,0.8,5.1,2.2l-2.2,2.4
			c-0.8-0.9-1.6-1.4-2.9-1.4c-1.8,0-3.1,1.6-3.1,3.5v0c0,2,1.3,3.6,3.3,3.6c1.2,0,2.1-0.5,3-1.4l2.1,2.2
			C1002.1-121.3,1000.7-120.3,998.1-120.3z"/>
		<path class="st6" d="M1013.3-120.6v-1.4c-0.9,1-2.1,1.6-3.9,1.6c-2.4,0-4.4-1.4-4.4-3.9v0c0-2.8,2.1-4.1,5.2-4.1
			c1.3,0,2.2,0.2,3.1,0.5v-0.2c0-1.5-0.9-2.4-2.8-2.4c-1.4,0-2.4,0.3-3.6,0.7l-0.9-2.8c1.4-0.6,2.8-1,5-1c4,0,5.7,2.1,5.7,5.5v7.5
			H1013.3z M1013.4-125.8c-0.6-0.3-1.4-0.5-2.3-0.5c-1.6,0-2.5,0.6-2.5,1.8v0c0,1,0.8,1.6,2,1.6c1.7,0,2.9-0.9,2.9-2.3V-125.8z"/>
		<path class="st6" d="M1020.1-120.6v-17.5h3.6v17.5H1020.1z"/>
		<path class="st6" d="M1039.2-125.8h-9c0.4,1.7,1.5,2.5,3.1,2.5c1.2,0,2.1-0.4,3.1-1.3l2.1,1.8c-1.2,1.5-2.9,2.4-5.3,2.4
			c-3.9,0-6.7-2.7-6.7-6.6v0c0-3.7,2.6-6.7,6.4-6.7c4.3,0,6.3,3.3,6.3,7v0C1039.2-126.3,1039.2-126.1,1039.2-125.8z M1032.9-130.8
			c-1.5,0-2.5,1.1-2.8,2.7h5.5C1035.4-129.7,1034.5-130.8,1032.9-130.8z"/>
		<path class="st6" d="M1049.5-129.9c-2.4,0-3.9,1.5-3.9,4.5v4.8h-3.6v-12.9h3.6v2.6c0.7-1.8,1.9-2.9,4.1-2.8v3.8H1049.5z"/>
		<path class="st6" d="M957.9-87.9c-2.1,0-4.1-0.5-5.7-1.3l1.2-2.7c1.3,0.7,2.6,1.2,4.3,1.2c2.5,0,3.7-1.2,3.7-3.5v-0.6
			c-1.1,1.3-2.3,2.1-4.2,2.1c-3,0-5.7-2.2-5.7-6v0c0-3.8,2.8-6,5.7-6c2,0,3.2,0.8,4.2,1.9v-1.7h3.6v10
			C965.1-89.9,962.7-87.9,957.9-87.9z M961.5-98.9c0-1.8-1.4-3-3.1-3c-1.8,0-3.1,1.2-3.1,3v0c0,1.8,1.3,3,3.1,3
			C960.1-95.9,961.5-97.1,961.5-98.9L961.5-98.9z"/>
		<path class="st6" d="M975.9-101.1c-2.4,0-3.9,1.5-3.9,4.5v4.8h-3.6v-12.9h3.6v2.6c0.7-1.8,1.9-2.9,4.1-2.8v3.8H975.9z"/>
		<path class="st6" d="M984.3-91.5c-4,0-6.9-3-6.9-6.6v0c0-3.7,3-6.7,7-6.7c4,0,6.9,3,6.9,6.6v0C991.3-94.5,988.3-91.5,984.3-91.5z
			 M987.7-98.2c0-1.9-1.4-3.6-3.4-3.6c-2.1,0-3.3,1.6-3.3,3.5v0c0,1.9,1.4,3.6,3.4,3.6C986.5-94.7,987.7-96.3,987.7-98.2L987.7-98.2
			z"/>
		<path class="st6" d="M1002-91.8v-1.8c-0.8,1.1-1.9,2.1-3.8,2.1c-2.8,0-4.4-1.8-4.4-4.8v-8.3h3.6v7.2c0,1.7,0.8,2.6,2.2,2.6
			s2.3-0.9,2.3-2.6v-7.2h3.6v12.9H1002z"/>
		<path class="st6" d="M1016.6-91.6c-1.9,0-3.1-0.9-4-1.9v5.5h-3.6v-16.7h3.6v1.8c0.9-1.2,2.1-2.1,4-2.1c3,0,5.9,2.4,5.9,6.6v0
			C1022.4-93.9,1019.6-91.6,1016.6-91.6z M1018.8-98.3c0-2.1-1.4-3.6-3.1-3.6s-3.1,1.4-3.1,3.6v0c0,2.1,1.4,3.6,3.1,3.6
			S1018.8-96,1018.8-98.3L1018.8-98.3z"/>
	</g>
</g>
</svg>
