<?xml version="1.0" encoding="utf-8"?>
<!-- Generator: Adobe Illustrator 18.1.1, SVG Export Plug-In . SVG Version: 6.00 Build 0)  -->
<!DOCTYPE svg PUBLIC "-//W3C//DTD SVG 1.1//EN" "http://www.w3.org/Graphics/SVG/1.1/DTD/svg11.dtd">
<svg version="1.1" id="Layer_1" xmlns="http://www.w3.org/2000/svg" xmlns:xlink="http://www.w3.org/1999/xlink" x="0px" y="0px"
	 viewBox="0 0 1000 600" enable-background="new 0 0 1000 600" xml:space="preserve">
<g>
	<path fill="#979797" d="M500,45c-4.1,0-8.2,0.1-12.2,0.3l0.2,5c0.9,0,1.8-0.1,2.6-0.1l0,0c0,0,0.1,0,0.1,0l0,0c0,0,0.1,0,0.1,0
		c0,0,0,0,0,0c0,0,0,0,0.1,0c0,0,0,0,0,0c0,0,0,0,0.1,0c0,0,0,0,0,0c0,0,0,0,0.1,0c0,0,0,0,0,0c0,0,0,0,0.1,0c0,0,0,0,0,0
		c0,0,0,0,0,0c0,0,0,0,0.1,0c0,0,0,0,0,0c0,0,0,0,0.1,0c0,0,0,0,0,0c0.2,0,0.4,0,0.6,0c0,0,0,0,0,0c0,0,0.1,0,0.1,0c0,0,0,0,0,0
		c0,0,0.1,0,0.1,0c0,0,0,0,0,0c0,0,0.1,0,0.1,0c0,0,0,0,0,0c0,0,0.1,0,0.1,0c0,0,0,0,0,0c1.2,0,2.5-0.1,3.7-0.1c0,0,0,0,0,0
		c0,0,0.1,0,0.1,0c0,0,0,0,0,0c0,0,0.1,0,0.1,0c0,0,0,0,0,0c0,0,0.1,0,0.1,0c0,0,0,0,0,0c0,0,0.1,0,0.1,0c0,0,0,0,0,0
		c0,0,0.1,0,0.1,0c0,0,0,0,0,0c0,0,0.1,0,0.1,0c0,0,0,0,0,0c0,0,0.1,0,0.1,0c0,0,0,0,0,0c0,0,0,0,0.1,0c0,0,0,0,0,0
		c0.2,0,0.3,0,0.5,0c0,0,0,0,0,0c0,0,0.1,0,0.1,0c0,0,0,0,0,0c0,0,0,0,0.1,0c0,0,0,0,0,0c0,0,0,0,0.1,0c0,0,0,0,0,0c0,0,0,0,0.1,0
		c0,0,0,0,0,0c0,0,0,0,0.1,0c0,0,0,0,0,0c0,0,0,0,0.1,0c0,0,0,0,0,0c0,0,0,0,0.1,0c0,0,0,0,0,0c0,0,0,0,0.1,0c0,0,0,0,0,0
		c0,0,0,0,0.1,0c0,0,0,0,0,0c0,0,0,0,0.1,0c0,0,0,0,0,0c0,0,0,0,0.1,0c0,0,0,0,0,0c0,0,0.1,0,0.1,0c0,0,0,0,0.1,0c0,0,0,0,0,0
		c0,0,0,0,0.1,0c0,0,0,0,0.1,0c0,0,0,0,0,0c0,0,0,0,0.1,0c0,0,0,0,0,0c0,0,0,0,0.1,0c0,0,0,0,0,0c0,0,0,0,0.1,0c0,0,0,0,0,0
		c0,0,0,0,0.1,0c0,0,0,0,0.1,0c0,0,0,0,0,0c0,0,0,0,0.1,0c0,0,0,0,0,0c0,0,0,0,0.1,0c0,0,0,0,0,0c0,0,0,0,0.1,0c0,0,0,0,0,0
		c0,0,0,0,0.1,0c0,0,0,0,0,0c0,0,0,0,0.1,0c0,0,0,0,0,0c0,0,0,0,0.1,0c0,0,0,0,0,0c0,0,0.1,0,0.1,0V45L500,45z M475.6,46.2
		c-4,0.4-8.1,0.9-12.2,1.5l0.7,4.9c0,0,0,0,0,0l0,0c0,0,0.1,0,0.1,0l0,0c1.7-0.2,3.4-0.5,5.2-0.7l0,0c0,0,0.1,0,0.1,0l0,0
		c0,0,0.1,0,0.1,0l0,0c0,0,0.1,0,0.1,0l0,0c0,0,0.1,0,0.1,0l0,0c0,0,0,0,0.1,0c0,0,0,0,0,0c0,0,0,0,0.1,0c0,0,0,0,0,0c0,0,0,0,0.1,0
		c0,0,0,0,0,0c0,0,0,0,0.1,0c0,0,0,0,0,0c0,0,0,0,0.1,0c0,0,0,0,0,0c0,0,0,0,0.1,0c0,0,0,0,0,0c0,0,0,0,0.1,0c0,0,0,0,0,0
		c0,0,0,0,0,0c0,0,0,0,0,0c0,0,0,0,0,0c0.1,0,0.2,0,0.3,0c0,0,0,0,0,0c0,0,0,0,0.1,0c0,0,0,0,0,0c0,0,0,0,0.1,0c0,0,0,0,0,0
		c0,0,0.1,0,0.1,0c0,0,0,0,0,0c0,0,0.1,0,0.1,0c0,0,0,0,0,0c0,0,0.1,0,0.1,0c0,0,0,0,0,0c0,0,0.1,0,0.1,0c0,0,0,0,0,0
		c0,0,0.1,0,0.1,0c0,0,0,0,0,0c0,0,0,0,0.1,0c0,0,0,0,0,0c0,0,0,0,0.1,0c0,0,0,0,0,0c0,0,0.1,0,0.1,0c0,0,0,0,0,0
		c0.5-0.1,1-0.1,1.5-0.2c0,0,0,0,0,0c0,0,0.1,0,0.1,0c0,0,0,0,0,0c0,0,0.1,0,0.1,0c0,0,0,0,0,0c0.1,0,0.1,0,0.2,0c0,0,0,0,0,0
		c0,0,0.1,0,0.1,0c0,0,0,0,0,0c0,0,0.1,0,0.1,0c0,0,0,0,0,0c0.2,0,0.5,0,0.7-0.1c0,0,0,0,0,0c0,0,0,0,0.1,0c0,0,0,0,0,0c0,0,0,0,0,0
		c0,0,0,0,0.1,0c0,0,0,0,0,0c0,0,0,0,0.1,0c0,0,0,0,0,0c0,0,0,0,0.1,0c0,0,0,0,0,0c0,0,0,0,0.1,0c0,0,0,0,0,0c0,0,0.1,0,0.1,0l0,0
		c0,0,0.1,0,0.1,0l0,0c0.2,0,0.4,0,0.6-0.1L475.6,46.2L475.6,46.2z M451.3,49.6c-4,0.8-8,1.6-12,2.6l1.2,4.9c1.4-0.3,2.7-0.7,4.1-1
		l0,0c0,0,0.1,0,0.1,0l0,0c0,0,0.1,0,0.1,0l0,0c0,0,0.1,0,0.1,0l0,0c0,0,0.1,0,0.1,0c0,0,0,0,0,0c0,0,0,0,0.1,0c0,0,0,0,0,0
		c0,0,0,0,0.1,0c0,0,0,0,0,0c0,0,0,0,0.1,0c0,0,0,0,0,0c0,0,0,0,0.1,0c0,0,0,0,0,0c0,0,0,0,0.1,0l0,0c0,0,0,0,0.1,0l0,0
		c0,0,0,0,0.1,0l0,0c0,0,0,0,0.1,0c0,0,0,0,0,0c0,0,0,0,0.1,0l0,0c0,0,0.1,0,0.1,0l0,0c0,0,0.1,0,0.1,0l0,0c0,0,0.1,0,0.1,0l0,0
		c0,0,0.1,0,0.1,0l0,0c0.6-0.1,1.2-0.3,1.8-0.4v0c0.7-0.1,1.4-0.3,2.1-0.4l0,0c0,0,0.1,0,0.1,0l0,0c0,0,0.1,0,0.1,0l0,0
		c0,0,0.1,0,0.1,0l0,0c0,0,0,0,0.1,0c0,0,0,0,0,0c0,0,0,0,0.1,0c0,0,0,0,0,0c0,0,0,0,0.1,0c0,0,0,0,0,0c0,0,0,0,0.1,0c0,0,0,0,0,0
		c0,0,0,0,0,0c0,0,0,0,0.1,0c0,0,0,0,0,0c0,0,0,0,0.1,0c0,0,0,0,0,0c0,0,0,0,0.1,0c0,0,0,0,0,0c0,0,0,0,0.1,0c0,0,0,0,0,0
		c0,0,0.1,0,0.1,0c0,0,0,0,0,0c0.3-0.1,0.6-0.1,0.9-0.2L451.3,49.6L451.3,49.6z M427.6,55.4c-3.9,1.2-7.8,2.4-11.7,3.8l1.6,4.7
		c2.8-1,5.7-1.9,8.5-2.8c0,0,0,0,0,0c0.1,0,0.1,0,0.2-0.1c0,0,0,0,0,0c0,0,0.1,0,0.1,0c0,0,0,0,0,0c0,0,0.1,0,0.1,0c0,0,0,0,0,0
		c0,0,0,0,0.1,0c0,0,0,0,0,0c0,0,0,0,0.1,0c0,0,0,0,0,0c0,0,0,0,0.1,0c0,0,0,0,0,0c0,0,0,0,0.1,0c0,0,0,0,0,0c0,0,0,0,0.1,0
		c0,0,0,0,0,0c0,0,0,0,0.1,0c0,0,0,0,0,0c0,0,0,0,0.1,0c0,0,0,0,0,0c0,0,0,0,0.1,0c0,0,0,0,0,0c0,0,0,0,0,0c0,0,0,0,0,0c0,0,0,0,0,0
		c0,0,0,0,0,0c0,0,0,0,0,0c0,0,0,0,0.1,0c0,0,0,0,0,0c0,0,0,0,0.1,0c0,0,0,0,0,0c0,0,0,0,0.1,0c0,0,0,0,0,0c0,0,0,0,0.1,0
		c0,0,0,0,0,0c0,0,0,0,0.1,0c0,0,0,0,0,0c0,0,0,0,0.1,0c0,0,0,0,0,0c0,0,0,0,0.1,0c0,0,0,0,0,0c0,0,0,0,0.1,0c0,0,0,0,0,0
		c0,0,0,0,0.1,0c0,0,0,0,0,0c0,0,0.1,0,0.1,0l0,0c0,0,0.1,0,0.1,0c0,0,0,0,0,0c0,0,0.1,0,0.1,0l0,0c0,0,0.1,0,0.1,0l0,0
		c0.1,0,0.2-0.1,0.4-0.1L427.6,55.4L427.6,55.4z M404.5,63.5c-3.8,1.5-7.5,3.2-11.2,4.9l2.1,4.5c2.5-1.2,5.1-2.3,7.7-3.4l0,0
		c0,0,0.1,0,0.1,0c0,0,0,0,0,0c0,0,0,0,0,0c0,0,0,0,0,0c0,0,0,0,0,0c0,0,0,0,0.1,0c0,0,0,0,0,0c0,0,0,0,0.1,0l0,0
		c1-0.4,2-0.8,2.9-1.2L404.5,63.5L404.5,63.5z M382.2,73.8c-3.6,1.9-7.2,3.9-10.7,5.9L374,84c1.5-0.8,2.9-1.7,4.4-2.5c0,0,0,0,0,0
		c0,0,0,0,0.1,0c1.4-0.8,2.8-1.5,4.1-2.3l0,0c0,0,0.1,0,0.1,0l0,0c0,0,0.1,0,0.1,0l0,0c0,0,0,0,0.1,0l0,0c0,0,0,0,0.1,0l0,0
		c0,0,0,0,0.1,0c0,0,0,0,0,0c0,0,0,0,0.1,0c0,0,0,0,0,0c0,0,0,0,0.1,0c0,0,0,0,0,0c0,0,0,0,0,0c0,0,0,0,0,0c0,0,0,0,0,0c0,0,0,0,0,0
		c0,0,0,0,0,0c0,0,0,0,0.1,0c0,0,0,0,0,0c0,0,0,0,0.1,0c0,0,0,0,0,0c0,0,0,0,0.1,0c0,0,0,0,0,0c0,0,0,0,0.1,0c0,0,0,0,0,0
		c0,0,0,0,0.1,0c0,0,0,0,0,0c0,0,0.1,0,0.1,0c0,0,0,0,0,0c0.2-0.1,0.4-0.2,0.6-0.3L382.2,73.8L382.2,73.8z M361.1,86.1
		c-3.4,2.2-6.8,4.5-10.1,6.9l2.9,4.1c1.3-0.9,2.5-1.8,3.8-2.7l0,0c0,0,0,0,0.1-0.1l0,0c0,0,0.1,0,0.1-0.1l0,0c0,0,0.1,0,0.1-0.1l0,0
		c0,0,0.1,0,0.1-0.1l0,0c0,0,0.1,0,0.1-0.1l0,0c0.1-0.1,0.2-0.1,0.2-0.2l0,0c0,0,0.1,0,0.1-0.1l0,0c0,0,0.1,0,0.1-0.1l0,0
		c0.1,0,0.1-0.1,0.2-0.1l0,0c0.1-0.1,0.2-0.1,0.3-0.2l0,0c0,0,0.1,0,0.1-0.1l0,0c0,0,0.1,0,0.1-0.1l0,0c0,0,0.1,0,0.1-0.1l0,0
		c0,0,0,0,0.1,0l0,0c0,0,0,0,0.1-0.1l0,0c0.1-0.1,0.2-0.1,0.2-0.2l0,0c0,0,0.1,0,0.1-0.1l0,0c0,0,0.1,0,0.1-0.1l0,0c0,0,0,0,0.1,0
		l0,0c0,0,0,0,0.1,0l0,0c0,0,0,0,0.1-0.1l0,0c0,0,0.1-0.1,0.1-0.1l0,0c0,0,0,0,0.1,0c0,0,0,0,0,0c0,0,0,0,0.1,0l0,0c0,0,0,0,0.1-0.1
		l0,0c0,0,0,0,0.1,0l0,0c0,0,0.1,0,0.1-0.1l0,0c0.1-0.1,0.2-0.1,0.3-0.2l0,0c0,0,0.1,0,0.1-0.1l0,0c0.2-0.1,0.4-0.2,0.5-0.4l0,0
		c0.1-0.1,0.2-0.1,0.3-0.2l0,0c0,0,0.1,0,0.1-0.1l0,0c0,0,0.1,0,0.1,0l0,0c0,0,0,0,0.1,0l0,0c0,0,0,0,0.1,0c0,0,0,0,0,0
		c0,0,0,0,0.1,0c0,0,0,0,0,0c0,0,0,0,0.1,0c0,0,0,0,0,0c0,0,0,0,0.1,0l0,0c0,0,0,0,0.1,0c0,0,0,0,0,0c0,0,0,0,0.1,0c0,0,0,0,0,0
		c0,0,0,0,0.1,0c0,0,0,0,0,0c0,0,0,0,0.1,0c0,0,0,0,0,0c0,0,0,0,0,0c0,0,0,0,0,0c0,0,0,0,0,0c0,0,0,0,0.1,0c0,0,0,0,0,0
		c0,0,0,0,0.1,0c0,0,0,0,0,0c0,0,0,0,0.1,0c0,0,0,0,0,0c0,0,0,0,0.1,0c0,0,0,0,0,0c0,0,0,0,0.1,0c0,0,0,0,0,0c0,0,0,0,0.1,0
		c0,0,0,0,0,0c0,0,0,0,0.1,0c0,0,0,0,0,0c0.2-0.1,0.4-0.2,0.5-0.4L361.1,86.1L361.1,86.1z M341.3,100.4c-3.2,2.5-6.3,5.2-9.4,7.9
		l3.3,3.8c0.2-0.2,0.5-0.4,0.7-0.6c0,0,0,0,0,0c0,0,0,0,0.1-0.1c0,0,0,0,0,0c0,0,0,0,0.1,0c0,0,0,0,0,0c0,0,0,0,0,0c0,0,0,0,0,0
		c0,0,0,0,0,0c0,0,0,0,0,0c0,0,0,0,0,0c0,0,0,0,0,0c0,0,0,0,0,0c0,0,0,0,0.1,0c0,0,0,0,0,0c0,0,0,0,0.1,0c0,0,0,0,0,0c0,0,0,0,0.1,0
		l0,0c0,0,0,0,0.1-0.1l0,0c2.6-2.2,5.2-4.4,7.8-6.5L341.3,100.4L341.3,100.4z M322.9,116.6c-2.9,2.8-5.8,5.8-8.6,8.7l3.6,3.4
		c0.7-0.8,1.5-1.5,2.2-2.3c0,0,0,0,0,0c0,0,0,0,0.1-0.1c0,0,0,0,0,0c0,0,0,0,0-0.1c0,0,0,0,0,0c0,0,0,0,0,0c0,0,0,0,0,0c0,0,0,0,0,0
		c0,0,0,0,0,0c0,0,0,0,0,0c0,0,0,0,0,0c0,0,0,0,0,0c0,0,0,0,0-0.1l0,0c0,0,0,0,0.1-0.1l0,0c0,0,0,0,0.1-0.1l0,0
		c1.6-1.6,3.2-3.2,4.8-4.8l0,0c0,0,0,0,0.1-0.1l0,0c0,0,0,0,0.1-0.1c0,0,0,0,0,0c0,0,0,0,0,0c0,0,0,0,0,0c0,0,0,0,0,0c0,0,0,0,0,0
		s0,0,0,0c0,0,0,0,0,0c0,0,0,0,0,0c0,0,0,0,0.1,0c0,0,0,0,0,0c0,0,0,0,0.1-0.1c0,0,0,0,0,0c0,0,0,0,0.1-0.1c0,0,0,0,0,0
		c0.1-0.1,0.2-0.2,0.3-0.3L322.9,116.6L322.9,116.6z M306.1,134.4c-2.6,3.1-5.2,6.3-7.7,9.5l4,3.1c0.8-1,1.6-2,2.4-3l0,0
		c0,0,0,0,0.1-0.1l0,0c0,0,0,0,0.1-0.1l0,0c0,0,0,0,0.1-0.1l0,0c0,0,0,0,0.1-0.1l0,0c0,0,0,0,0-0.1l0,0c0,0,0,0,0-0.1l0,0
		c0,0,0,0,0-0.1c0,0,0,0,0,0c0,0,0,0,0-0.1c0,0,0,0,0,0c0,0,0,0,0-0.1c0,0,0,0,0,0c0,0,0,0,0-0.1c0,0,0,0,0,0c0,0,0,0,0-0.1
		c0,0,0,0,0,0c0,0,0,0,0,0c0,0,0,0,0,0c0,0,0,0,0,0c0,0,0,0,0,0c0,0,0,0,0,0c0,0,0,0,0,0c0,0,0,0,0-0.1c0,0,0,0,0,0c0,0,0,0,0,0
		c0,0,0,0,0,0c0,0,0,0,0,0c0,0,0,0,0,0c0,0,0,0,0,0c0,0,0,0,0,0c0,0,0,0,0,0c0,0,0,0,0,0c0,0,0,0,0,0c0,0,0,0,0,0c0,0,0,0,0,0
		c0,0,0,0,0,0c0,0,0,0,0,0c0,0,0,0,0,0c0,0,0,0,0,0c0,0,0,0,0,0c0,0,0,0,0,0s0,0,0,0c0,0,0,0,0,0c0,0,0,0,0,0c0,0,0,0,0,0
		c0,0,0,0,0,0c0,0,0,0,0,0c0,0,0,0,0,0c0,0,0,0,0,0c0,0,0,0,0,0c0,0,0,0,0,0c0,0,0,0,0,0c0,0,0,0,0,0c0,0,0,0,0,0c0,0,0,0,0,0
		c0,0,0,0,0,0c0,0,0,0,0,0c0,0,0,0,0,0c0,0,0,0,0,0c0,0,0,0,0,0c0,0,0,0,0,0c0,0,0,0,0,0c0,0,0,0,0,0c0,0,0,0,0-0.1c0,0,0,0,0,0
		c0,0,0,0,0-0.1c0,0,0,0,0,0c0,0,0,0,0-0.1c0,0,0,0,0,0c0,0,0,0,0-0.1c0,0,0,0,0,0c0,0,0,0,0-0.1c0,0,0,0,0,0c0,0,0,0,0.1-0.1
		c0,0,0,0,0,0c0,0,0,0,0.1-0.1c0,0,0,0,0,0c0,0,0,0,0-0.1c0,0,0,0,0,0c0,0,0,0,0-0.1c0,0,0,0,0,0c0,0,0,0,0.1-0.1c0,0,0,0,0,0
		c0,0,0,0,0.1-0.1c0,0,0,0,0,0c0,0,0,0,0.1-0.1c0,0,0,0,0,0c0,0,0,0,0.1-0.1c0,0,0,0,0,0c0,0,0,0,0.1-0.1c0,0,0,0,0,0
		c0,0,0,0,0.1-0.1c0,0,0,0,0,0c0,0,0,0,0.1-0.1c0,0,0,0,0,0c0,0,0,0,0.1-0.1c0,0,0,0,0,0c0,0,0,0,0.1-0.1c0,0,0,0,0,0
		c0,0,0,0,0.1-0.1c0,0,0,0,0,0c0,0,0,0,0.1-0.1c0,0,0,0,0,0c0,0,0,0,0.1-0.1c0,0,0,0,0,0c0,0,0-0.1,0.1-0.1c0,0,0,0,0,0
		c0,0,0,0,0.1-0.1c0,0,0,0,0,0c0,0,0,0,0.1-0.1c0,0,0,0,0,0c0,0,0,0,0.1-0.1c0,0,0,0,0,0c0,0,0,0,0.1-0.1c0,0,0,0,0,0
		c0,0,0,0,0.1-0.1c0,0,0,0,0,0c0,0,0,0,0.1-0.1c0,0,0,0,0,0c0,0,0,0,0.1-0.1c0,0,0,0,0,0c0,0,0,0,0.1-0.1c0,0,0,0,0,0
		c0,0,0,0,0.1-0.1c0,0,0,0,0,0c0,0,0,0,0.1-0.1c0,0,0,0,0,0c0,0,0,0,0.1-0.1c0,0,0,0,0,0c0,0,0,0,0.1-0.1c0,0,0,0,0,0
		c0,0,0,0,0.1-0.1c0,0,0,0,0,0c0,0,0,0,0.1-0.1c0,0,0,0,0,0c0,0,0,0,0.1-0.1c0,0,0,0,0,0c0,0,0,0,0.1-0.1c0,0,0,0,0,0
		c0,0,0,0,0.1-0.1c0,0,0,0,0,0c0,0,0,0,0.1-0.1c0,0,0,0,0,0c0,0,0,0,0.1-0.1c0,0,0,0,0,0c0,0,0,0,0.1-0.1c0,0,0,0,0,0
		c0,0,0,0,0.1-0.1c0,0,0,0,0,0c0,0,0,0,0-0.1c0,0,0,0,0,0c0,0,0,0,0-0.1c0,0,0,0,0,0c0,0,0,0,0.1-0.1c0,0,0,0,0,0c0,0,0,0,0-0.1
		c0,0,0,0,0,0c0,0,0,0,0-0.1c0,0,0,0,0,0c0,0,0,0,0-0.1c0,0,0,0,0,0c0,0,0,0,0-0.1c0,0,0,0,0,0c0,0,0,0,0-0.1c0,0,0,0,0,0
		c0,0,0,0,0,0c0,0,0,0,0,0L306.1,134.4L306.1,134.4z M291.1,153.7c-2.3,3.3-4.6,6.8-6.8,10.2l4.2,2.7c0,0,0,0,0,0c0,0,0,0,0,0
		c0,0,0,0,0,0c0,0,0,0,0,0c0,0,0,0,0,0c0,0,0,0,0,0c0,0,0,0,0-0.1c0,0,0,0,0,0c0,0,0,0,0-0.1c0,0,0,0,0,0c0,0,0,0,0-0.1c0,0,0,0,0,0
		c0,0,0,0,0-0.1c0,0,0,0,0,0c0,0,0,0,0-0.1c0,0,0,0,0,0c0,0,0,0,0-0.1c0,0,0,0,0,0c0,0,0,0,0-0.1c0,0,0,0,0,0c0,0,0,0,0-0.1
		c0,0,0,0,0,0c0,0,0,0,0-0.1c0,0,0,0,0,0c0,0,0,0,0-0.1c0,0,0,0,0,0c0,0,0,0,0-0.1c0,0,0,0,0,0c0,0,0,0,0-0.1c0,0,0,0,0,0
		c0,0,0,0,0-0.1c0,0,0,0,0,0c0,0,0,0,0-0.1c0,0,0,0,0,0c0,0,0,0,0-0.1c0,0,0,0,0,0c0,0,0,0,0-0.1c0,0,0,0,0,0c0,0,0,0,0-0.1
		c0,0,0,0,0,0c0,0,0,0,0-0.1c0,0,0,0,0,0c0,0,0,0,0-0.1c0,0,0,0,0,0c0,0,0,0,0-0.1c0,0,0,0,0,0c0,0,0,0,0-0.1c0,0,0,0,0,0
		c0,0,0,0,0-0.1c0,0,0,0,0,0c0,0,0,0,0,0c0,0,0,0,0,0c0,0,0,0,0,0c0,0,0,0,0,0c0,0,0,0,0,0c0,0,0,0,0,0c0,0,0,0,0,0c0,0,0,0,0,0
		c0,0,0,0,0,0c0,0,0,0,0,0c0,0,0,0,0,0c0,0,0,0,0,0c0,0,0,0,0,0c0,0,0,0,0,0c0,0,0,0,0,0c0,0,0,0,0,0c0,0,0,0,0,0c0,0,0,0,0,0
		c0,0,0,0,0,0c0,0,0,0,0-0.1c0,0,0,0,0,0c0,0,0,0,0-0.1c0,0,0,0,0,0c0,0,0,0,0-0.1c0,0,0,0,0,0c0,0,0,0,0-0.1c0,0,0,0,0,0
		c0,0,0,0,0-0.1c0,0,0,0,0,0c0,0,0,0,0-0.1c0,0,0,0,0,0c0,0,0,0,0-0.1c0,0,0,0,0,0c1.5-2.3,3-4.5,4.6-6.7L291.1,153.7L291.1,153.7z
		 M278,174.4c-2,3.5-3.9,7.2-5.8,10.8l4.5,2.3c1.8-3.6,3.7-7.1,5.7-10.6L278,174.4L278,174.4z M267,196.2c-1.7,3.7-3.2,7.5-4.7,11.3
		l4.7,1.8c0.3-0.7,0.5-1.4,0.8-2.1l0,0c0,0,0-0.1,0-0.1l0,0c0,0,0,0,0-0.1c0,0,0,0,0,0c0,0,0,0,0,0c0,0,0,0,0,0c0,0,0,0,0,0
		c1.2-2.9,2.4-5.8,3.7-8.7L267,196.2L267,196.2z M258.1,219.1c-1.3,3.9-2.5,7.8-3.6,11.7l4.8,1.4c1.1-3.9,2.3-7.7,3.5-11.5
		L258.1,219.1L258.1,219.1z M251.5,242.6c-0.9,4-1.7,8-2.5,12l4.9,0.9c0.3-1.6,0.6-3.2,0.9-4.7c0,0,0,0,0,0c0,0,0,0,0-0.1
		c0,0,0,0,0,0c0,0,0,0,0-0.1c0,0,0,0,0,0c0,0,0,0,0-0.1c0,0,0,0,0,0c0,0,0,0,0-0.1c0,0,0,0,0,0c0,0,0,0,0-0.1c0,0,0,0,0,0
		c0,0,0,0,0,0c0,0,0,0,0,0c0,0,0,0,0,0c0,0,0,0,0-0.1c0,0,0,0,0,0c0,0,0,0,0-0.1c0,0,0,0,0,0c0,0,0,0,0-0.1c0,0,0,0,0,0
		c0,0,0,0,0-0.1c0,0,0,0,0,0c0,0,0,0,0-0.1c0,0,0,0,0,0c0,0,0,0,0-0.1c0,0,0,0,0,0c0,0,0,0,0-0.1c0,0,0,0,0,0c0,0,0-0.1,0-0.1
		c0,0,0,0,0,0c0,0,0-0.1,0-0.1c0,0,0,0,0,0c0,0,0-0.1,0-0.1c0,0,0,0,0,0c0.1-0.4,0.2-0.9,0.3-1.3c0,0,0,0,0,0c0,0,0-0.1,0-0.1
		c0,0,0,0,0,0c0,0,0-0.1,0-0.1c0,0,0,0,0,0c0,0,0-0.1,0-0.1c0,0,0,0,0,0c0,0,0-0.1,0-0.1c0,0,0,0,0,0c0,0,0,0,0-0.1c0,0,0,0,0,0
		c0,0,0,0,0-0.1c0,0,0,0,0,0c0,0,0-0.1,0-0.1c0,0,0,0,0,0c0,0,0-0.1,0-0.1c0,0,0,0,0,0c0,0,0-0.1,0-0.1c0,0,0,0,0,0c0,0,0-0.1,0-0.1
		c0,0,0,0,0,0c0,0,0-0.1,0-0.1c0,0,0,0,0,0c0,0,0,0,0-0.1c0,0,0,0,0,0c0,0,0,0,0-0.1c0,0,0,0,0,0c0,0,0-0.1,0-0.1c0,0,0,0,0,0
		c0-0.2,0.1-0.3,0.1-0.5c0,0,0,0,0,0c0,0,0,0,0-0.1c0,0,0,0,0,0c0,0,0,0,0,0c0,0,0,0,0,0c0,0,0,0,0,0c0,0,0,0,0,0c0,0,0,0,0,0
		c0,0,0,0,0,0c0,0,0,0,0,0c0,0,0,0,0-0.1c0,0,0,0,0,0c0,0,0,0,0-0.1c0,0,0,0,0,0c0,0,0,0,0-0.1c0,0,0,0,0,0c0,0,0,0,0-0.1
		c0,0,0,0,0,0c0,0,0,0,0-0.1l0,0c0,0,0-0.1,0-0.1l0,0c0,0,0-0.1,0-0.1l0,0c0,0,0-0.1,0-0.1l0,0c0.1-0.4,0.2-0.8,0.3-1.2L251.5,242.6
		L251.5,242.6z M247.2,266.7c-0.5,4-1,8.1-1.3,12.2l5,0.4c0-0.1,0-0.2,0-0.4c0,0,0,0,0,0c0,0,0,0,0-0.1c0,0,0,0,0,0c0,0,0,0,0-0.1
		c0,0,0,0,0,0c0,0,0,0,0-0.1c0,0,0,0,0,0c0,0,0,0,0-0.1c0,0,0,0,0,0c0,0,0,0,0,0c0,0,0,0,0-0.1c0,0,0,0,0,0c0,0,0,0,0-0.1
		c0,0,0,0,0,0c0,0,0,0,0-0.1c0,0,0,0,0,0c0,0,0,0,0-0.1c0,0,0,0,0,0c0,0,0,0,0-0.1c0,0,0,0,0,0c0,0,0-0.1,0-0.1c0,0,0,0,0,0
		c0,0,0-0.1,0-0.1l0,0c0-0.3,0.1-0.6,0.1-0.9v0c0,0,0-0.1,0-0.1l0,0c0,0,0-0.1,0-0.1l0,0c0,0,0-0.1,0-0.1l0,0c0,0,0-0.1,0-0.1l0,0
		c0,0,0-0.1,0-0.1l0,0c0-0.1,0-0.1,0-0.2l0,0c0-0.1,0-0.1,0-0.2l0,0c0-0.3,0.1-0.5,0.1-0.8l0,0c0,0,0-0.1,0-0.1l0,0c0,0,0-0.1,0-0.1
		c0,0,0,0,0,0c0,0,0-0.1,0-0.1c0,0,0,0,0,0c0,0,0,0,0-0.1c0,0,0,0,0,0c0,0,0,0,0-0.1c0,0,0,0,0,0c0,0,0,0,0-0.1c0,0,0,0,0,0
		c0,0,0,0,0-0.1c0,0,0,0,0,0c0,0,0,0,0-0.1c0,0,0,0,0,0c0,0,0,0,0-0.1c0,0,0,0,0,0c0,0,0,0,0-0.1c0,0,0,0,0,0c0,0,0,0,0-0.1
		c0,0,0,0,0,0c0,0,0,0,0-0.1c0,0,0,0,0,0c0,0,0,0,0-0.1c0,0,0,0,0,0c0,0,0,0,0-0.1c0,0,0-0.1,0-0.1c0,0,0,0,0,0c0,0,0,0,0-0.1
		c0,0,0,0,0,0c0,0,0,0,0-0.1c0,0,0,0,0,0c0,0,0,0,0-0.1c0,0,0,0,0,0c0,0,0,0,0-0.1c0,0,0,0,0,0c0,0,0,0,0-0.1c0,0,0,0,0,0
		c0,0,0,0,0-0.1c0,0,0,0,0,0c0,0,0,0,0-0.1c0,0,0,0,0,0c0,0,0,0,0-0.1c0,0,0,0,0,0c0,0,0,0,0-0.1c0,0,0,0,0,0c0,0,0,0,0-0.1
		c0,0,0,0,0,0c0,0,0,0,0-0.1c0,0,0,0,0,0c0,0,0-0.1,0-0.1c0,0,0,0,0,0c0,0,0-0.1,0-0.1c0,0,0,0,0,0c0.2-1.5,0.3-3,0.5-4.4
		c0,0,0,0,0,0c0,0,0,0,0-0.1c0,0,0,0,0,0c0,0,0,0,0-0.1c0,0,0,0,0,0c0,0,0,0,0-0.1c0,0,0,0,0,0c0,0,0,0,0,0c0,0,0,0,0,0c0,0,0,0,0,0
		c0,0,0,0,0-0.1c0,0,0,0,0,0c0,0,0,0,0-0.1c0,0,0,0,0,0c0,0,0,0,0-0.1c0,0,0,0,0,0c0,0,0,0,0,0L247.2,266.7L247.2,266.7z
		 M245.2,291.1c-0.1,3-0.2,6-0.2,8.9c0,1.1,0,2.2,0,3.3l5-0.1c0-0.3,0-0.5,0-0.8c0,0,0,0,0,0c0,0,0,0,0-0.1c0,0,0,0,0-0.1
		c0,0,0,0,0,0c0,0,0-0.1,0-0.1v0c0-0.7,0-1.3,0-2c0,0,0,0,0,0c0-0.1,0-0.1,0-0.2l0,0l0,0l0,0l0,0c0,0,0-0.1,0-0.1c0,0,0,0,0,0
		c0,0,0-0.1,0-0.1c0,0,0,0,0,0c0,0,0-0.1,0-0.1c0,0,0,0,0,0c0,0,0-0.1,0-0.1c0,0,0,0,0,0c0,0,0-0.1,0-0.1c0,0,0,0,0,0
		c0,0,0-0.1,0-0.1c0,0,0,0,0,0c0,0,0-0.1,0-0.1c0,0,0,0,0,0c0,0,0-0.1,0-0.1c0,0,0,0,0,0c0,0,0-0.1,0-0.1c0,0,0,0,0,0c0,0,0,0,0-0.1
		c0,0,0,0,0-0.1c0,0,0-0.1,0-0.1c0,0,0,0,0,0c0,0,0-0.1,0-0.1c0,0,0,0,0-0.1c0,0,0-0.1,0-0.1c0,0,0,0,0-0.1c0,0,0,0,0-0.1
		c0,0,0-0.1,0-0.1c0,0,0-0.1,0-0.1c0,0,0,0,0-0.1c0,0,0,0,0-0.1c0,0,0,0,0-0.1c0,0,0,0,0-0.1c0,0,0-0.1,0-0.1c0,0,0,0,0,0
		c0,0,0,0,0-0.1c0,0,0,0,0,0c0-0.1,0-0.2,0-0.3c0,0,0,0,0,0c0,0,0-0.1,0-0.1c0,0,0,0,0,0c0-0.1,0-0.2,0-0.3c0,0,0,0,0,0
		c0,0,0-0.1,0-0.1v0c0-0.1,0-0.2,0-0.3v0c0-1.7,0.1-3.4,0.1-5.1L245.2,291.1L245.2,291.1z M250.5,315.3l-5,0.3
		c0.2,4.1,0.6,8.2,1,12.2l5-0.5c-0.1-0.8-0.2-1.6-0.3-2.4l0,0c0,0,0-0.1,0-0.1l0,0c0,0,0-0.1,0-0.1c0,0,0,0,0,0c0,0,0-0.1,0-0.1
		c0,0,0,0,0,0c0,0,0,0,0-0.1c0,0,0,0,0,0c0,0,0,0,0-0.1c0,0,0,0,0,0c0,0,0,0,0-0.1c0,0,0,0,0,0c0,0,0,0,0-0.1c0,0,0,0,0,0
		c0,0,0,0,0-0.1c0,0,0,0,0,0c0,0,0,0,0,0c0,0,0,0,0,0c0,0,0,0,0,0c0,0,0,0,0-0.1c0,0,0,0,0,0c0,0,0,0,0-0.1c0,0,0,0,0,0
		c0-0.2,0-0.5-0.1-0.7c0,0,0,0,0,0c0-0.1,0-0.1,0-0.2c0,0,0,0,0,0C250.8,320.3,250.6,317.8,250.5,315.3L250.5,315.3z M253,339.1
		l-4.9,0.8c0.6,4,1.4,8.1,2.2,12l4.9-1C254.4,347,253.7,343.1,253,339.1L253,339.1z M257.9,362.6l-4.8,1.2c1,3.9,2.1,7.9,3.3,11.8
		l4.8-1.5c-0.1-0.4-0.2-0.8-0.4-1.2c0,0,0,0,0,0c0,0,0,0,0-0.1c0,0,0,0,0,0c0,0,0,0,0-0.1c0,0,0,0,0,0c0,0,0,0,0-0.1c0,0,0,0,0,0
		c0,0,0,0,0,0c0,0,0,0,0-0.1c0,0,0,0,0,0c0,0,0,0,0-0.1c0,0,0,0,0,0c0,0,0,0,0-0.1c0,0,0,0,0,0c0,0,0,0,0-0.1c0,0,0,0,0,0
		c0,0,0,0,0-0.1c0,0,0,0,0,0c0,0,0-0.1,0-0.1c0,0,0,0,0,0c0,0,0,0,0-0.1c0,0,0,0,0,0c0,0,0-0.1,0-0.1c0,0,0,0,0,0c0,0,0,0,0-0.1
		c0,0,0,0,0,0c0,0,0-0.1,0-0.1c0,0,0,0,0,0c0,0,0-0.1,0-0.1c0,0,0,0,0,0c-0.3-0.9-0.5-1.8-0.8-2.7c0,0,0,0,0,0c0-0.1,0-0.1-0.1-0.2
		c0,0,0,0,0,0c0,0,0-0.1,0-0.1c0,0,0,0,0,0c0,0,0-0.1,0-0.1c0,0,0,0,0,0c0,0,0,0,0-0.1c0,0,0,0,0,0c0,0,0,0,0-0.1c0,0,0,0,0,0
		c0,0,0,0,0-0.1c0,0,0,0,0,0c0,0,0-0.1,0-0.1c0,0,0,0,0,0c0,0,0,0,0-0.1c0,0,0,0,0,0c0,0,0,0,0-0.1c0,0,0,0,0,0c0,0,0,0,0-0.1
		c0,0,0,0,0,0c0,0,0,0,0-0.1c0,0,0,0,0,0c0,0,0,0,0-0.1c0,0,0,0,0,0c0,0,0,0,0-0.1c0,0,0,0,0,0c0,0,0,0,0-0.1c0,0,0,0,0,0
		c0,0,0,0,0-0.1c0,0,0,0,0,0c0,0,0,0,0-0.1c0,0,0,0,0,0c0,0,0,0,0-0.1c0,0,0,0,0,0c0,0,0,0,0-0.1c0,0,0,0,0,0c0,0,0,0,0-0.1
		c0,0,0,0,0,0c0,0,0,0,0-0.1c0,0,0,0,0,0c0,0,0,0,0-0.1c0,0,0,0,0,0c0,0,0,0,0,0c0,0,0,0,0,0c0-0.1,0-0.1-0.1-0.2c0,0,0,0,0,0
		c0,0,0,0,0,0c0,0,0,0,0,0c0,0,0,0,0,0c0,0,0,0,0-0.1c0,0,0,0,0,0c0,0,0,0,0-0.1c0,0,0,0,0,0c0,0,0,0,0-0.1c0,0,0,0,0,0
		c0,0,0,0,0-0.1c0,0,0,0,0,0c0,0,0,0,0-0.1c0,0,0,0,0,0c0,0,0,0,0-0.1c0,0,0,0,0,0c0,0,0,0,0-0.1c0,0,0,0,0,0c0,0,0,0,0-0.1
		c0,0,0,0,0,0c0,0,0,0,0-0.1c0,0,0,0,0,0c0,0,0,0,0-0.1c0,0,0,0,0,0c0,0,0,0,0-0.1c0,0,0,0,0,0c0,0,0,0,0,0c0,0,0,0,0,0c0,0,0,0,0,0
		c0,0,0,0,0,0c0,0,0,0,0,0c0,0,0,0,0,0c0,0,0,0,0,0c0,0,0,0,0,0c0,0,0,0,0,0c0,0,0,0,0,0c0,0,0,0,0,0c0,0,0,0,0,0c0,0,0,0,0,0
		c0,0,0,0,0,0c0,0,0,0,0,0c0,0,0,0,0-0.1c0,0,0,0,0,0c0,0,0,0,0-0.1c0,0,0,0,0,0c0,0,0,0,0-0.1c0,0,0,0,0,0c0,0,0,0,0-0.1
		c0,0,0,0,0,0c0,0,0,0,0-0.1c0,0,0,0,0,0c0,0,0,0,0-0.1c0,0,0,0,0,0c0,0,0,0,0-0.1c0,0,0,0,0,0c0,0,0,0,0-0.1c0,0,0,0,0,0
		C258.2,363.6,258,363.1,257.9,362.6L257.9,362.6z M265,385.5l-4.7,1.7c1.4,3.8,2.9,7.7,4.5,11.4l4.6-1.9c-0.4-1-0.8-2-1.3-3.1l0,0
		c0,0,0-0.1,0-0.1l0,0c0,0,0-0.1,0-0.1l0,0c0,0,0,0,0-0.1l0,0c0,0,0,0,0-0.1l0,0c0,0,0,0,0-0.1l0,0c0,0,0,0,0-0.1c0,0,0,0,0,0
		c0,0,0,0,0-0.1c0,0,0,0,0,0c0,0,0,0,0-0.1c0,0,0,0,0,0c0,0,0,0,0-0.1c0,0,0,0,0,0c0,0,0,0,0-0.1c0,0,0,0,0,0c0,0,0,0,0-0.1
		c0,0,0,0,0,0c0,0,0,0,0-0.1c0,0,0,0,0,0c0,0,0,0,0-0.1c0,0,0,0,0,0c0,0,0,0,0,0c0,0,0,0,0,0c0,0,0,0,0,0c0,0,0,0,0,0c0,0,0,0,0,0
		c0,0,0,0,0,0c0,0,0,0,0,0c0,0,0,0,0,0c0,0,0,0,0,0c0,0,0,0,0,0c0,0,0,0,0,0c0,0,0,0,0,0c0,0,0,0,0,0c0,0,0,0,0,0c0,0,0,0,0,0
		c0,0,0,0,0,0c0,0,0,0,0,0c0,0,0,0,0-0.1c0,0,0,0,0,0c0,0,0,0,0-0.1c0,0,0,0,0,0c0,0,0,0,0-0.1c0,0,0,0,0,0c0,0,0,0,0-0.1
		c0,0,0,0,0,0c0,0,0,0,0-0.1c0,0,0,0,0,0c0,0,0,0,0-0.1c0,0,0,0,0,0c0,0,0,0,0-0.1c0,0,0,0,0,0c0,0,0,0,0-0.1c0,0,0,0,0,0
		c-0.1-0.3-0.2-0.6-0.3-0.8c0,0,0,0,0,0c0,0,0,0,0-0.1c0,0,0,0,0,0c0,0,0,0,0-0.1c0,0,0,0,0,0c0,0,0,0,0-0.1c0,0,0,0,0,0
		c0,0,0,0,0-0.1c0,0,0,0,0,0c0,0,0,0,0-0.1c0,0,0,0,0,0c0,0,0,0,0-0.1c0,0,0,0,0,0c0,0,0,0,0-0.1c0,0,0,0,0,0c0,0,0,0,0-0.1
		c0,0,0,0,0,0c0,0,0,0,0-0.1c0,0,0,0,0,0c0,0,0,0,0-0.1c0,0,0,0,0,0c0,0,0,0,0-0.1c0,0,0,0,0,0c0,0,0,0,0-0.1c0,0,0,0,0,0
		c0,0,0,0,0-0.1c0,0,0,0,0,0c0,0,0,0,0-0.1c0,0,0,0,0,0c0,0,0,0,0-0.1c0,0,0,0,0,0c0,0,0,0,0-0.1c0,0,0,0,0,0c0,0,0,0,0-0.1
		c0,0,0,0,0,0c0,0,0,0,0-0.1c0,0,0,0,0,0c0,0,0,0,0-0.1c0,0,0,0,0,0c0,0,0,0,0-0.1c0,0,0,0,0,0c0,0,0,0,0-0.1c0,0,0,0,0,0
		c0,0,0,0,0-0.1c0,0,0,0,0,0c0,0,0,0,0-0.1c0,0,0,0,0,0c0,0,0,0,0-0.1c0,0,0,0,0,0c0,0,0,0,0-0.1c0,0,0,0,0,0c0,0,0,0,0-0.1
		c0,0,0,0,0,0c0,0,0-0.1,0-0.1c0,0,0,0,0,0c0,0,0-0.1,0-0.1c0,0,0,0,0,0c0,0,0-0.1,0-0.1c0,0,0,0,0,0
		C265.5,386.9,265.3,386.2,265,385.5L265,385.5z M274.3,407.6l-4.5,2.2c1.8,3.7,3.6,7.3,5.5,10.9l4.4-2.4c-1.2-2.2-2.3-4.3-3.4-6.5
		l0,0c0,0,0,0,0-0.1l0,0c0,0,0,0,0-0.1c0,0,0,0,0,0c0,0,0,0,0-0.1c0,0,0,0,0,0c0,0,0,0,0,0c0,0,0,0,0,0c0,0,0,0,0,0c0,0,0,0,0,0
		c0,0,0,0,0,0c0,0,0,0,0-0.1c0,0,0,0,0,0c0,0,0,0,0-0.1c0,0,0,0,0,0C275.4,410,274.9,408.8,274.3,407.6L274.3,407.6z M285.7,428.8
		l-4.3,2.6c2.1,3.5,4.3,7,6.6,10.3l4.2-2.8c0,0,0,0,0,0c0,0,0,0,0-0.1c0,0,0,0,0,0c0,0,0,0,0-0.1c0,0,0,0,0,0c0,0,0,0,0-0.1
		c0,0,0,0,0,0c0,0,0,0,0-0.1c0,0,0,0,0,0c0,0,0,0,0-0.1c0,0,0,0,0,0c0,0,0,0,0-0.1c0,0,0,0,0,0c0,0,0,0,0-0.1c0,0,0,0,0,0
		c0,0,0,0,0-0.1c0,0,0,0,0,0c0,0,0,0,0-0.1c0,0,0,0,0,0c0,0,0,0,0-0.1c0,0,0,0,0,0c0-0.1-0.1-0.1-0.1-0.2c0,0,0,0,0,0
		c0-0.1-0.1-0.1-0.1-0.2l0,0c0,0,0-0.1-0.1-0.1c0,0,0,0,0,0c0,0,0-0.1,0-0.1c0,0,0,0,0,0c-0.1-0.2-0.3-0.4-0.4-0.6c0,0,0,0,0,0
		c0,0-0.1-0.1-0.1-0.2c0,0,0,0,0,0c0,0,0-0.1-0.1-0.1c0,0,0,0,0,0c0,0,0,0,0-0.1c0,0,0,0,0,0c0,0,0-0.1,0-0.1c0,0,0,0,0,0
		c0,0,0,0,0-0.1c0,0,0,0,0,0c0,0,0,0,0-0.1c0,0,0,0,0,0c0,0,0,0,0-0.1c0,0,0,0,0,0c0,0,0,0,0-0.1c0,0,0,0,0,0c0,0,0-0.1,0-0.1
		c0,0,0,0,0,0c0,0,0,0,0-0.1c0,0,0,0,0,0c0,0,0,0,0-0.1c0,0,0,0,0,0c0,0,0,0,0-0.1c0,0,0,0,0,0c0,0,0,0,0-0.1c0,0,0,0,0,0
		c0,0,0,0,0-0.1c0,0,0,0,0,0c0,0,0,0,0-0.1c0,0,0,0,0,0c0,0,0,0,0-0.1c0,0,0,0,0,0c0,0,0,0,0-0.1c0,0,0,0,0,0c0,0,0,0,0-0.1
		c0,0,0,0,0,0c0,0,0,0,0-0.1c0,0,0,0,0,0c0,0,0,0,0-0.1c0,0,0,0,0,0c0,0,0,0,0-0.1c0,0,0,0,0,0c0,0,0,0,0-0.1c0,0,0,0,0,0
		c0,0,0,0,0-0.1c0,0,0,0,0,0c0,0,0,0,0-0.1c0,0,0,0,0,0c0,0,0,0,0-0.1c0,0,0,0,0,0c0,0,0,0,0-0.1c0,0,0,0,0,0c0,0,0,0,0-0.1
		c0,0,0,0,0,0c0,0,0,0,0-0.1c0,0,0,0,0,0c0,0,0,0,0-0.1c0,0,0,0,0,0c0,0,0,0,0-0.1c0,0,0,0,0,0c0,0,0,0,0-0.1c0,0,0,0,0,0
		c0,0,0,0,0-0.1c0,0,0,0,0,0c0,0,0,0,0-0.1c0,0,0,0,0,0c0,0,0,0,0-0.1c0,0,0,0,0,0c0,0,0,0,0-0.1c0,0,0,0,0,0c0,0,0,0,0-0.1
		c0,0,0,0,0,0c0,0,0,0,0-0.1c0,0,0,0,0,0c0,0,0,0,0-0.1c0,0,0,0,0,0c0,0,0,0,0-0.1c0,0,0,0,0,0c0,0,0,0,0-0.1c0,0,0,0,0,0
		c0,0,0,0,0-0.1c0,0,0,0,0,0c0,0,0,0,0-0.1c0,0,0,0,0,0c0,0,0,0,0-0.1c0,0,0,0,0,0c0,0,0,0,0-0.1c0,0,0,0,0,0c0,0,0-0.1,0-0.1
		c0,0,0,0,0,0c0,0,0,0,0-0.1c0,0,0,0,0,0c0,0,0,0,0-0.1c0,0,0,0,0,0c0,0-0.1-0.1-0.1-0.1c0,0,0,0,0,0c0,0-0.1-0.1-0.1-0.2
		c0,0,0,0,0,0C287.3,431.5,286.5,430.1,285.7,428.8L285.7,428.8z M299,448.7l-4,3c2.4,3.3,4.9,6.5,7.5,9.7l3.9-3.2
		c-2.2-2.7-4.3-5.4-6.4-8.2l0,0c0,0,0,0-0.1-0.1c0,0,0,0,0,0c0,0,0,0,0-0.1c0,0,0,0,0,0c0,0,0,0,0,0c0,0,0,0,0,0c0,0,0,0,0,0
		c0,0,0,0,0,0c0,0,0,0,0,0c0,0,0,0,0-0.1c0,0,0,0,0,0c0,0,0,0,0-0.1c0,0,0,0,0,0c0,0,0,0-0.1-0.1c0,0,0,0,0,0
		C299.3,449.1,299.2,448.9,299,448.7L299,448.7z M314.2,467.3l-3.7,3.3c2.7,3,5.5,6,8.4,8.9l3.6-3.5c-0.2-0.2-0.3-0.4-0.5-0.5
		c0,0,0,0,0,0c0,0,0,0-0.1-0.1c0,0,0,0,0,0c0,0,0,0,0,0c0,0,0,0,0,0c0,0,0,0,0,0c0,0,0,0,0,0c0,0,0,0,0,0c0,0,0,0,0-0.1c0,0,0,0,0,0
		c-1.1-1.1-2.1-2.2-3.2-3.3l0,0c0,0,0,0-0.1-0.1l0,0c0,0-0.1-0.1-0.1-0.1c0,0,0,0,0,0c0,0,0,0,0,0c0,0,0,0,0,0c0,0,0,0,0,0
		c0,0,0,0-0.1-0.1c0,0,0,0,0,0C316.8,470.1,315.5,468.7,314.2,467.3L314.2,467.3z M331.1,484.3l-3.4,3.7c3,2.7,6.1,5.5,9.2,8.1
		l3.2-3.8c-1.8-1.5-3.6-3.1-5.4-4.6c0,0,0,0,0,0c0,0,0,0-0.1,0c0,0,0,0,0,0c0,0,0,0,0,0c0,0,0,0,0,0c0,0,0,0,0,0c0,0,0,0,0,0
		c0,0,0,0,0,0c0,0,0,0-0.1,0l0,0C333.3,486.3,332.2,485.3,331.1,484.3L331.1,484.3z M349.5,499.7l-3,4c3.2,2.4,6.6,4.8,9.9,7.1
		l2.8-4.1C356,504.4,352.7,502.1,349.5,499.7L349.5,499.7z M369.3,513.2l-2.6,4.3c3.5,2.1,7,4.2,10.6,6.2l2.4-4.4c0,0,0,0,0,0
		c0,0-0.1,0-0.1,0c0,0,0,0,0,0c0,0,0,0-0.1,0c0,0,0,0,0,0c0,0,0,0-0.1,0c0,0,0,0,0,0c0,0,0,0-0.1,0c0,0,0,0,0,0c0,0,0,0,0,0
		c0,0,0,0,0,0c0,0,0,0,0,0c0,0,0,0,0,0c0,0,0,0,0,0c0,0,0,0,0,0c0,0,0,0,0,0c0,0,0,0-0.1,0c0,0,0,0,0,0c0,0,0,0-0.1,0c0,0,0,0,0,0
		c0,0,0,0-0.1,0c0,0,0,0,0,0c0,0,0,0-0.1,0l0,0c0,0-0.1,0-0.1,0l0,0c0,0-0.1,0-0.1,0l0,0C375.5,516.9,372.4,515,369.3,513.2
		L369.3,513.2z M390.4,524.7l-2.2,4.5c3.7,1.8,7.4,3.5,11.1,5.1l2-4.6c-1.2-0.5-2.4-1.1-3.6-1.6l0,0c0,0-0.1,0-0.1,0l0,0
		c0,0,0,0-0.1,0c0,0,0,0,0,0c0,0,0,0-0.1,0c0,0,0,0,0,0c0,0,0,0-0.1,0c0,0,0,0,0,0c0,0,0,0-0.1,0c0,0,0,0,0,0c0,0,0,0-0.1,0
		c0,0,0,0,0,0c0,0,0,0,0,0c0,0,0,0,0,0c0,0,0,0,0,0c0,0,0,0,0,0c0,0,0,0,0,0c0,0,0,0-0.1,0c0,0,0,0,0,0c0,0,0,0-0.1,0c0,0,0,0,0,0
		c0,0,0,0-0.1,0c0,0,0,0,0,0c0,0,0,0-0.1,0c0,0,0,0,0,0c0,0,0,0-0.1,0c0,0,0,0,0,0c0,0-0.1,0-0.1,0c0,0,0,0,0,0c0,0-0.1,0-0.1,0
		c0,0,0,0,0,0c0,0-0.1,0-0.1,0c0,0,0,0,0,0c0,0-0.1,0-0.1,0c0,0,0,0,0,0C394.2,526.6,392.3,525.7,390.4,524.7L390.4,524.7z
		 M412.4,534.2l-1.8,4.7c3.8,1.4,7.7,2.8,11.6,4l1.5-4.8c-1.7-0.6-3.5-1.1-5.2-1.7h0c0,0-0.1,0-0.1,0l0,0c0,0-0.1,0-0.1,0
		c0,0,0,0,0,0c0,0-0.1,0-0.1,0l0,0c0,0-0.1,0-0.1,0c0,0,0,0,0,0c0,0-0.1,0-0.1,0l0,0c0,0-0.1,0-0.1,0l0,0c0,0,0,0-0.1,0c0,0,0,0,0,0
		c0,0,0,0-0.1,0c0,0,0,0,0,0c0,0,0,0-0.1,0c0,0,0,0,0,0c0,0,0,0-0.1,0c0,0,0,0,0,0c0,0,0,0-0.1,0c0,0,0,0,0,0c0,0,0,0-0.1,0
		c0,0,0,0,0,0c0,0,0,0-0.1,0c0,0,0,0,0,0c0,0,0,0-0.1,0c0,0,0,0,0,0c0,0,0,0-0.1,0c0,0,0,0,0,0c0,0,0,0-0.1,0c0,0,0,0,0,0
		c0,0,0,0-0.1,0c0,0,0,0,0,0c0,0,0,0-0.1,0c0,0,0,0,0,0c0,0,0,0-0.1,0c0,0,0,0,0,0c0,0,0,0-0.1,0c0,0,0,0,0,0c0,0,0,0-0.1,0l0,0
		c0,0,0,0-0.1,0c0,0,0,0,0,0c0,0,0,0-0.1,0l0,0c0,0-0.1,0-0.1,0l0,0c0,0-0.1,0-0.1,0l0,0c0,0-0.1,0-0.1,0l0,0c0,0-0.1,0-0.1,0l0,0
		C414.9,535.1,413.6,534.7,412.4,534.2L412.4,534.2z M435.2,541.5l-1.3,4.8c3.9,1,7.9,2,11.9,2.9l1.1-4.9c-1.7-0.4-3.3-0.7-4.9-1.1
		c0,0,0,0,0,0c0,0-0.1,0-0.1,0c0,0,0,0,0,0c0,0,0,0-0.1,0c0,0,0,0,0,0c0,0,0,0-0.1,0c0,0,0,0,0,0c0,0,0,0-0.1,0c0,0,0,0,0,0
		c0,0,0,0-0.1,0c0,0,0,0,0,0c0,0,0,0-0.1,0c0,0,0,0,0,0c0,0,0,0-0.1,0c0,0,0,0,0,0c0,0,0,0-0.1,0c0,0,0,0,0,0c0,0,0,0,0,0
		c0,0,0,0,0,0c0,0,0,0,0,0c0,0,0,0-0.1,0c0,0,0,0,0,0c0,0,0,0-0.1,0c0,0,0,0,0,0c0,0,0,0-0.1,0c0,0,0,0,0,0c0,0,0,0-0.1,0
		c0,0,0,0,0,0c0,0,0,0-0.1,0c0,0,0,0,0,0c0,0,0,0-0.1,0c0,0,0,0,0,0c0,0,0,0-0.1,0c0,0,0,0,0,0c0,0-0.1,0-0.1,0l0,0c0,0-0.1,0-0.1,0
		l0,0C438.6,542.4,436.9,542,435.2,541.5L435.2,541.5z M458.7,546.6l-0.8,4.9c4,0.7,8.1,1.2,12.1,1.7l0.6-5c-2.6-0.3-5.1-0.6-7.7-1
		l0,0c0,0-0.1,0-0.1,0l0,0c0,0-0.1,0-0.1,0l0,0c0,0-0.1,0-0.1,0l0,0c0,0-0.1,0-0.1,0l0,0c0,0-0.1,0-0.1,0l0,0c0,0-0.1,0-0.1,0
		c0,0,0,0,0,0c0,0-0.1,0-0.1,0c0,0,0,0,0,0c0,0,0,0-0.1,0c0,0,0,0,0,0c0,0,0,0-0.1,0c0,0,0,0,0,0c0,0,0,0-0.1,0c0,0,0,0,0,0
		c0,0-0.1,0-0.1,0c0,0,0,0,0,0c0,0,0,0-0.1,0c0,0,0,0-0.1,0c0,0,0,0,0,0c0,0-0.1,0-0.1,0c0,0,0,0,0,0c0,0,0,0-0.1,0c0,0,0,0,0,0
		c0,0,0,0-0.1,0c0,0,0,0,0,0c0,0,0,0-0.1,0c0,0,0,0,0,0c0,0-0.1,0-0.1,0c0,0,0,0,0,0c0,0-0.1,0-0.1,0l0,0
		C460.3,546.9,459.5,546.7,458.7,546.6L458.7,546.6z M482.5,549.4l-0.3,5c4,0.3,8.2,0.5,12.2,0.6l0.1-5c-1.9,0-3.9-0.1-5.8-0.2
		c0,0,0,0,0,0c0,0-0.1,0-0.1,0c0,0,0,0,0,0c0,0-0.1,0-0.1,0c0,0,0,0,0,0c0,0-0.1,0-0.1,0c0,0,0,0,0,0c0,0-0.1,0-0.1,0c0,0,0,0,0,0
		c0,0,0,0-0.1,0c0,0,0,0,0,0c0,0-0.1,0-0.1,0c0,0,0,0,0,0c-0.1,0-0.2,0-0.3,0c0,0,0,0,0,0c0,0,0,0-0.1,0c0,0,0,0,0,0c0,0,0,0-0.1,0
		c0,0,0,0,0,0c0,0,0,0-0.1,0c0,0,0,0,0,0c0,0,0,0,0,0c0,0,0,0,0,0c0,0,0,0,0,0c0,0,0,0-0.1,0s0,0,0,0c0,0,0,0-0.1,0c0,0,0,0,0,0
		c0,0,0,0-0.1,0c0,0,0,0,0,0c0,0,0,0-0.1,0c0,0,0,0,0,0c0,0,0,0-0.1,0c0,0,0,0,0,0c0,0,0,0-0.1,0c0,0,0,0,0,0c0,0-0.1,0-0.1,0l0,0
		c0,0-0.1,0-0.1,0l0,0c-0.1,0-0.1,0-0.2,0c0,0,0,0,0,0c0,0-0.1,0-0.1,0c0,0,0,0,0,0c0,0,0,0-0.1,0c0,0,0,0,0,0c0,0,0,0-0.1,0
		c0,0,0,0,0,0c0,0,0,0-0.1,0c0,0,0,0,0,0c0,0,0,0-0.1,0c0,0,0,0,0,0c0,0,0,0-0.1,0c0,0,0,0,0,0c0,0,0,0-0.1,0c0,0,0,0,0,0
		c0,0,0,0,0,0c0,0,0,0,0,0c0,0,0,0-0.1,0c0,0,0,0,0,0c0,0,0,0,0,0c0,0,0,0-0.1,0c0,0,0,0,0,0c0,0,0,0-0.1,0c0,0,0,0,0,0
		c0,0,0,0-0.1,0c0,0,0,0,0,0C484.3,549.5,483.4,549.5,482.5,549.4L482.5,549.4z M518.5,549.3c-4,0.3-8,0.5-12,0.6l0.1,5
		c4.1-0.1,8.2-0.3,12.2-0.6L518.5,549.3L518.5,549.3z M542.3,546.4c-1.7,0.3-3.4,0.6-5.2,0.8c0,0,0,0,0,0c0,0-0.1,0-0.1,0
		c0,0,0,0,0,0c0,0,0,0-0.1,0c0,0,0,0,0,0c0,0,0,0-0.1,0c0,0,0,0,0,0c0,0-0.1,0-0.1,0c0,0,0,0,0,0c0,0,0,0-0.1,0c0,0,0,0,0,0
		c0,0,0,0-0.1,0c0,0,0,0,0,0c0,0,0,0-0.1,0c0,0,0,0,0,0c0,0,0,0-0.1,0c0,0,0,0,0,0c0,0,0,0-0.1,0c0,0,0,0,0,0c0,0,0,0-0.1,0
		c0,0,0,0,0,0c0,0,0,0-0.1,0c0,0,0,0,0,0c0,0,0,0-0.1,0c0,0,0,0,0,0c0,0-0.1,0-0.1,0c0,0,0,0,0,0c0,0,0,0,0,0c0,0,0,0,0,0
		c0,0,0,0,0,0c0,0,0,0-0.1,0c0,0,0,0,0,0c0,0,0,0-0.1,0c0,0,0,0,0,0c0,0,0,0-0.1,0c0,0,0,0,0,0c0,0,0,0-0.1,0c0,0,0,0,0,0
		c0,0,0,0-0.1,0c0,0,0,0,0,0c0,0,0,0-0.1,0c0,0,0,0,0,0c0,0,0,0-0.1,0c0,0,0,0,0,0c0,0,0,0-0.1,0c0,0,0,0,0,0c0,0,0,0-0.1,0
		c0,0,0,0,0,0c0,0,0,0-0.1,0c0,0,0,0,0,0c0,0,0,0-0.1,0c0,0,0,0,0,0c0,0,0,0-0.1,0c0,0,0,0,0,0c0,0,0,0-0.1,0c0,0,0,0,0,0
		c0,0,0,0-0.1,0c0,0,0,0,0,0c0,0,0,0-0.1,0c0,0,0,0,0,0c0,0,0,0-0.1,0c0,0,0,0,0,0c0,0,0,0-0.1,0c0,0,0,0,0,0c0,0,0,0-0.1,0
		c0,0,0,0,0,0c0,0-0.1,0-0.1,0c0,0,0,0,0,0c0,0-0.1,0-0.1,0c0,0,0,0,0,0c0,0,0,0-0.1,0c0,0,0,0,0,0c0,0,0,0-0.1,0c0,0,0,0-0.1,0
		c0,0,0,0,0,0c0,0,0,0-0.1,0c0,0,0,0,0,0c0,0,0,0-0.1,0c0,0,0,0,0,0c0,0,0,0-0.1,0c0,0,0,0,0,0c0,0,0,0-0.1,0c0,0,0,0,0,0
		c0,0,0,0-0.1,0c0,0,0,0,0,0c0,0,0,0-0.1,0c0,0,0,0,0,0c0,0-0.1,0-0.1,0c0,0,0,0,0,0c0,0-0.1,0-0.1,0c0,0,0,0,0,0c0,0,0,0-0.1,0
		c0,0,0,0,0,0c0,0-0.1,0-0.1,0c0,0,0,0,0,0c0,0-0.1,0-0.1,0c0,0,0,0,0,0c-0.7,0.1-1.4,0.2-2,0.3l0.6,5c4-0.5,8.1-1.1,12.1-1.8
		L542.3,546.4L542.3,546.4z M565.7,541.3c-0.5,0.1-1,0.3-1.4,0.4c0,0,0,0,0,0c0,0-0.1,0-0.1,0c0,0,0,0,0,0c0,0-0.1,0-0.1,0
		c0,0,0,0,0,0c0,0-0.1,0-0.1,0c0,0,0,0,0,0c0,0-0.1,0-0.1,0c0,0,0,0,0,0c0,0-0.1,0-0.1,0c0,0,0,0,0,0c0,0-0.1,0-0.1,0c0,0,0,0,0,0
		c0,0-0.1,0-0.1,0c0,0,0,0,0,0c0,0,0,0-0.1,0c0,0,0,0,0,0c0,0,0,0-0.1,0c0,0,0,0,0,0c0,0,0,0-0.1,0c0,0,0,0,0,0c0,0,0,0-0.1,0
		c0,0,0,0,0,0c0,0,0,0-0.1,0c0,0,0,0,0,0c0,0,0,0-0.1,0c0,0,0,0,0,0c0,0-0.1,0-0.1,0c0,0,0,0,0,0c-0.1,0-0.1,0-0.2,0c0,0,0,0,0,0
		c-0.2,0-0.4,0.1-0.5,0.1c0,0,0,0,0,0c0,0-0.1,0-0.1,0c0,0,0,0,0,0c0,0,0,0-0.1,0c0,0,0,0,0,0c0,0,0,0-0.1,0c0,0,0,0,0,0
		c0,0,0,0-0.1,0c0,0,0,0,0,0c0,0,0,0-0.1,0c0,0,0,0,0,0c0,0,0,0-0.1,0c0,0,0,0,0,0c0,0,0,0-0.1,0c0,0,0,0,0,0c0,0,0,0-0.1,0
		c0,0,0,0,0,0c0,0,0,0-0.1,0c0,0,0,0,0,0c0,0,0,0-0.1,0c0,0,0,0,0,0c0,0,0,0-0.1,0c0,0,0,0,0,0c0,0,0,0-0.1,0c0,0,0,0,0,0
		c0,0,0,0-0.1,0c0,0,0,0,0,0c0,0-0.1,0-0.1,0c0,0,0,0,0,0c0,0-0.1,0-0.1,0c0,0,0,0,0,0c0,0-0.1,0-0.1,0c0,0,0,0,0,0
		c-2.2,0.6-4.5,1.1-6.8,1.6l1.1,4.9c4-0.9,8-1.9,11.9-2.9L565.7,541.3L565.7,541.3z M588.6,533.9c-0.7,0.3-1.3,0.5-2,0.8
		c0,0,0,0,0,0c0,0-0.1,0-0.1,0c0,0,0,0,0,0c0,0,0,0-0.1,0c0,0,0,0,0,0c0,0,0,0-0.1,0c0,0,0,0,0,0c0,0,0,0-0.1,0c0,0,0,0,0,0
		c0,0,0,0-0.1,0c0,0,0,0,0,0c0,0,0,0,0,0c0,0,0,0,0,0c0,0,0,0,0,0c0,0,0,0-0.1,0c0,0,0,0,0,0c0,0,0,0-0.1,0l0,0c0,0-0.1,0-0.1,0l0,0
		c-2.8,1-5.6,2-8.4,2.9l1.5,4.8c3.9-1.3,7.7-2.6,11.5-4.1L588.6,533.9L588.6,533.9z M610.6,524.3c-2.8,1.4-5.5,2.7-8.4,3.9l0,0
		c-0.1,0-0.1,0-0.2,0.1l0,0c0,0-0.1,0-0.1,0l0,0c0,0,0,0-0.1,0c0,0,0,0,0,0c0,0,0,0-0.1,0l0,0c0,0,0,0-0.1,0c0,0,0,0,0,0
		c0,0,0,0-0.1,0c0,0,0,0,0,0c0,0,0,0-0.1,0c0,0,0,0,0,0c0,0,0,0,0,0c0,0,0,0,0,0c0,0,0,0,0,0c0,0,0,0,0,0c0,0,0,0,0,0c0,0,0,0-0.1,0
		c0,0,0,0,0,0c0,0,0,0-0.1,0c0,0,0,0,0,0c0,0,0,0-0.1,0c0,0,0,0,0,0c-0.5,0.2-0.9,0.4-1.4,0.6l2,4.6c3.7-1.6,7.5-3.4,11.1-5.2
		L610.6,524.3L610.6,524.3z M631.5,512.6c-0.6,0.4-1.2,0.7-1.8,1.1l0,0c0,0,0,0-0.1,0l0,0c0,0,0,0-0.1,0l0,0c0,0,0,0-0.1,0
		c0,0,0,0,0,0c0,0,0,0-0.1,0c0,0,0,0,0,0c0,0,0,0-0.1,0c0,0,0,0,0,0c0,0,0,0-0.1,0c0,0,0,0,0,0c0,0,0,0-0.1,0l0,0c0,0,0,0-0.1,0l0,0
		c0,0,0,0-0.1,0c0,0,0,0,0,0c0,0,0,0-0.1,0l0,0c0,0,0,0-0.1,0c0,0,0,0,0,0c0,0,0,0-0.1,0c0,0,0,0,0,0c0,0,0,0-0.1,0c0,0,0,0,0,0
		c0,0,0,0-0.1,0c0,0,0,0,0,0c0,0,0,0-0.1,0c0,0,0,0,0,0c0,0,0,0-0.1,0l0,0c0,0,0,0-0.1,0l0,0c0,0,0,0-0.1,0l0,0c0,0-0.1,0-0.1,0l0,0
		c-2.3,1.4-4.6,2.7-7,4l2.4,4.4c3.5-2,7.1-4.1,10.6-6.2L631.5,512.6L631.5,512.6z M651.3,499c-1.1,0.8-2.1,1.6-3.2,2.4l0,0
		c0,0-0.1,0.1-0.1,0.1c0,0,0,0,0,0c0,0,0,0,0,0c0,0,0,0,0,0c0,0,0,0,0,0c-0.5,0.4-1.1,0.8-1.6,1.2c0,0,0,0,0,0c0,0-0.1,0.1-0.1,0.1
		c0,0,0,0,0,0c0,0,0,0-0.1,0.1c0,0,0,0,0,0c0,0,0,0,0,0c0,0,0,0,0,0l0,0c0,0,0,0-0.1,0.1c0,0,0,0,0,0c-1.4,1-2.8,2-4.2,3l2.8,4.1
		c3.3-2.3,6.7-4.7,9.9-7.2L651.3,499L651.3,499z M669.7,483.6C669.7,483.6,669.6,483.6,669.7,483.6
		C669.6,483.6,669.6,483.7,669.7,483.6C669.6,483.7,669.6,483.7,669.7,483.6c-0.1,0.1-0.1,0.1-0.1,0.1c0,0,0,0,0,0c0,0,0,0,0,0
		c0,0,0,0,0,0c0,0,0,0,0,0c0,0,0,0,0,0c0,0,0,0,0,0c0,0,0,0,0,0c0,0,0,0-0.1,0c0,0,0,0,0,0c0,0,0,0-0.1,0.1c0,0,0,0,0,0
		c0,0,0,0-0.1,0.1c0,0,0,0,0,0c0,0,0,0-0.1,0.1c0,0,0,0,0,0c0,0,0,0-0.1,0.1c0,0,0,0,0,0c0,0-0.1,0.1-0.1,0.1c0,0,0,0,0,0
		c-0.7,0.7-1.5,1.3-2.2,2c0,0,0,0,0,0c-0.1,0.1-0.2,0.2-0.3,0.2c0,0,0,0,0,0c-0.1,0.1-0.2,0.2-0.3,0.2c0,0,0,0,0,0
		c-0.1,0.1-0.2,0.2-0.3,0.2c0,0,0,0,0,0c0,0,0,0-0.1,0.1c0,0,0,0,0,0c0,0,0,0-0.1,0.1c0,0,0,0,0,0c0,0,0,0-0.1,0.1c0,0,0,0,0,0
		c0,0,0,0-0.1,0.1c0,0,0,0,0,0c0,0,0,0-0.1,0c0,0,0,0,0,0c0,0,0,0-0.1,0c0,0,0,0,0,0c0,0,0,0-0.1,0c0,0,0,0,0,0c0,0,0,0-0.1,0
		c0,0,0,0,0,0c0,0,0,0,0,0c0,0,0,0,0,0c0,0,0,0,0,0c0,0,0,0,0,0c0,0,0,0,0,0c0,0,0,0,0,0c0,0,0,0,0,0c0,0,0,0,0,0c0,0,0,0,0,0
		c0,0,0,0,0,0c0,0,0,0,0,0c0,0,0,0,0,0c0,0,0,0,0,0c0,0,0,0,0,0c0,0,0,0,0,0c0,0,0,0,0,0c0,0,0,0,0,0c0,0,0,0,0,0c0,0,0,0,0,0
		c0,0,0,0,0,0c0,0,0,0,0,0c0,0,0,0,0,0c0,0,0,0,0,0c0,0,0,0,0,0c0,0,0,0,0,0c0,0,0,0,0,0c0,0,0,0,0,0c0,0,0,0,0,0c0,0,0,0,0,0
		c0,0,0,0,0,0c0,0,0,0,0,0c0,0,0,0,0,0c0,0,0,0,0,0c0,0,0,0,0,0c0,0,0,0,0,0c0,0,0,0,0,0c0,0,0,0,0,0c0,0,0,0,0,0c0,0,0,0,0,0
		c0,0,0,0,0,0c0,0,0,0,0,0c0,0,0,0,0,0c0,0,0,0,0,0c0,0,0,0,0,0c0,0,0,0,0,0c0,0,0,0,0,0c0,0,0,0,0,0c0,0,0,0-0.1,0c0,0,0,0,0,0
		c0,0,0,0-0.1,0c0,0,0,0,0,0c0,0,0,0-0.1,0c0,0,0,0,0,0c0,0,0,0-0.1,0.1l0,0c0,0,0,0-0.1,0.1l0,0c0,0,0,0-0.1,0.1l0,0
		c0,0,0,0-0.1,0.1l0,0c-0.1,0.1-0.2,0.2-0.3,0.2l0,0c0,0-0.1,0.1-0.1,0.1l0,0c0,0-0.1,0.1-0.1,0.1l0,0c-0.4,0.3-0.8,0.6-1.1,1l0,0
		c-0.1,0.1-0.2,0.2-0.3,0.2l0,0c-0.1,0.1-0.2,0.2-0.3,0.2l0,0c0,0-0.1,0-0.1,0.1l3.2,3.8c3.1-2.6,6.2-5.3,9.2-8.1L669.7,483.6
		L669.7,483.6z M686.5,466.5c-0.6,0.7-1.3,1.4-1.9,2.1l0,0c0,0,0,0-0.1,0.1l0,0c0,0,0,0-0.1,0.1l0,0c0,0,0,0-0.1,0.1c0,0,0,0,0,0
		c0,0,0,0,0,0c0,0,0,0,0,0c0,0,0,0,0,0c0,0,0,0,0,0c0,0,0,0,0,0c0,0,0,0,0,0c0,0,0,0,0,0c0,0,0,0,0,0c0,0,0,0,0,0c0,0,0,0,0,0
		c0,0,0,0,0,0c0,0,0,0,0,0c0,0,0,0,0,0c0,0,0,0,0,0c0,0,0,0,0,0c0,0,0,0,0,0c0,0,0,0,0,0c0,0,0,0,0,0.1c0,0,0,0,0,0c0,0,0,0-0.1,0.1
		c0,0,0,0,0,0c0,0,0,0,0,0.1c0,0,0,0,0,0c0,0,0,0-0.1,0.1c0,0,0,0,0,0c0,0,0,0-0.1,0.1c0,0,0,0,0,0c0,0,0,0-0.1,0.1c0,0,0,0,0,0
		c0,0,0,0-0.1,0.1c0,0,0,0,0,0c0,0,0,0-0.1,0.1c0,0,0,0,0,0c0,0-0.1,0.1-0.1,0.1c0,0,0,0,0,0c-0.1,0.1-0.2,0.2-0.2,0.3c0,0,0,0,0,0
		c0,0-0.1,0.1-0.1,0.1c0,0,0,0,0,0c0,0-0.1,0.1-0.1,0.1c0,0,0,0,0,0c0,0,0,0-0.1,0.1c0,0,0,0,0,0c0,0,0,0-0.1,0.1c0,0,0,0,0,0
		c0,0,0,0-0.1,0.1c0,0,0,0,0,0c0,0,0,0-0.1,0.1c0,0,0,0,0,0c0,0,0,0,0,0c0,0,0,0,0,0c0,0,0,0,0,0.1c0,0,0,0,0,0c0,0,0,0-0.1,0.1
		c0,0,0,0,0,0c0,0,0,0-0.1,0.1c0,0,0,0,0,0c0,0,0,0,0,0c0,0,0,0,0,0c0,0,0,0,0,0c0,0,0,0,0,0c0,0,0,0,0,0.1c0,0,0,0,0,0c0,0,0,0,0,0
		c0,0,0,0,0,0c0,0,0,0,0,0c0,0,0,0,0,0c0,0,0,0,0,0c0,0,0,0,0,0c0,0,0,0,0,0c0,0,0,0,0,0c0,0,0,0,0,0c0,0,0,0,0,0c0,0,0,0,0,0
		c0,0,0,0,0,0c0,0,0,0,0,0c0,0,0,0,0,0c0,0,0,0,0,0c0,0,0,0,0,0.1c0,0,0,0,0,0c0,0,0,0,0,0.1c0,0,0,0,0,0c0,0,0,0,0,0c0,0,0,0,0,0
		c0,0,0,0,0,0.1c0,0,0,0,0,0c0,0,0,0-0.1,0.1c0,0,0,0,0,0c0,0,0,0-0.1,0.1c0,0,0,0,0,0c0,0,0,0-0.1,0.1c0,0,0,0,0,0c0,0,0,0-0.1,0.1
		c0,0,0,0,0,0c0,0,0,0-0.1,0.1l0,0c-0.9,0.9-1.7,1.8-2.6,2.7l3.6,3.5c2.8-2.9,5.7-5.9,8.4-8.9L686.5,466.5L686.5,466.5z
		 M701.6,447.9c-2,2.7-4.1,5.4-6.2,8.1l0,0c0,0,0,0-0.1,0.1l0,0c0,0,0,0,0,0.1c0,0,0,0,0,0c0,0,0,0,0,0c0,0,0,0,0,0c0,0,0,0,0,0
		c0,0,0,0,0,0c0,0,0,0,0,0c0,0,0,0,0,0.1c0,0,0,0,0,0c-0.3,0.3-0.5,0.7-0.8,1l3.9,3.1c2.6-3.2,5.1-6.4,7.5-9.7L701.6,447.9
		L701.6,447.9z M714.9,427.9c-0.4,0.6-0.8,1.3-1.2,1.9c0,0,0,0,0,0c0,0,0,0.1,0,0.1l0,0c0,0,0,0.1,0,0.1c0,0,0,0,0,0
		c0,0,0,0.1,0,0.1c0,0,0,0,0,0c0,0,0,0.1,0,0.1c0,0,0,0,0,0c0,0,0,0,0,0.1c0,0,0,0,0,0c0,0,0,0,0,0.1c0,0,0,0,0,0c0,0,0,0,0,0.1
		c0,0,0,0,0,0c0,0,0,0,0,0c0,0,0,0,0,0c0,0,0,0,0,0c0,0,0,0,0,0c0,0,0,0,0,0c0,0,0,0,0,0c0,0,0,0,0,0c0,0,0,0,0,0c0,0,0,0,0,0
		c0,0,0,0,0,0c0,0,0,0,0,0.1c0,0,0,0,0,0c0,0,0,0,0,0.1c0,0,0,0,0,0c0,0,0,0,0,0.1c0,0,0,0,0,0c0,0,0,0,0,0c0,0,0,0,0,0c0,0,0,0,0,0
		c0,0,0,0,0,0c0,0,0,0,0,0c0,0,0,0,0,0c0,0,0,0,0,0c0,0,0,0,0,0c0,0,0,0,0,0c0,0,0,0,0,0c0,0,0,0,0,0c0,0,0,0,0,0c0,0,0,0,0,0
		c0,0,0,0,0,0c0,0,0,0,0,0c0,0,0,0,0,0.1l0,0c0,0,0,0.1,0,0.1l0,0c0,0,0,0,0,0.1c0,0,0,0,0,0c0,0,0,0,0,0.1c0,0,0,0,0,0
		c0,0,0,0,0,0.1c0,0,0,0,0,0c0,0,0,0,0,0.1c0,0,0,0,0,0c0,0,0,0,0,0.1c0,0,0,0,0,0c-0.3,0.4-0.5,0.8-0.8,1.3c0,0,0,0,0,0
		c0,0.1-0.1,0.1-0.1,0.2c0,0,0,0,0,0c0,0,0,0,0,0c0,0,0,0,0,0c0,0,0,0,0,0c0,0,0,0,0,0c0,0,0,0,0,0.1c0,0,0,0,0,0c0,0,0,0,0,0.1
		c0,0,0,0,0,0c0,0,0,0,0,0c0,0,0,0,0,0c0,0,0,0,0,0c0,0,0,0,0,0c0,0,0,0,0,0c0,0,0,0,0,0c0,0,0,0,0,0c0,0,0,0,0,0c0,0,0,0,0,0
		c0,0,0,0,0,0.1c0,0,0,0,0,0c0,0,0,0,0,0.1c0,0,0,0,0,0c0,0,0,0,0,0.1c0,0,0,0,0,0c0,0,0,0.1,0,0.1c0,0,0,0,0,0c0,0,0,0,0,0.1
		c0,0,0,0,0,0c0,0,0,0,0,0.1c0,0,0,0,0,0c0,0,0,0,0,0.1c0,0,0,0,0,0c0,0,0,0,0,0.1c0,0,0,0,0,0c0,0,0,0,0,0.1c0,0,0,0,0,0
		c0,0,0,0,0,0.1c0,0,0,0,0,0c0,0,0,0,0,0.1c0,0,0,0,0,0c0,0,0,0,0,0.1c0,0,0,0,0,0c0,0,0,0,0,0.1c0,0,0,0,0,0c0,0,0,0,0,0.1
		c0,0,0,0,0,0c0,0,0,0,0,0.1c0,0,0,0,0,0c0,0,0,0,0,0.1c0,0,0,0,0,0c0,0,0,0,0,0.1c0,0,0,0,0,0c0,0,0,0,0,0.1c0,0,0,0,0,0
		c0,0,0,0,0,0.1c0,0,0,0,0,0c0,0,0,0,0,0.1c0,0,0,0,0,0c0,0,0,0,0,0.1c0,0,0,0,0,0c0,0,0,0,0,0.1c0,0,0,0,0,0c0,0,0,0,0,0.1
		c0,0,0,0,0,0c0,0,0,0,0,0.1c0,0,0,0,0,0c0,0,0,0,0,0.1c0,0,0,0,0,0c0,0,0,0,0,0.1c0,0,0,0,0,0c0,0,0,0,0,0.1c0,0,0,0,0,0
		c0,0,0,0,0,0.1c0,0,0,0,0,0c0,0,0,0,0,0.1c0,0,0,0,0,0c0,0,0,0,0,0.1c0,0,0,0,0,0c0,0,0,0,0,0.1c0,0,0,0,0,0c0,0,0,0,0,0.1
		c0,0,0,0,0,0c0,0,0,0,0,0.1c0,0,0,0,0,0c0,0,0,0,0,0.1c0,0,0,0,0,0c0,0,0,0,0,0.1c0,0,0,0,0,0c0,0.1-0.1,0.1-0.1,0.2c0,0,0,0,0,0
		c0,0,0,0,0,0.1c0,0,0,0,0,0c0,0,0,0,0,0.1c0,0,0,0,0,0c0,0,0,0,0,0.1c0,0,0,0,0,0c0,0,0,0,0,0.1c0,0,0,0,0,0c0,0,0,0,0,0.1
		c0,0,0,0,0,0c0,0,0,0,0,0.1c0,0,0,0,0,0c0,0,0,0,0,0.1c0,0,0,0,0,0c0,0,0,0,0,0.1c0,0,0,0,0,0c0,0,0,0,0,0.1c0,0,0,0,0,0l4.2,2.8
		c2.2-3.4,4.4-6.9,6.5-10.4L714.9,427.9L714.9,427.9z M726.1,406.7c-0.6,1.3-1.3,2.7-1.9,4l0,0c0,0,0,0.1,0,0.1l0,0c0,0,0,0.1,0,0.1
		c0,0,0,0,0,0c0,0,0,0,0,0.1c0,0,0,0,0,0c0,0,0,0,0,0c0,0,0,0,0,0.1c0,0,0,0,0,0c0,0,0,0,0,0.1c0,0,0,0,0,0c0,0,0,0,0,0.1
		c0,0,0,0,0,0c0,0,0,0,0,0.1c0,0,0,0,0,0c0,0,0,0,0,0.1c0,0,0,0,0,0c0,0,0,0,0,0.1c0,0,0,0,0,0c0,0,0,0,0,0.1c0,0,0,0,0,0
		c0,0,0,0,0,0.1c0,0,0,0,0,0c0,0,0,0,0,0.1c0,0,0,0,0,0c0,0,0,0.1,0,0.1c0,0,0,0,0,0c0,0,0,0.1,0,0.1c0,0,0,0,0,0c0,0,0,0.1,0,0.1
		c0,0,0,0,0,0c0,0,0,0.1,0,0.1v0c-0.7,1.3-1.4,2.7-2.1,4c0,0,0,0,0,0c-0.1,0.1-0.1,0.2-0.2,0.3c0,0,0,0,0,0c0,0,0,0.1,0,0.1
		c0,0,0,0,0,0c0,0,0,0,0,0.1c0,0,0,0,0,0c0,0,0,0,0,0.1c0,0,0,0,0,0c0,0,0,0,0,0.1c0,0,0,0,0,0c0,0,0,0,0,0.1c0,0,0,0,0,0
		c0,0,0,0,0,0c0,0,0,0,0,0c0,0,0,0,0,0c0,0,0,0,0,0.1c0,0,0,0,0,0c0,0,0,0,0,0.1c0,0,0,0,0,0c0,0.1-0.1,0.2-0.1,0.3l4.4,2.4
		c1.9-3.6,3.8-7.3,5.5-10.9L726.1,406.7L726.1,406.7z M735.3,384.5c-1,2.8-2,5.5-3.1,8.2c0,0,0,0,0,0c0,0,0,0.1,0,0.1c0,0,0,0,0,0
		c0,0,0,0.1,0,0.1c0,0,0,0,0,0c0,0,0,0,0,0.1c0,0,0,0,0,0c0,0,0,0,0,0.1c0,0,0,0,0,0c0,0,0,0,0,0.1c0,0,0,0,0,0c0,0,0,0,0,0.1
		c0,0,0,0,0,0c0,0,0,0,0,0.1c0,0,0,0,0,0c0,0,0,0,0,0.1c0,0,0,0,0,0c0,0,0,0,0,0c0,0,0,0,0,0c0,0,0,0,0,0c0,0,0,0,0,0.1c0,0,0,0,0,0
		c0,0,0,0,0,0.1c0,0,0,0,0,0c0,0,0,0,0,0.1c0,0,0,0,0,0c0,0,0,0,0,0.1c0,0,0,0,0,0c0,0,0,0,0,0.1l0,0c0,0,0,0,0,0.1l0,0
		c0,0,0,0.1,0,0.1l0,0c-0.2,0.5-0.4,1-0.6,1.5l4.6,1.9c1.6-3.8,3-7.6,4.4-11.4L735.3,384.5L735.3,384.5z M742.4,361.6
		c-0.3,1.3-0.7,2.7-1,4c0,0,0,0,0,0c0,0,0,0.1,0,0.1c0,0,0,0,0,0c0,0,0,0.1,0,0.1c0,0,0,0,0,0c0,0,0,0.1,0,0.1c0,0,0,0,0,0
		c0,0,0,0,0,0.1c0,0,0,0,0,0c0,0,0,0,0,0.1c0,0,0,0,0,0c0,0,0,0,0,0.1c0,0,0,0,0,0c0,0,0,0,0,0.1c0,0,0,0,0,0c0,0,0,0,0,0.1
		c0,0,0,0,0,0c0,0,0,0,0,0.1c0,0,0,0,0,0c0,0,0,0,0,0.1c0,0,0,0,0,0c0,0,0,0,0,0c0,0,0,0,0,0.1c0,0,0,0,0,0c0,0,0,0,0,0.1
		c0,0,0,0,0,0c-0.6,2.1-1.2,4.3-1.9,6.4l4.8,1.5c1.2-3.9,2.3-7.9,3.3-11.8L742.4,361.6L742.4,361.6z M747.1,338.1
		c-0.4,2.5-0.8,5-1.3,7.5c0,0,0,0,0,0c0,0,0,0.1,0,0.1c0,0,0,0,0,0c0,0,0,0,0,0.1c0,0,0,0,0,0c0,0,0,0,0,0c0,0,0,0,0,0c0,0,0,0,0,0
		c0,0,0,0,0,0.1c0,0,0,0,0,0c0,0,0,0,0,0.1c0,0,0,0,0,0c0,0,0,0,0,0.1c0,0,0,0,0,0c0,0,0,0,0,0.1c0,0,0,0,0,0c0,0,0,0,0,0.1l0,0
		c0,0,0,0.1,0,0.1l0,0c0,0,0,0.1,0,0.1l0,0c0,0,0,0.1,0,0.1l0,0c0,0,0,0.1,0,0.1l0,0c-0.2,1.1-0.4,2.1-0.6,3.2l4.9,1
		c0.8-4,1.5-8,2.1-12.1L747.1,338.1L747.1,338.1z M749.6,314.2c-0.2,4-0.5,8-1,12l5,0.5c0.4-4,0.7-8.1,1-12.2L749.6,314.2
		L749.6,314.2z M754.8,290l-5,0.2c0.1,2.5,0.2,4.9,0.2,7.4c0,0,0,0,0,0c0,0.1,0,0.1,0,0.2c0,0,0,0,0,0c0,0,0,0,0,0.1c0,0,0,0,0,0
		c0,0,0,0,0,0.1c0,0,0,0,0,0c0,0,0,0.1,0,0.1c0,0,0,0,0,0c0,0,0,0,0,0.1c0,0,0,0,0,0c0,0,0,0,0,0.1c0,0,0,0,0,0c0,0,0,0.1,0,0.1
		c0,0,0,0,0,0c0,0,0,0,0,0c0,0,0,0,0,0c0,0,0,0,0,0c0,0,0,0,0,0.1c0,0,0,0,0,0c0,0,0,0.1,0,0.1c0,0,0,0,0,0c0,0,0,0,0,0.1
		c0,0,0,0,0,0c0,0,0,0,0,0.1c0,0,0,0,0,0c0,0,0,0.1,0,0.1c0,0,0,0,0,0c0,0,0,0,0,0.1c0,0,0,0,0,0c0,0,0,0,0,0.1c0,0,0,0,0,0
		c0,0,0,0.1,0,0.1c0,0,0,0,0,0c0,0,0,0,0,0.1c0,0,0,0,0,0c0,0,0,0,0,0.1c0,0,0,0,0,0c0,0,0,0.1,0,0.1v0c0,0,0,0.1,0,0.1c0,0,0,0,0,0
		c0,0,0,0,0,0.1c0,0,0,0,0,0c0,0,0,0.1,0,0.1l0,0l0,0l0,0c0,0,0,0.1,0,0.1c0,0,0,0,0,0c0,0,0,0,0,0.1c0,0,0,0,0,0c0,0,0,0.1,0,0.1
		c0,0,0,0,0,0c0,0,0,0,0,0c0,0.1,0,0.1,0,0.2c0,0,0,0,0,0c0,0.6,0,1.1,0,1.7l5,0c0-0.8,0-1.5,0-2.3C755,296.7,754.9,293.3,754.8,290
		L754.8,290z M752.7,265.7l-5,0.7c0,0.3,0.1,0.6,0.1,0.9l0,0c0,0,0,0.1,0,0.1c0,0,0,0,0,0c0,0,0,0,0,0.1c0,0,0,0,0,0c0,0,0,0,0,0.1
		c0,0,0,0,0,0c0,0,0,0,0,0.1c0,0,0,0,0,0c0,0,0,0,0,0c0,0,0,0,0,0c0,0,0,0,0,0c0,0,0,0,0,0c0,0,0,0,0,0c0,0,0,0,0,0.1c0,0,0,0,0,0
		c0,0,0,0,0,0.1c0,0,0,0,0,0c0,0,0,0,0,0.1c0,0,0,0,0,0c0.3,2.1,0.5,4.2,0.7,6.3c0,0,0,0,0,0c0,0,0,0.1,0,0.1c0,0,0,0,0,0
		c0,0,0,0.1,0,0.1c0,0,0,0,0,0c0,0,0,0,0,0.1c0,0,0,0,0,0c0,0,0,0.1,0,0.1c0,0,0,0,0,0c0,0,0,0,0,0.1c0,0,0,0,0,0c0,0,0,0,0,0.1
		c0,0,0,0,0,0c0,0,0,0,0,0.1c0,0,0,0,0,0c0,0,0,0,0,0c0,0,0,0,0,0.1c0,0,0,0,0,0c0,0,0,0,0,0.1c0,0,0,0,0,0c0,0,0,0,0,0.1
		c0,0,0,0,0,0c0,0,0,0.1,0,0.1l0,0c0.1,0.9,0.2,1.8,0.2,2.6l5-0.4C753.7,273.8,753.2,269.7,752.7,265.7L752.7,265.7z M748.3,241.6
		l-4.9,1.1c0.9,3.9,1.7,7.8,2.5,11.7l4.9-0.9C750,249.6,749.2,245.5,748.3,241.6L748.3,241.6z M741.5,218.1l-4.7,1.6
		c0.2,0.5,0.4,1.1,0.6,1.7c0,0,0,0,0,0c0,0,0,0,0,0c0,0,0,0,0,0.1c0,0,0,0,0,0c0,0,0,0,0,0.1c0,0,0,0,0,0c0,0,0,0,0,0.1c0,0,0,0,0,0
		c0,0,0,0,0,0.1l0,0c0,0,0,0.1,0,0.1l0,0c0,0,0,0.1,0,0.1l0,0c0,0,0,0.1,0,0.1l0,0c1,3,1.9,6.1,2.8,9.1l4.8-1.4
		C744.1,225.8,742.9,221.9,741.5,218.1L741.5,218.1z M732.6,195.3l-4.6,2.1c0.1,0.3,0.3,0.6,0.4,0.9c0,0,0,0,0,0c0,0,0,0,0,0.1
		c0,0,0,0,0,0c0,0,0,0,0,0.1c0,0,0,0,0,0c0,0,0,0,0,0.1c0,0,0,0,0,0c0,0,0,0,0,0.1c0,0,0,0,0,0c0,0,0,0,0,0c0,0,0,0,0,0c0,0,0,0,0,0
		c0,0,0,0,0,0.1c0,0,0,0,0,0c0,0,0,0,0,0.1c0,0,0,0,0,0c0,0,0,0,0,0.1l0,0c0,0,0,0,0,0.1l0,0c0,0,0,0.1,0,0.1l0,0
		c1,2.3,2,4.5,2.9,6.8l0,0c0,0,0,0.1,0,0.1l0,0c0,0,0,0,0,0.1c0,0,0,0,0,0c0,0,0,0,0,0.1c0,0,0,0,0,0c0,0,0,0,0,0.1c0,0,0,0,0,0
		c0,0,0,0,0,0.1c0,0,0,0,0,0c0,0,0,0,0,0c0,0,0,0,0,0.1c0,0,0,0,0,0c0,0,0,0,0,0.1c0,0,0,0,0,0c0.2,0.6,0.5,1.2,0.7,1.7l4.7-1.8
		C735.9,202.8,734.2,199,732.6,195.3L732.6,195.3z M721.5,173.5l-4.3,2.5c0.7,1.2,1.3,2.3,2,3.5l0,0c0,0,0,0,0,0.1l0,0
		c0,0,0,0.1,0,0.1l0,0c0,0,0,0,0,0.1c0,0,0,0,0,0c0,0,0,0,0,0.1c0,0,0,0,0,0c0,0,0,0,0,0.1c0,0,0,0,0,0c0,0,0,0,0,0.1c0,0,0,0,0,0
		c0,0,0,0,0,0c0,0,0,0,0,0c0,0,0,0,0,0c0,0,0,0,0,0c0,0,0,0,0,0c0,0,0,0,0,0c0,0,0,0,0,0c0,0,0,0,0,0c0,0,0,0,0,0c0,0,0,0,0,0
		c0,0,0,0,0,0c0,0,0,0,0,0c0,0,0,0,0,0c0,0,0,0,0,0.1c0,0,0,0,0,0c0,0,0,0,0,0.1c0,0,0,0,0,0c0,0,0,0,0,0.1c0,0,0,0,0,0
		c0,0,0,0,0,0.1c0,0,0,0,0,0c0,0,0,0,0,0.1c0,0,0,0,0,0c0,0,0,0,0,0.1c0,0,0,0,0,0c0,0,0,0,0,0.1c0,0,0,0,0,0c0,0,0,0,0,0.1
		c0,0,0,0,0,0c0,0,0,0,0,0.1c0,0,0,0,0,0c0,0,0,0,0,0.1c0,0,0,0,0,0c0,0,0,0.1,0,0.1c0,0,0,0,0,0c0,0,0,0,0,0.1c0,0,0,0,0,0
		c0,0,0,0.1,0,0.1c0,0,0,0,0,0c0,0,0,0,0,0.1c0,0,0,0,0,0c0,0,0,0,0,0.1c0,0,0,0,0,0c0,0,0,0,0,0.1c0,0,0,0,0,0c0,0,0,0,0,0.1
		c0,0,0,0,0,0c0,0,0,0,0,0.1c0,0,0,0,0,0c0,0,0,0.1,0,0.1c0,0,0,0,0,0c0,0,0,0.1,0,0.1c0,0,0,0,0,0c0,0,0,0.1,0,0.1c0,0,0,0,0,0
		c0,0,0,0.1,0,0.1c0,0,0,0,0,0c0,0,0,0.1,0,0.1c0,0,0,0,0,0c0,0,0,0.1,0,0.1c0,0,0,0,0,0c0,0,0,0.1,0,0.1c0,0,0,0,0,0
		c0,0,0,0.1,0,0.1c0,0,0,0,0,0c0,0,0,0.1,0,0.1c0,0,0,0,0,0c0,0,0,0.1,0,0.1c0,0,0,0,0,0c0,0,0,0,0,0.1c0,0,0,0,0,0c0,0,0,0,0,0.1
		c0,0,0,0,0,0c0,0,0,0,0,0.1c0,0,0,0,0,0c0,0,0,0,0,0.1c0,0,0,0,0,0c0,0,0,0,0,0.1c0,0,0,0,0,0c0,0,0,0.1,0,0.1c0,0,0,0,0,0
		c0,0,0,0.1,0,0.1c0,0,0,0,0,0c0,0,0,0.1,0,0.1c0,0,0,0,0,0c0,0,0,0.1,0,0.1c0,0,0,0,0,0c0,0,0,0.1,0,0.1c0,0,0,0,0,0c0,0,0,0,0,0.1
		c0,0,0,0,0,0c0,0,0,0,0,0.1c0,0,0,0,0,0c0,0,0,0,0,0.1c0,0,0,0,0,0c0,0,0,0,0,0.1c0,0,0,0,0,0c0,0,0,0,0,0.1c0,0,0,0,0,0
		c0,0,0,0,0,0.1c0,0,0,0,0,0c0,0,0,0,0,0.1c0,0,0,0,0,0c0,0,0,0,0,0.1c0,0,0,0,0,0c0,0,0,0,0,0.1c0,0,0,0,0,0c0,0,0,0,0,0.1
		c0,0,0,0,0,0c0,0,0,0,0,0.1c0,0,0,0,0,0c0,0,0,0,0,0.1c0,0,0,0,0,0c0,0,0,0,0,0.1c0,0,0,0,0,0c0,0,0,0,0,0.1c0,0,0,0,0,0
		c0,0,0,0,0,0c0,0,0,0,0,0c0,0,0,0,0,0c0,0,0,0,0,0c0,0,0,0,0,0c0,0,0,0,0,0c0,0,0,0,0,0c0,0,0,0,0,0.1c0,0,0,0,0,0c0,0,0,0,0,0.1
		c0,0,0,0,0,0c0,0,0,0,0,0.1c0,0,0,0,0,0c0,0,0,0,0,0.1c0,0,0,0,0,0c0,0,0,0,0,0.1l0,0c0,0,0,0.1,0,0.1l0,0c0.1,0.3,0.3,0.6,0.4,0.8
		l4.5-2.3C725.4,180.6,723.5,177,721.5,173.5L721.5,173.5z M708.3,152.9l-4.1,2.9c1.8,2.5,3.5,5,5.1,7.5l0,0c0,0,0,0,0,0.1
		c0,0,0,0,0,0c0,0,0,0,0,0c0,0,0,0,0,0c0,0,0,0,0,0c0,0,0,0,0,0.1c0,0,0,0,0,0c0,0,0,0,0,0.1c0,0,0,0,0,0c0,0,0,0.1,0,0.1
		c0,0,0,0,0,0c0.4,0.7,0.9,1.3,1.3,2l4.2-2.7C712.9,159.6,710.6,156.2,708.3,152.9L708.3,152.9z M693.2,133.6l-3.8,3.3
		c0.5,0.6,1,1.1,1.4,1.7l0,0c0,0,0,0,0.1,0.1l0,0c0,0,0,0,0.1,0.1l0,0c0,0,0,0,0.1,0.1l0,0c0,0,0,0,0.1,0.1l0,0c0,0,0,0,0.1,0.1l0,0
		c0,0,0,0,0,0.1l0,0c0,0,0,0,0,0.1l0,0c0,0,0,0,0,0.1l0,0c0,0,0,0,0,0.1l0,0c0,0,0,0,0,0.1c0,0,0,0,0,0c0,0,0,0,0,0.1c0,0,0,0,0,0
		c0,0,0,0,0,0.1c0,0,0,0,0,0c0,0,0,0,0,0c0,0,0,0,0,0c0,0,0,0,0,0c0,0,0,0,0,0c0,0,0,0,0,0c0,0,0,0,0,0c0,0,0,0,0,0c0,0,0,0,0,0
		c0,0,0,0,0,0c0,0,0,0,0,0c0,0,0,0,0,0c0,0,0,0,0,0c0,0,0,0,0,0c0,0,0,0,0,0c0,0,0,0,0,0c0,0,0,0,0,0c0,0,0,0,0,0c0,0,0,0,0,0
		c0,0,0,0,0,0c0,0,0,0,0,0c0,0,0,0,0,0c0,0,0,0,0,0c0,0,0,0,0,0c0,0,0,0,0,0c0,0,0,0,0,0c0,0,0,0,0,0c0,0,0,0,0,0c0,0,0,0,0,0
		c0,0,0,0,0,0c0,0,0,0,0,0c0,0,0,0,0,0c0,0,0,0,0,0c0,0,0,0,0,0c0,0,0,0,0,0c0,0,0,0,0,0c0,0,0,0,0,0c0,0,0,0,0,0c0,0,0,0,0,0
		c0,0,0,0,0,0c0,0,0,0,0,0c0,0,0,0,0,0c0,0,0,0,0,0.1c0,0,0,0,0,0c0,0,0,0,0,0.1c0,0,0,0,0,0c0,0,0,0,0,0.1c0,0,0,0,0,0
		c0,0,0,0,0,0.1c0,0,0,0,0,0c0,0,0,0,0,0.1c0,0,0,0,0,0c0,0,0,0,0,0.1c0,0,0,0,0,0c0,0,0,0,0,0.1c0,0,0,0,0,0c0,0,0,0,0,0
		c0,0,0,0,0,0c0,0,0,0,0,0c0,0,0,0,0,0c0,0,0,0,0,0.1c0,0,0,0,0,0c0,0,0,0,0,0.1c0,0,0,0,0,0c0,0,0,0,0,0c0,0,0,0,0,0c0,0,0,0,0,0
		c0,0,0,0,0,0c0,0,0,0,0,0.1c0,0,0,0,0,0c0,0,0,0,0,0.1c0,0,0,0,0,0c0,0,0,0,0,0c0,0,0,0,0,0c0,0,0,0,0,0.1c0,0,0,0,0,0
		c0,0,0,0,0,0.1c0,0,0,0,0,0c0,0,0,0,0,0.1c0,0,0,0,0,0c0,0,0,0,0,0.1c0,0,0,0,0,0c0,0,0,0,0,0.1c0,0,0,0,0,0c0,0,0,0,0,0.1
		c0,0,0,0,0,0c0,0,0,0,0,0.1c0,0,0,0,0,0c0,0,0,0,0,0c0,0,0,0,0,0c0,0,0,0,0,0c0,0,0,0,0,0c0,0,0,0,0,0.1c0,0,0,0,0,0c0,0,0,0,0,0.1
		c0,0,0,0,0,0c0,0,0,0,0,0.1c0,0,0,0,0,0c0,0,0,0,0,0.1c0,0,0,0,0,0c0,0,0,0,0,0.1c0,0,0,0,0,0c0,0,0,0,0,0.1c0,0,0,0,0,0
		c0,0,0,0,0,0.1c0,0,0,0,0,0c0,0,0,0,0,0.1c0,0,0,0,0,0c0,0,0,0,0,0.1c0,0,0,0,0,0c0,0,0,0,0,0.1c0,0,0,0,0,0c0,0,0,0,0,0.1
		c0,0,0,0,0,0c0,0,0,0,0,0.1c0,0,0,0,0,0c0,0,0,0,0,0.1c0,0,0,0,0,0c0,0,0,0,0,0.1c0,0,0,0,0,0c0,0,0,0,0,0.1c0,0,0,0,0,0
		c0,0,0,0,0,0.1c0,0,0,0,0,0c0,0,0,0,0,0.1c0,0,0,0,0,0c0,0,0,0,0,0.1c0,0,0,0,0,0c0,0,0,0,0,0.1c0,0,0,0,0,0c0,0,0,0,0,0.1
		c0,0,0,0,0,0c0,0,0,0,0,0.1c0,0,0,0,0,0c0,0,0,0,0,0.1c0,0,0,0,0,0c0,0,0,0,0,0.1c0,0,0,0,0,0c0,0,0,0,0,0.1c0,0,0,0,0,0
		c0,0,0,0,0,0.1c0,0,0,0,0,0c0,0,0,0,0,0.1c0,0,0,0,0,0c0,0,0,0,0,0.1c0,0,0,0,0,0c0,0,0,0,0,0.1c0,0,0,0,0,0c0,0,0,0,0.1,0.1
		c0,0,0,0,0,0c0,0,0,0,0.1,0.1c0,0,0,0,0,0c0,0,0,0,0,0.1c0,0,0,0,0,0c0,0,0,0,0,0.1c0,0,0,0,0,0c0,0,0,0,0.1,0.1c0,0,0,0,0,0
		c0,0,0,0,0.1,0.1c0,0,0,0,0,0c0,0,0,0,0.1,0.1c0,0,0,0,0,0c0.1,0.1,0.2,0.2,0.2,0.3c0,0,0,0,0,0c0.2,0.2,0.3,0.4,0.5,0.6l3.9-3.1
		C698.5,139.8,695.9,136.7,693.2,133.6L693.2,133.6z M676.4,115.8l-3.5,3.6c0,0,0,0,0,0c0,0,0,0,0,0c0,0,0,0,0,0c0,0,0,0,0,0
		c0,0,0,0,0,0c0,0,0,0,0,0c0,0,0,0,0,0c0,0,0,0,0,0c0,0,0,0,0,0c0,0,0,0,0,0c0,0,0,0,0,0c0,0,0,0,0.1,0.1c0,0,0,0,0,0
		c0,0,0,0,0.1,0.1c0,0,0,0,0,0c0,0,0,0,0.1,0.1c0,0,0,0,0,0c1.5,1.5,3,3,4.5,4.5l0,0c0,0,0.1,0.1,0.1,0.1c0,0,0,0,0,0
		c0,0,0,0,0.1,0.1c0,0,0,0,0,0c0,0,0,0,0.1,0.1c0,0,0,0,0,0c0,0,0,0,0.1,0.1c0,0,0,0,0,0c0,0,0,0,0.1,0.1c0,0,0,0,0,0c0,0,0,0,0,0
		c0,0,0,0,0,0c0,0,0,0,0,0c0,0,0,0,0,0c0,0,0,0,0,0c0,0,0,0,0,0c0,0,0,0,0,0c0,0,0,0,0,0c0,0,0,0,0,0c0,0,0,0,0,0c0,0,0,0,0,0
		c0,0,0,0,0,0c0,0,0,0,0,0c0,0,0,0,0,0c0,0,0,0,0,0c0,0,0,0,0,0c0,0,0,0,0,0c0,0,0,0,0,0c0,0,0,0,0,0c0,0,0,0,0,0c0,0,0,0,0,0
		c0,0,0,0,0,0c0,0,0,0,0,0c0,0,0,0,0.1,0.1l0,0c0,0,0,0,0.1,0.1l0,0c0,0,0,0,0.1,0.1v0c0,0,0,0,0.1,0.1l0,0c0.7,0.7,1.3,1.4,2,2.1
		l3.6-3.4C682.2,121.6,679.3,118.7,676.4,115.8L676.4,115.8z M657.9,99.8l-3.1,3.9c0.2,0.1,0.4,0.3,0.6,0.4v0c0,0,0,0,0.1,0.1l0,0
		c0,0,0,0,0.1,0.1l0,0c0,0,0,0,0.1,0l0,0c0,0,0,0,0.1,0l0,0c0,0,0,0,0.1,0l0,0c0,0,0,0,0.1,0c0,0,0,0,0,0c0,0,0,0,0,0c0,0,0,0,0,0
		c0,0,0,0,0,0c0,0,0,0,0,0c0,0,0,0,0,0c0,0,0,0,0,0c0,0,0,0,0,0c0,0,0,0,0,0c0,0,0,0,0,0c0,0,0,0,0,0c0,0,0,0,0,0c0,0,0,0,0,0
		c0,0,0,0,0,0c0,0,0,0,0,0c0,0,0,0,0,0c0,0,0,0,0,0c0,0,0,0,0,0c0,0,0,0,0,0c0,0,0,0,0,0c0,0,0,0,0,0c0,0,0,0,0,0c0,0,0,0,0,0
		c0,0,0,0,0,0c0,0,0,0,0,0c0,0,0,0,0,0c0,0,0,0,0,0c0,0,0,0,0,0c0,0,0,0,0,0c0,0,0,0,0,0c0,0,0,0,0,0c0,0,0,0,0,0c0,0,0,0,0,0
		c0,0,0,0,0,0c0,0,0,0,0,0c0,0,0,0,0,0c0,0,0,0,0,0c0,0,0,0,0,0c0,0,0,0,0,0c0,0,0,0,0,0c0,0,0,0,0,0c0,0,0,0,0,0c0,0,0,0,0,0
		c0,0,0,0,0,0c0,0,0,0,0,0c0,0,0,0,0,0c0,0,0,0,0,0c0,0,0,0,0,0c0,0,0,0,0,0c0,0,0,0,0,0c0,0,0,0,0,0c0,0,0,0,0,0c0,0,0,0,0,0
		c0,0,0,0,0.1,0c0,0,0,0,0,0c0,0,0,0,0.1,0c0,0,0,0,0,0c0,0,0,0,0.1,0l0,0c0,0,0,0,0.1,0l0,0c0,0,0,0,0.1,0.1l0,0c0,0,0,0,0.1,0.1
		l0,0c0,0,0,0,0.1,0.1l0,0c2,1.6,3.9,3.3,5.8,4.9l3.3-3.8C664.3,104.9,661.1,102.3,657.9,99.8L657.9,99.8z M638,85.5l-2.7,4.2
		c3.4,2.2,6.7,4.4,9.9,6.7l2.9-4.1C644.8,90.1,641.4,87.7,638,85.5L638,85.5z M616.8,73.3l-2.3,4.4c0,0,0.1,0,0.1,0l0,0
		c0,0,0.1,0,0.1,0c0,0,0,0,0,0c0,0,0.1,0,0.1,0c0,0,0,0,0,0c0,0,0,0,0.1,0c0,0,0,0,0,0c0,0,0,0,0.1,0c0,0,0,0,0,0c0,0,0,0,0.1,0
		c0,0,0,0,0,0c0,0,0,0,0.1,0c0,0,0,0,0,0c0,0,0,0,0.1,0c0,0,0,0,0,0c0,0,0,0,0,0c0,0,0,0,0,0c0,0,0,0,0,0c0,0,0,0,0,0c0,0,0,0,0,0
		c0,0,0,0,0,0c0,0,0,0,0,0c0,0,0,0,0,0c0,0,0,0,0,0c0,0,0,0,0,0c0,0,0,0,0,0c0,0,0,0,0,0c0,0,0,0,0,0c0,0,0,0,0.1,0c0,0,0,0,0,0
		c0,0,0,0,0.1,0c0,0,0,0,0,0c0,0,0,0,0.1,0c0,0,0,0,0,0c0,0,0,0,0.1,0c0,0,0,0,0,0c0,0,0,0,0.1,0c0,0,0,0,0,0c0,0,0,0,0.1,0
		c0,0,0,0,0,0c0,0,0,0,0.1,0c0,0,0,0,0,0c0,0,0,0,0.1,0c0,0,0,0,0,0c0,0,0,0,0.1,0c0,0,0,0,0,0c0,0,0,0,0.1,0c0,0,0,0,0,0
		c0,0,0,0,0.1,0c0,0,0,0,0,0c0,0,0,0,0.1,0l0,0c0,0,0,0,0.1,0c0,0,0,0,0,0c0,0,0,0,0.1,0l0,0c0,0,0,0,0.1,0l0,0c0,0,0,0,0.1,0l0,0
		c0,0,0,0,0.1,0c0,0,0,0,0,0c0,0,0,0,0.1,0l0,0c0,0,0,0,0.1,0c0,0,0,0,0,0c0,0,0,0,0.1,0c0,0,0,0,0,0c0,0,0,0,0.1,0c0,0,0,0,0,0
		c0,0,0,0,0.1,0c0,0,0,0,0,0c0,0,0,0,0.1,0c0,0,0,0,0,0c0,0,0,0,0.1,0c0,0,0,0,0,0c0,0,0,0,0.1,0c0,0,0,0,0,0c0,0,0,0,0.1,0
		c0,0,0,0,0,0c0,0,0,0,0.1,0c0,0,0,0,0,0c0,0,0,0,0.1,0c0,0,0,0,0,0c0,0,0,0,0.1,0c0,0,0,0,0,0c0,0,0,0,0.1,0c0,0,0,0,0,0
		c0,0,0,0,0,0c0,0,0,0,0,0c0,0,0,0,0,0c0,0,0,0,0,0c0,0,0,0,0,0c0,0,0,0,0,0c0,0,0,0,0,0c0,0,0,0,0,0c0,0,0,0,0,0c0,0,0,0,0,0
		c0,0,0,0,0,0c0,0,0,0,0,0c0,0,0,0,0,0c0,0,0,0,0,0c0,0,0,0,0,0c0,0,0,0,0,0c0,0,0,0,0,0c0,0,0,0,0,0c0,0,0,0,0,0c0,0,0,0,0.1,0
		c0,0,0,0,0,0c0,0,0,0,0.1,0c0,0,0,0,0,0c0,0,0,0,0.1,0c0,0,0,0,0,0c0,0,0,0,0.1,0c0,0,0,0,0,0c0,0,0,0,0.1,0c0,0,0,0,0,0
		c0,0,0,0,0.1,0c0,0,0,0,0,0c0,0,0,0,0.1,0c0,0,0,0,0,0c0,0,0,0,0.1,0c0,0,0,0,0,0c0,0,0,0,0.1,0c0,0,0,0,0,0c0,0,0,0,0.1,0
		c0,0,0,0,0,0c0,0,0,0,0.1,0c0,0,0,0,0,0c0,0,0,0,0.1,0c0,0,0,0,0,0c0,0,0,0,0.1,0c0,0,0,0,0,0c0,0,0,0,0.1,0c0,0,0,0,0,0
		c0,0,0,0,0.1,0c0,0,0,0,0,0c0,0,0,0,0.1,0c0,0,0,0,0,0c0,0,0,0,0.1,0c0,0,0,0,0,0c0,0,0,0,0.1,0c0,0,0,0,0,0c0,0,0,0,0.1,0
		c0,0,0,0,0,0c0,0,0,0,0.1,0c0,0,0,0,0,0c0,0,0,0,0.1,0c0,0,0,0,0,0c0,0,0,0,0.1,0c0,0,0,0,0,0c0,0,0,0,0.1,0c0,0,0,0,0,0
		c0,0,0,0,0.1,0c0,0,0,0,0,0c0,0,0,0,0.1,0c0,0,0,0,0,0c0,0,0,0,0.1,0c0,0,0,0,0,0c0,0,0,0,0.1,0c0,0,0,0,0,0c0,0,0,0,0.1,0
		c0,0,0,0,0,0c0,0,0,0,0.1,0c0,0,0,0,0,0c0,0,0,0,0.1,0c0,0,0,0,0,0c0,0,0,0,0.1,0c0,0,0,0,0,0c0,0,0,0,0.1,0c0,0,0,0,0,0
		c0,0,0,0,0,0c0,0,0,0,0,0c0,0,0,0,0.1,0c0,0,0,0,0,0c0,0,0,0,0.1,0c0,0,0,0,0,0c0,0,0,0,0.1,0c0,0,0,0,0,0c0,0,0,0,0,0
		c1,0.6,2,1.1,3,1.7l2.5-4.3C624.1,77.1,620.4,75.1,616.8,73.3L616.8,73.3z M594.6,63.1l-1.9,4.6c3.7,1.5,7.4,3.1,11,4.7l2.1-4.5
		C602.1,66.2,598.4,64.6,594.6,63.1L594.6,63.1z M571.4,55.1l-1.4,4.8c3.9,1.1,7.7,2.3,11.4,3.6l1.6-4.7
		C579.3,57.5,575.3,56.3,571.4,55.1L571.4,55.1z M547.6,49.4l-0.9,4.9c1.5,0.3,3,0.6,4.4,0.9l0,0c0,0,0.1,0,0.1,0c0,0,0,0,0,0
		c0,0,0.1,0,0.1,0c0,0,0,0,0,0c0,0,0,0,0.1,0c0,0,0,0,0,0c0,0,0,0,0.1,0c0,0,0,0,0,0c0,0,0,0,0,0c0,0,0,0,0.1,0c0,0,0,0,0,0
		c0,0,0,0,0.1,0c0,0,0,0,0,0c0,0,0,0,0.1,0c0,0,0,0,0,0c0,0,0,0,0.1,0c0,0,0,0,0,0c0,0,0,0,0.1,0c0,0,0,0,0,0c0,0,0.1,0,0.1,0
		c0,0,0,0,0,0c0,0,0,0,0.1,0c0,0,0,0,0,0c0,0,0.1,0,0.1,0c0,0,0,0,0,0c0,0,0.1,0,0.1,0c0,0,0,0,0,0c2,0.4,4,0.9,6,1.4l1.2-4.9
		C555.7,51.1,551.6,50.2,547.6,49.4L547.6,49.4z M523.4,46.1l-0.5,5c4,0.4,8,0.8,11.9,1.4l0.7-5C531.5,46.9,527.5,46.4,523.4,46.1
		L523.4,46.1z M500,45v5c0,0,0.1,0,0.1,0c0,0,0,0,0,0c0,0,0,0,0.1,0c0,0,0,0,0,0c0,0,0,0,0.1,0c0,0,0,0,0,0c0,0,0,0,0.1,0
		c0,0,0,0,0,0c0,0,0,0,0.1,0c0,0,0,0,0,0c0,0,0.1,0,0.1,0c0,0,0,0,0,0c0,0,0.1,0,0.1,0c0,0,0,0,0,0c0,0,0,0,0.1,0c0,0,0,0,0,0
		c0,0,0,0,0.1,0c0,0,0,0,0,0c0,0,0,0,0.1,0c0,0,0,0,0,0c0,0,0,0,0.1,0c0,0,0,0,0,0c0,0,0.1,0,0.1,0c0,0,0,0,0,0c0,0,0.1,0,0.1,0
		c0,0,0,0,0,0c0,0,0,0,0.1,0c0,0,0,0,0,0c0,0,0,0,0.1,0c0,0,0,0,0,0c0,0,0,0,0.1,0c0,0,0,0,0,0c0,0,0,0,0.1,0c0,0,0,0,0,0
		c0,0,0.1,0,0.1,0c0,0,0,0,0,0c0,0,0,0,0.1,0c0,0,0,0,0,0c0,0,0,0,0.1,0c0,0,0,0,0,0c0,0,0,0,0.1,0c0,0,0,0,0,0c0,0,0,0,0.1,0
		c0,0,0,0,0,0c0,0,0.1,0,0.1,0l0,0c0,0,0.1,0,0.1,0c0,0,0,0,0,0c0,0,0,0,0.1,0c0,0,0,0,0,0c0,0,0,0,0.1,0c0,0,0,0,0,0c0,0,0,0,0.1,0
		c0,0,0,0,0,0c0,0,0.1,0,0.1,0l0,0c0.1,0,0.1,0,0.2,0c0,0,0,0,0,0c0,0,0.1,0,0.1,0c0,0,0,0,0,0c0,0,0,0,0.1,0c0,0,0,0,0,0
		c0,0,0,0,0.1,0c0,0,0,0,0,0c0,0,0.1,0,0.1,0l0,0c0,0,0.1,0,0.1,0l0,0c0,0,0.1,0,0.1,0c0,0,0,0,0,0c0,0,0.1,0,0.1,0l0,0
		c0,0,0.1,0,0.1,0c0,0,0,0,0,0c0,0,0.1,0,0.1,0l0,0c0,0,0.1,0,0.1,0l0,0c0.1,0,0.1,0,0.2,0l0,0c0,0,0.1,0,0.1,0l0,0c0,0,0,0,0.1,0
		c0,0,0,0,0,0c0,0,0.1,0,0.1,0l0,0c0.1,0,0.1,0,0.2,0l0,0c0,0,0.1,0,0.1,0c0,0,0,0,0,0c0,0,0,0,0.1,0c0,0,0,0,0,0c0,0,0,0,0.1,0
		c0,0,0,0,0,0c0,0,0.1,0,0.1,0l0,0c0.1,0,0.2,0,0.3,0l0,0c0,0,0.1,0,0.1,0l0,0c0,0,0.1,0,0.1,0l0,0c0.1,0,0.2,0,0.3,0l0,0
		c0,0,0.1,0,0.1,0l0,0c0,0,0.1,0,0.1,0l0,0c0,0,0.1,0,0.1,0l0,0c0.1,0,0.2,0,0.3,0l0,0c0,0,0.1,0,0.1,0l0,0c0,0,0.1,0,0.1,0l0,0
		c0,0,0.1,0,0.1,0l0,0c0.1,0,0.2,0,0.3,0l0,0c0,0,0.1,0,0.1,0l0,0c0,0,0.1,0,0.1,0l0,0c0,0,0.1,0,0.1,0l0,0c0.1,0,0.2,0,0.3,0l0,0
		c0,0,0.1,0,0.1,0l0,0c0,0,0.1,0,0.1,0l0,0c0,0,0.1,0,0.1,0l0,0c0.1,0,0.2,0,0.3,0l0,0c0,0,0.1,0,0.1,0l0,0c0,0,0.1,0,0.1,0l0,0
		c0.1,0,0.2,0,0.3,0l0,0c0,0,0.1,0,0.1,0l0,0c0,0,0.1,0,0.1,0l0,0c0,0,0.1,0,0.1,0l0,0c0.1,0,0.2,0,0.3,0l0,0c0,0,0.1,0,0.1,0l0,0
		c0,0,0.1,0,0.1,0c0,0,0,0,0,0c0,0,0.1,0,0.1,0l0,0c0.1,0,0.2,0,0.3,0c0,0,0,0,0,0c0,0,0.1,0,0.1,0l0,0c0,0,0.1,0,0.1,0l0,0
		c0,0,0.1,0,0.1,0l0,0c0.1,0,0.1,0,0.2,0l0,0c0,0,0.1,0,0.1,0l0,0c0,0,0.1,0,0.1,0l0,0c0,0,0,0,0.1,0c0,0,0,0,0,0c0,0,0.1,0,0.1,0
		l0,0c0,0,0,0,0,0l0.2-5C507.5,45.1,503.7,45,500,45L500,45z"/>
</g>
<circle fill-rule="evenodd" clip-rule="evenodd" fill="#77C47E" cx="500" cy="300" r="30"/>
<g>
	<path fill="#E4E4E4" d="M449.4,471.8v6.7h-1.2v-6.6l-7.2-10.2h1.6l6.3,9l6.3-9h1.5L449.4,471.8z"/>
	<path fill="#E4E4E4" d="M462.4,478.8c-3.6,0-6.3-2.9-6.3-6.4v0c0-3.4,2.7-6.4,6.3-6.4c3.6,0,6.3,2.9,6.3,6.4v0
		C468.7,475.8,466.1,478.8,462.4,478.8z M467.5,472.4c0-3-2.2-5.3-5-5.3c-2.9,0-5,2.4-5,5.3v0c0,3,2.2,5.3,5,5.3
		C465.4,477.7,467.5,475.3,467.5,472.4L467.5,472.4z"/>
	<path fill="#E4E4E4" d="M481.4,478.5v-2.3c-0.8,1.4-2.2,2.6-4.4,2.6c-3.1,0-4.9-2.1-4.9-5v-7.5h1.2v7.3c0,2.5,1.4,4.2,3.9,4.2
		c2.4,0,4.2-1.8,4.2-4.4v-7.1h1.2v12.2H481.4z"/>
	<path fill="#E4E4E4" d="M493.6,467.4c-2.8,0-5.3,2.1-5.3,6.1v5h-1.2v-12.2h1.2v3.5c1-2.2,3-3.8,5.4-3.7v1.3H493.6z"/>
	<path fill="#E4E4E4" d="M518.2,478.5l-2.1-4.7h-9.9l-2.1,4.7h-1.3l7.8-16.9h1.2l7.8,16.9H518.2z M511.1,462.9l-4.4,9.7h8.9
		L511.1,462.9z"/>
	<path fill="#E4E4E4" d="M537.6,478.6h-1l-4.9-14.6l-4.9,14.6h-1l-6.1-16.9h1.4l5.3,15l4.9-15h1l4.9,15l5.3-15h1.3L537.6,478.6z"/>
	<path fill="#E4E4E4" d="M552.6,478.7c-2.7,0-4.8-0.9-6.8-2.7l0.8-0.9c1.8,1.7,3.6,2.5,6,2.5c2.5,0,4.2-1.4,4.2-3.3v0
		c0-1.8-0.9-2.8-4.8-3.6c-4-0.8-5.7-2.2-5.7-4.7v0c0-2.5,2.3-4.4,5.4-4.4c2.4,0,4.1,0.7,5.8,2l-0.8,1c-1.6-1.4-3.2-1.9-5-1.9
		c-2.5,0-4.1,1.4-4.1,3.2v0c0,1.8,0.9,2.9,4.9,3.7c3.9,0.8,5.5,2.2,5.5,4.6v0C558.2,476.9,555.9,478.7,552.6,478.7z"/>
	<path fill="#E4E4E4" d="M432.7,506.5c1.9,0,3.2-0.8,4.2-1.9l0.8,0.7c-1.2,1.3-2.7,2.3-5.1,2.3c-3.2,0-6-2.6-6-6.4v0
		c0-3.6,2.5-6.4,5.8-6.4c3.4,0,5.6,2.8,5.6,6.4v0c0,0.2,0,0.2,0,0.4h-10.2C428.1,504.7,430.3,506.5,432.7,506.5z M436.8,500.6
		c-0.2-2.5-1.6-4.8-4.4-4.8c-2.4,0-4.3,2-4.5,4.8H436.8z"/>
	<path fill="#E4E4E4" d="M450.8,507.3V500c0-2.5-1.4-4.2-3.9-4.2c-2.4,0-4.2,1.8-4.2,4.4v7.1h-1.2v-12.2h1.2v2.3
		c0.8-1.4,2.2-2.6,4.4-2.6c3.1,0,4.9,2.1,4.9,5v7.5H450.8z"/>
	<path fill="#E4E4E4" d="M461.5,507.4h-1l-5.5-12.3h1.4L461,506l4.7-10.9h1.3L461.5,507.4z"/>
	<path fill="#E4E4E4" d="M470.2,491.9v-1.6h1.5v1.6H470.2z M470.3,507.3v-12.2h1.2v12.2H470.3z"/>
	<path fill="#E4E4E4" d="M482.6,496.2c-2.8,0-5.3,2.1-5.3,6.1v5h-1.2v-12.2h1.2v3.5c1-2.2,3-3.8,5.4-3.7v1.3H482.6z"/>
	<path fill="#E4E4E4" d="M491.2,507.6c-3.6,0-6.3-2.9-6.3-6.4v0c0-3.4,2.7-6.4,6.3-6.4c3.6,0,6.3,2.9,6.3,6.4v0
		C497.5,504.6,494.8,507.6,491.2,507.6z M496.2,501.2c0-3-2.2-5.3-5-5.3c-2.9,0-5,2.4-5,5.3v0c0,3,2.2,5.3,5,5.3
		C494.1,506.5,496.2,504.1,496.2,501.2L496.2,501.2z"/>
	<path fill="#E4E4E4" d="M510.4,507.3V500c0-2.5-1.4-4.2-3.9-4.2c-2.4,0-4.2,1.8-4.2,4.4v7.1h-1.2v-12.2h1.2v2.3
		c0.8-1.4,2.2-2.6,4.4-2.6c3.1,0,4.9,2.1,4.9,5v7.5H510.4z"/>
	<path fill="#E4E4E4" d="M533.2,507.3V500c0-2.6-1.4-4.2-3.6-4.2c-2.1,0-3.9,1.6-3.9,4.3v7.1h-1.2V500c0-2.5-1.4-4.1-3.6-4.1
		c-2.2,0-3.9,1.9-3.9,4.4v7.1h-1.2v-12.2h1.2v2.2c0.8-1.3,1.9-2.5,4.1-2.5c2.1,0,3.5,1.2,4.1,2.6c0.8-1.4,2.1-2.6,4.4-2.6
		c2.9,0,4.7,2,4.7,5.1v7.4H533.2z"/>
	<path fill="#E4E4E4" d="M543.9,506.5c1.9,0,3.2-0.8,4.2-1.9l0.8,0.7c-1.2,1.3-2.7,2.3-5.1,2.3c-3.2,0-6-2.6-6-6.4v0
		c0-3.6,2.5-6.4,5.8-6.4c3.4,0,5.6,2.8,5.6,6.4v0c0,0.2,0,0.2,0,0.4h-10.2C539.3,504.7,541.5,506.5,543.9,506.5z M548,500.6
		c-0.2-2.5-1.6-4.8-4.4-4.8c-2.4,0-4.3,2-4.5,4.8H548z"/>
	<path fill="#E4E4E4" d="M562,507.3V500c0-2.5-1.4-4.2-3.9-4.2c-2.4,0-4.2,1.8-4.2,4.4v7.1h-1.2v-12.2h1.2v2.3
		c0.8-1.4,2.2-2.6,4.4-2.6c3.1,0,4.9,2.1,4.9,5v7.5H562z"/>
	<path fill="#E4E4E4" d="M571.5,507.5c-1.9,0-3.4-1-3.4-3.4v-8h-1.8v-1.1h1.8v-3.9h1.2v3.9h4.3v1.1h-4.3v7.9c0,1.8,1,2.4,2.4,2.4
		c0.6,0,1.1-0.1,1.8-0.4v1.1C572.8,507.4,572.2,507.5,571.5,507.5z"/>
</g>
<g>
	<path fill="#77C47E" d="M471.1,360.7c-5.2,0-8.9-3.9-8.9-8.6v0c0-4.8,3.8-8.7,9-8.7c5.2,0,8.9,3.9,8.9,8.6v0
		C480.1,356.8,476.3,360.7,471.1,360.7z M476.2,352c0-2.9-2.1-5.3-5.1-5.3c-3,0-5,2.4-5,5.2v0c0,2.9,2.1,5.3,5.1,5.3
		S476.2,354.9,476.2,352L476.2,352z"/>
	<path fill="#77C47E" d="M490.7,360.6c-1.9,0-3.1-0.9-4-1.9v5.5H483v-16.7h3.6v1.8c0.9-1.2,2.1-2.1,4-2.1c3,0,5.9,2.4,5.9,6.6v0
		C496.5,358.3,493.7,360.6,490.7,360.6z M492.9,353.9c0-2.1-1.4-3.6-3.1-3.6s-3.1,1.4-3.1,3.6v0c0,2.1,1.4,3.6,3.1,3.6
		S492.9,356.2,492.9,353.9L492.9,353.9z"/>
	<path fill="#77C47E" d="M503.7,360.6c-1.8,0-3.8-0.6-5.5-1.9l1.6-2.4c1.4,1,2.9,1.5,4.1,1.5c1.1,0,1.5-0.4,1.5-1v0
		c0-0.8-1.2-1.1-2.7-1.5c-1.8-0.5-3.8-1.4-3.8-3.9v0c0-2.6,2.1-4.1,4.7-4.1c1.6,0,3.4,0.6,4.8,1.5l-1.4,2.5
		c-1.3-0.7-2.5-1.2-3.5-1.2c-0.9,0-1.3,0.4-1.3,0.9v0c0,0.7,1.2,1.1,2.6,1.5c1.8,0.6,3.9,1.5,3.9,3.8v0
		C508.6,359.3,506.5,360.6,503.7,360.6z"/>
	<path fill="#77C47E" d="M523.2,355.2h-9c0.4,1.7,1.5,2.5,3.1,2.5c1.2,0,2.1-0.4,3.1-1.3l2.1,1.8c-1.2,1.5-2.9,2.4-5.3,2.4
		c-3.9,0-6.7-2.7-6.7-6.6v0c0-3.7,2.6-6.7,6.4-6.7c4.3,0,6.3,3.3,6.3,7v0C523.2,354.7,523.2,354.9,523.2,355.2z M517,350.2
		c-1.5,0-2.5,1.1-2.8,2.7h5.5C519.5,351.3,518.5,350.2,517,350.2z"/>
	<path fill="#77C47E" d="M537.9,355.2h-9c0.4,1.7,1.5,2.5,3.1,2.5c1.2,0,2.1-0.4,3.1-1.3l2.1,1.8c-1.2,1.5-2.9,2.4-5.3,2.4
		c-3.9,0-6.7-2.7-6.7-6.6v0c0-3.7,2.6-6.7,6.4-6.7c4.3,0,6.3,3.3,6.3,7v0C538,354.7,537.9,354.9,537.9,355.2z M531.7,350.2
		c-1.5,0-2.5,1.1-2.8,2.7h5.5C534.2,351.3,533.2,350.2,531.7,350.2z"/>
	<path fill="#77C47E" d="M464,389.4c-1.9,0-3.1-0.9-4-1.9v1.7h-3.6v-17.5h3.6v6.5c0.9-1.2,2.1-2.1,4-2.1c3,0,5.9,2.4,5.9,6.6v0
		C469.9,387.1,467.1,389.4,464,389.4z M466.2,382.7c0-2.1-1.4-3.6-3.1-3.6s-3.1,1.4-3.1,3.6v0c0,2.1,1.4,3.6,3.1,3.6
		S466.2,385,466.2,382.7L466.2,382.7z"/>
	<path fill="#77C47E" d="M480.1,389.2v-1.4c-0.9,1-2.1,1.6-3.9,1.6c-2.4,0-4.4-1.4-4.4-3.9v0c0-2.8,2.1-4.1,5.2-4.1
		c1.3,0,2.2,0.2,3.1,0.5v-0.2c0-1.5-0.9-2.4-2.8-2.4c-1.4,0-2.4,0.3-3.6,0.7l-0.9-2.8c1.4-0.6,2.8-1,5-1c4,0,5.7,2.1,5.7,5.5v7.5
		H480.1z M480.2,384c-0.6-0.3-1.4-0.5-2.3-0.5c-1.6,0-2.5,0.6-2.5,1.8v0c0,1,0.8,1.6,2,1.6c1.7,0,2.9-0.9,2.9-2.3V384z"/>
	<path fill="#77C47E" d="M491.3,389.4c-1.8,0-3.8-0.6-5.5-1.9l1.6-2.4c1.4,1,2.9,1.5,4.1,1.5c1.1,0,1.5-0.4,1.5-1v0
		c0-0.8-1.2-1.1-2.7-1.5c-1.8-0.5-3.8-1.4-3.8-3.9v0c0-2.6,2.1-4.1,4.7-4.1c1.6,0,3.4,0.6,4.8,1.5l-1.4,2.5
		c-1.3-0.7-2.5-1.2-3.5-1.2c-0.9,0-1.3,0.4-1.3,0.9v0c0,0.7,1.2,1.1,2.6,1.5c1.8,0.6,3.9,1.5,3.9,3.8v0
		C496.2,388.1,494.1,389.4,491.3,389.4z"/>
	<path fill="#77C47E" d="M503.2,389.4c-2.2,0-3.7-0.9-3.7-3.9v-6.1h-1.5v-3.1h1.5V373h3.6v3.3h3v3.1h-3v5.5c0,0.8,0.4,1.2,1.2,1.2
		c0.7,0,1.3-0.2,1.8-0.5v2.9C505.3,389.1,504.4,389.4,503.2,389.4z"/>
	<path fill="#77C47E" d="M508.8,374.9v-3.2h3.8v3.2H508.8z M508.9,389.2v-12.9h3.6v12.9H508.9z"/>
	<path fill="#77C47E" d="M522.3,389.5c-4,0-6.9-3-6.9-6.6v0c0-3.7,3-6.7,7-6.7c4,0,6.9,3,6.9,6.6v0
		C529.3,386.5,526.3,389.5,522.3,389.5z M525.7,382.8c0-1.9-1.4-3.6-3.4-3.6c-2.1,0-3.3,1.6-3.3,3.5v0c0,1.9,1.4,3.6,3.4,3.6
		C524.5,386.3,525.7,384.7,525.7,382.8L525.7,382.8z"/>
	<path fill="#77C47E" d="M540.1,389.2V382c0-1.7-0.8-2.6-2.2-2.6s-2.3,0.9-2.3,2.6v7.2H532v-12.9h3.6v1.8c0.8-1.1,1.9-2.1,3.8-2.1
		c2.8,0,4.4,1.8,4.4,4.8v8.3H540.1z"/>
</g>
<circle fill-rule="evenodd" clip-rule="evenodd" fill="#CFD0D0" cx="340" cy="170" r="30"/>
<g>
	<path fill="#CFD0D0" d="M297.6,230.6c-1.8,0-3.8-0.6-5.5-1.9l1.6-2.4c1.4,1,2.9,1.5,4.1,1.5c1.1,0,1.5-0.4,1.5-1v0
		c0-0.8-1.2-1.1-2.7-1.5c-1.8-0.5-3.8-1.4-3.8-3.9v0c0-2.6,2.1-4.1,4.7-4.1c1.6,0,3.4,0.6,4.8,1.5l-1.4,2.5
		c-1.3-0.7-2.5-1.2-3.5-1.2c-0.9,0-1.3,0.4-1.3,0.9v0c0,0.7,1.2,1.1,2.6,1.5c1.8,0.6,3.9,1.5,3.9,3.8v0
		C302.5,229.3,300.4,230.6,297.6,230.6z"/>
	<path fill="#CFD0D0" d="M317.1,225.2h-9c0.4,1.7,1.5,2.5,3.1,2.5c1.2,0,2.1-0.4,3.1-1.3l2.1,1.8c-1.2,1.5-2.9,2.4-5.3,2.4
		c-3.9,0-6.7-2.7-6.7-6.6v0c0-3.7,2.6-6.7,6.4-6.7c4.3,0,6.3,3.3,6.3,7v0C317.2,224.7,317.1,224.9,317.1,225.2z M310.9,220.2
		c-1.5,0-2.5,1.1-2.8,2.7h5.5C313.4,221.3,312.4,220.2,310.9,220.2z"/>
	<path fill="#CFD0D0" d="M325.9,230.7c-3.9,0-6.7-3-6.7-6.6v0c0-3.7,2.8-6.7,6.7-6.7c2.4,0,3.9,0.8,5.1,2.2l-2.2,2.4
		c-0.8-0.9-1.6-1.4-2.9-1.4c-1.8,0-3.1,1.6-3.1,3.5v0c0,2,1.3,3.6,3.3,3.6c1.2,0,2.1-0.5,3-1.4l2.1,2.2
		C329.9,229.7,328.5,230.7,325.9,230.7z"/>
	<path fill="#CFD0D0" d="M341.6,230.4v-1.8c-0.8,1.1-1.9,2.1-3.8,2.1c-2.8,0-4.4-1.8-4.4-4.8v-8.3h3.6v7.2c0,1.7,0.8,2.6,2.2,2.6
		s2.3-0.9,2.3-2.6v-7.2h3.6v12.9H341.6z"/>
	<path fill="#CFD0D0" d="M356.1,221.1c-2.4,0-3.9,1.5-3.9,4.5v4.8h-3.6v-12.9h3.6v2.6c0.7-1.8,1.9-2.9,4.1-2.8v3.8H356.1z"/>
	<path fill="#CFD0D0" d="M358.6,216.1v-3.2h3.8v3.2H358.6z M358.7,230.4v-12.9h3.6v12.9H358.7z"/>
	<path fill="#CFD0D0" d="M370.1,230.6c-2.2,0-3.7-0.9-3.7-3.9v-6.1h-1.5v-3.1h1.5v-3.3h3.6v3.3h3v3.1h-3v5.5c0,0.8,0.4,1.2,1.2,1.2
		c0.7,0,1.3-0.2,1.8-0.5v2.9C372.3,230.3,371.4,230.6,370.1,230.6z"/>
	<path fill="#CFD0D0" d="M383.1,230.7c-1,2.6-2,3.6-4.2,3.6c-1.3,0-2.3-0.3-3.2-0.9l1.2-2.6c0.5,0.3,1.1,0.5,1.6,0.5
		c0.6,0,1-0.2,1.3-0.8l-5-12.9h3.9l2.9,8.8l2.8-8.8h3.8L383.1,230.7z"/>
	<path fill="#CFD0D0" d="M310.7,263.1c-2.1,0-4.1-0.5-5.7-1.3l1.2-2.7c1.3,0.7,2.6,1.2,4.3,1.2c2.5,0,3.7-1.2,3.7-3.5v-0.6
		c-1.1,1.3-2.3,2.1-4.2,2.1c-3,0-5.7-2.2-5.7-6v0c0-3.8,2.8-6,5.7-6c2,0,3.2,0.8,4.2,1.9v-1.7h3.6v10
		C317.9,261.1,315.5,263.1,310.7,263.1z M314.3,252.1c0-1.8-1.4-3-3.1-3c-1.8,0-3.1,1.2-3.1,3v0c0,1.8,1.3,3,3.1,3
		C312.9,255.1,314.3,253.9,314.3,252.1L314.3,252.1z"/>
	<path fill="#CFD0D0" d="M328.7,249.9c-2.4,0-3.9,1.5-3.9,4.5v4.8h-3.6v-12.9h3.6v2.6c0.7-1.8,1.9-2.9,4.1-2.8v3.8H328.7z"/>
	<path fill="#CFD0D0" d="M337.5,259.5c-4,0-6.9-3-6.9-6.6v0c0-3.7,3-6.7,7-6.7c4,0,6.9,3,6.9,6.6v0
		C344.5,256.5,341.5,259.5,337.5,259.5z M340.9,252.8c0-1.9-1.4-3.6-3.4-3.6c-2.1,0-3.3,1.6-3.3,3.5v0c0,1.9,1.4,3.6,3.4,3.6
		C339.7,256.3,340.9,254.7,340.9,252.8L340.9,252.8z"/>
	<path fill="#CFD0D0" d="M355.2,259.2v-1.8c-0.8,1.1-1.9,2.1-3.8,2.1c-2.8,0-4.4-1.8-4.4-4.8v-8.3h3.6v7.2c0,1.7,0.8,2.6,2.2,2.6
		c1.4,0,2.3-0.9,2.3-2.6v-7.2h3.6v12.9H355.2z"/>
	<path fill="#CFD0D0" d="M369.7,259.4c-1.9,0-3.1-0.9-4-1.9v5.5h-3.6v-16.7h3.6v1.8c0.9-1.2,2.1-2.1,4-2.1c3,0,5.9,2.4,5.9,6.6v0
		C375.6,257.1,372.8,259.4,369.7,259.4z M372,252.7c0-2.1-1.4-3.6-3.1-3.6s-3.1,1.4-3.1,3.6v0c0,2.1,1.4,3.6,3.1,3.6
		S372,255,372,252.7L372,252.7z"/>
</g>
<circle fill-rule="evenodd" clip-rule="evenodd" fill="#CFD0D0" cx="660" cy="170" r="30"/>
<g>
	<path fill="#CFD0D0" d="M637.9,230.4v-16.8h12.7v3.3h-9v3.4h7.9v3.3h-7.9v3.5h9.1v3.3H637.9z"/>
	<path fill="#CFD0D0" d="M654,230.4v-16.8h3.7V227h8.4v3.4H654z"/>
	<path fill="#CFD0D0" d="M676.8,230.4h-8v-16.8h7.8c3.4,0,5.5,1.7,5.5,4.3v0c0,1.9-1,3-2.2,3.6c1.9,0.7,3.1,1.9,3.1,4.1v0
		C683.1,228.9,680.6,230.4,676.8,230.4z M678.5,218.6c0-1.1-0.9-1.7-2.4-1.7h-3.6v3.6h3.4C677.5,220.4,678.5,219.9,678.5,218.6
		L678.5,218.6z M679.4,225.3c0-1.1-0.8-1.8-2.7-1.8h-4.3v3.7h4.4C678.4,227.2,679.4,226.6,679.4,225.3L679.4,225.3z"/>
</g>
<circle fill-rule="evenodd" clip-rule="evenodd" fill="#CFD0D0" cx="500" cy="100" r="30"/>
<g>
	<path fill="#CFD0D0" d="M445.7,160.4V159c-0.9,1-2.1,1.6-3.9,1.6c-2.4,0-4.4-1.4-4.4-3.9v0c0-2.8,2.1-4.1,5.2-4.1
		c1.3,0,2.2,0.2,3.1,0.5v-0.2c0-1.5-0.9-2.4-2.8-2.4c-1.4,0-2.4,0.3-3.6,0.7l-0.9-2.8c1.4-0.6,2.8-1,5-1c4,0,5.7,2.1,5.7,5.5v7.5
		H445.7z M445.7,155.2c-0.6-0.3-1.4-0.5-2.3-0.5c-1.6,0-2.5,0.6-2.5,1.8v0c0,1,0.8,1.6,2,1.6c1.7,0,2.9-0.9,2.9-2.3V155.2z"/>
	<path fill="#CFD0D0" d="M460.4,160.4v-1.8c-0.8,1.1-1.9,2.1-3.8,2.1c-2.8,0-4.4-1.8-4.4-4.8v-8.3h3.6v7.2c0,1.7,0.8,2.6,2.2,2.6
		s2.3-0.9,2.3-2.6v-7.2h3.6v12.9H460.4z"/>
	<path fill="#CFD0D0" d="M471.6,160.6c-2.2,0-3.7-0.9-3.7-3.9v-6.1h-1.5v-3.1h1.5v-3.3h3.6v3.3h3v3.1h-3v5.5c0,0.8,0.4,1.2,1.2,1.2
		c0.7,0,1.3-0.2,1.8-0.5v2.9C473.7,160.3,472.9,160.6,471.6,160.6z"/>
	<path fill="#CFD0D0" d="M483.6,160.7c-4,0-6.9-3-6.9-6.6v0c0-3.7,3-6.7,7-6.7c4,0,6.9,3,6.9,6.6v0
		C490.5,157.7,487.6,160.7,483.6,160.7z M486.9,154c0-1.9-1.4-3.6-3.4-3.6c-2.1,0-3.3,1.6-3.3,3.5v0c0,1.9,1.4,3.6,3.4,3.6
		C485.7,157.5,486.9,155.9,486.9,154L486.9,154z"/>
	<path fill="#CFD0D0" d="M497.7,160.6c-1.8,0-3.8-0.6-5.5-1.9l1.6-2.4c1.4,1,2.9,1.5,4.1,1.5c1.1,0,1.5-0.4,1.5-1v0
		c0-0.8-1.2-1.1-2.7-1.5c-1.8-0.5-3.8-1.4-3.8-3.9v0c0-2.6,2.1-4.1,4.7-4.1c1.6,0,3.4,0.6,4.8,1.5l-1.4,2.5
		c-1.3-0.7-2.5-1.2-3.5-1.2c-0.9,0-1.3,0.4-1.3,0.9v0c0,0.7,1.2,1.1,2.6,1.5c1.8,0.6,3.9,1.5,3.9,3.8v0
		C502.6,159.3,500.5,160.6,497.7,160.6z"/>
	<path fill="#CFD0D0" d="M511.3,160.7c-3.9,0-6.7-3-6.7-6.6v0c0-3.7,2.8-6.7,6.7-6.7c2.4,0,3.9,0.8,5.1,2.2l-2.2,2.4
		c-0.8-0.9-1.6-1.4-2.9-1.4c-1.8,0-3.1,1.6-3.1,3.5v0c0,2,1.3,3.6,3.3,3.6c1.2,0,2.1-0.5,3-1.4l2.1,2.2
		C515.3,159.7,513.9,160.7,511.3,160.7z"/>
	<path fill="#CFD0D0" d="M526.5,160.4V159c-0.9,1-2.1,1.6-3.9,1.6c-2.4,0-4.4-1.4-4.4-3.9v0c0-2.8,2.1-4.1,5.2-4.1
		c1.3,0,2.2,0.2,3.1,0.5v-0.2c0-1.5-0.9-2.4-2.8-2.4c-1.4,0-2.4,0.3-3.6,0.7l-0.9-2.8c1.4-0.6,2.8-1,5-1c4,0,5.7,2.1,5.7,5.5v7.5
		H526.5z M526.5,155.2c-0.6-0.3-1.4-0.5-2.3-0.5c-1.6,0-2.5,0.6-2.5,1.8v0c0,1,0.8,1.6,2,1.6c1.7,0,2.9-0.9,2.9-2.3V155.2z"/>
	<path fill="#CFD0D0" d="M533.3,160.4v-17.5h3.6v17.5H533.3z"/>
	<path fill="#CFD0D0" d="M552.3,155.2h-9c0.4,1.7,1.5,2.5,3.1,2.5c1.2,0,2.1-0.4,3.1-1.3l2.1,1.8c-1.2,1.5-2.9,2.4-5.3,2.4
		c-3.9,0-6.7-2.7-6.7-6.6v0c0-3.7,2.6-6.7,6.4-6.7c4.3,0,6.3,3.3,6.3,7v0C552.4,154.7,552.4,154.9,552.3,155.2z M546.1,150.2
		c-1.5,0-2.5,1.1-2.8,2.7h5.5C548.6,151.3,547.7,150.2,546.1,150.2z"/>
	<path fill="#CFD0D0" d="M562.7,151.1c-2.4,0-3.9,1.5-3.9,4.5v4.8h-3.6v-12.9h3.6v2.6c0.7-1.8,1.9-2.9,4.1-2.8v3.8H562.7z"/>
	<path fill="#CFD0D0" d="M470.7,193.1c-2.1,0-4.1-0.5-5.7-1.3l1.2-2.7c1.3,0.7,2.6,1.2,4.3,1.2c2.5,0,3.7-1.2,3.7-3.5v-0.6
		c-1.1,1.3-2.3,2.1-4.2,2.1c-3,0-5.7-2.2-5.7-6v0c0-3.8,2.8-6,5.7-6c2,0,3.2,0.8,4.2,1.9v-1.7h3.6v10
		C477.9,191.1,475.5,193.1,470.7,193.1z M474.3,182.1c0-1.8-1.4-3-3.1-3c-1.8,0-3.1,1.2-3.1,3v0c0,1.8,1.3,3,3.1,3
		C472.9,185.1,474.3,183.9,474.3,182.1L474.3,182.1z"/>
	<path fill="#CFD0D0" d="M488.7,179.9c-2.4,0-3.9,1.5-3.9,4.5v4.8h-3.6v-12.9h3.6v2.6c0.7-1.8,1.9-2.9,4.1-2.8v3.8H488.7z"/>
	<path fill="#CFD0D0" d="M497.5,189.5c-4,0-6.9-3-6.9-6.6v0c0-3.7,3-6.7,7-6.7c4,0,6.9,3,6.9,6.6v0
		C504.5,186.5,501.5,189.5,497.5,189.5z M500.9,182.8c0-1.9-1.4-3.6-3.4-3.6c-2.1,0-3.3,1.6-3.3,3.5v0c0,1.9,1.4,3.6,3.4,3.6
		C499.7,186.3,500.9,184.7,500.9,182.8L500.9,182.8z"/>
	<path fill="#CFD0D0" d="M515.2,189.2v-1.8c-0.8,1.1-1.9,2.1-3.8,2.1c-2.8,0-4.4-1.8-4.4-4.8v-8.3h3.6v7.2c0,1.7,0.8,2.6,2.2,2.6
		c1.4,0,2.3-0.9,2.3-2.6v-7.2h3.6v12.9H515.2z"/>
	<path fill="#CFD0D0" d="M529.7,189.4c-1.9,0-3.1-0.9-4-1.9v5.5h-3.6v-16.7h3.6v1.8c0.9-1.2,2.1-2.1,4-2.1c3,0,5.9,2.4,5.9,6.6v0
		C535.6,187.1,532.8,189.4,529.7,189.4z M532,182.7c0-2.1-1.4-3.6-3.1-3.6s-3.1,1.4-3.1,3.6v0c0,2.1,1.4,3.6,3.1,3.6
		S532,185,532,182.7L532,182.7z"/>
</g>
<g>
	<g>
		
			<line fill="none" stroke="#979797" stroke-width="5" stroke-linecap="square" stroke-miterlimit="10" x1="500.5" y1="214.4" x2="500.5" y2="247.6"/>
		<g>
			<polygon fill="#979797" points="500.5,202 493.4,219.4 500.5,215.3 507.6,219.4 			"/>
		</g>
		<g>
			<polygon fill="#979797" points="500.5,260 493.4,242.6 500.5,246.7 507.6,242.6 			"/>
		</g>
	</g>
</g>
<g>
	<g>
		
			<line fill="none" stroke="#979797" stroke-width="5" stroke-linecap="square" stroke-miterlimit="10" x1="434.8" y1="245.1" x2="460.3" y2="266.4"/>
		<g>
			<polygon fill="#979797" points="425.3,237.2 434.1,253.8 435.5,245.7 443.2,242.9 			"/>
		</g>
		<g>
			<polygon fill="#979797" points="469.8,274.3 451.9,268.6 459.6,265.8 461,257.7 			"/>
		</g>
	</g>
</g>
<g>
	<g>
		
			<line fill="none" stroke="#979797" stroke-width="5" stroke-linecap="square" stroke-miterlimit="10" x1="566.3" y1="245.2" x2="540.7" y2="266.5"/>
		<g>
			<polygon fill="#979797" points="575.8,237.3 557.9,243 565.6,245.8 567,253.9 			"/>
		</g>
		<g>
			<polygon fill="#979797" points="531.2,274.4 540.1,257.8 541.4,265.9 549.2,268.7 			"/>
		</g>
	</g>
</g>
</svg>
