<?xml version="1.0" encoding="utf-8"?>
<!-- Generator: Adobe Illustrator 19.1.0, SVG Export Plug-In . SVG Version: 6.00 Build 0)  -->
<svg version="1.1" id="Layer_1" xmlns="http://www.w3.org/2000/svg" xmlns:xlink="http://www.w3.org/1999/xlink" x="0px" y="0px"
	 viewBox="488 -288 1000 600" style="enable-background:new 488 -288 1000 600;" xml:space="preserve">
<style type="text/css">
	.st0{fill:none;stroke:#FAA629;stroke-width:3;stroke-miterlimit:10;}
	.st1{fill:none;stroke:#FFFFFF;stroke-width:3;stroke-miterlimit:10;stroke-dasharray:5.8889,5.8889;}
	.st2{fill:none;stroke:#BDBDBD;stroke-width:3;stroke-miterlimit:10;}
	.st3{fill:#BDBDBD;}
	.st4{fill:none;stroke:#FFFFFF;stroke-width:3;stroke-miterlimit:10;}
	.st5{fill:#FFFFFF;}
</style>
<circle class="st0" cx="1150.7" cy="164.2" r="28.6"/>
<g>
	<circle class="st1" cx="1025" cy="164.2" r="30"/>
</g>
<g>
	<g>
		<line class="st2" x1="1100" y1="164.5" x2="1079" y2="164.5"/>
		<g>
			<polygon class="st3" points="1088.6,151.9 1090.6,154.1 1079.8,164.2 1090.6,174.3 1088.6,176.5 1075.4,164.2 			"/>
		</g>
	</g>
</g>
<circle class="st4" cx="946.6" cy="-196.4" r="30"/>
<g>
	<path class="st5" d="M879.7-127.9v-7.2c0-1.7-0.8-2.6-2.2-2.6c-1.4,0-2.3,0.9-2.3,2.6v7.2h-3.6v-17.5h3.6v6.5
		c0.8-1.1,1.9-2.1,3.8-2.1c2.8,0,4.4,1.8,4.4,4.8v8.3H879.7z"/>
	<path class="st5" d="M898.5-133.1h-9c0.4,1.7,1.5,2.5,3.1,2.5c1.2,0,2.1-0.4,3.1-1.3l2.1,1.8c-1.2,1.5-2.9,2.4-5.3,2.4
		c-3.9,0-6.7-2.7-6.7-6.6v0c0-3.7,2.6-6.7,6.4-6.7c4.3,0,6.3,3.3,6.3,7v0C898.5-133.6,898.5-133.4,898.5-133.1z M892.3-138.1
		c-1.5,0-2.5,1.1-2.8,2.7h5.5C894.8-137,893.8-138.1,892.3-138.1z"/>
	<path class="st5" d="M908.8-127.9v-1.4c-0.9,1-2.1,1.6-3.9,1.6c-2.4,0-4.4-1.4-4.4-3.9v0c0-2.8,2.1-4.1,5.2-4.1
		c1.3,0,2.2,0.2,3.1,0.5v-0.2c0-1.5-0.9-2.4-2.8-2.4c-1.4,0-2.4,0.3-3.6,0.7l-0.9-2.8c1.4-0.6,2.8-1,5-1c4,0,5.7,2.1,5.7,5.5v7.5
		H908.8z M908.8-133.1c-0.6-0.3-1.4-0.5-2.3-0.5c-1.6,0-2.5,0.6-2.5,1.8v0c0,1,0.8,1.6,2,1.6c1.7,0,2.9-0.9,2.9-2.3V-133.1z"/>
	<path class="st5" d="M915.6-127.9v-17.5h3.6v17.5H915.6z"/>
	<path class="st5" d="M927-127.7c-2.2,0-3.7-0.9-3.7-3.9v-6.1h-1.5v-3.1h1.5v-3.3h3.6v3.3h3v3.1h-3v5.5c0,0.8,0.4,1.2,1.2,1.2
		c0.7,0,1.3-0.2,1.8-0.5v2.9C929.1-128,928.3-127.7,927-127.7z"/>
	<path class="st5" d="M940.8-127.9v-7.2c0-1.7-0.8-2.6-2.2-2.6c-1.4,0-2.3,0.9-2.3,2.6v7.2h-3.6v-17.5h3.6v6.5
		c0.8-1.1,1.9-2.1,3.8-2.1c2.8,0,4.4,1.8,4.4,4.8v8.3H940.8z"/>
	<path class="st5" d="M960.9-127.6c-3.9,0-6.7-3-6.7-6.6v0c0-3.7,2.8-6.7,6.7-6.7c2.4,0,3.9,0.8,5.1,2.2l-2.2,2.4
		c-0.8-0.9-1.6-1.4-2.9-1.4c-1.8,0-3.1,1.6-3.1,3.5v0c0,2,1.3,3.6,3.3,3.6c1.2,0,2.1-0.5,3-1.4l2.1,2.2
		C964.9-128.6,963.4-127.6,960.9-127.6z"/>
	<path class="st5" d="M976.6-127.9v-7.2c0-1.7-0.8-2.6-2.2-2.6c-1.4,0-2.3,0.9-2.3,2.6v7.2h-3.6v-17.5h3.6v6.5
		c0.8-1.1,1.9-2.1,3.8-2.1c2.8,0,4.4,1.8,4.4,4.8v8.3H976.6z"/>
	<path class="st5" d="M995.4-133.1h-9c0.4,1.7,1.5,2.5,3.1,2.5c1.2,0,2.1-0.4,3.1-1.3l2.1,1.8c-1.2,1.5-2.9,2.4-5.3,2.4
		c-3.9,0-6.7-2.7-6.7-6.6v0c0-3.7,2.6-6.7,6.4-6.7c4.3,0,6.3,3.3,6.3,7v0C995.5-133.6,995.4-133.4,995.4-133.1z M989.2-138.1
		c-1.5,0-2.5,1.1-2.8,2.7h5.5C991.7-137,990.7-138.1,989.2-138.1z"/>
	<path class="st5" d="M1004.2-127.6c-3.9,0-6.7-3-6.7-6.6v0c0-3.7,2.8-6.7,6.7-6.7c2.4,0,3.9,0.8,5.1,2.2l-2.2,2.4
		c-0.8-0.9-1.6-1.4-2.9-1.4c-1.8,0-3.1,1.6-3.1,3.5v0c0,2,1.3,3.6,3.3,3.6c1.2,0,2.1-0.5,3-1.4l2.1,2.2
		C1008.2-128.6,1006.8-127.6,1004.2-127.6z"/>
	<path class="st5" d="M1020.2-127.9l-3.4-5.3l-1.3,1.3v3.9h-3.6v-17.5h3.6v9.3l4.3-4.7h4.4l-4.9,5.1l5.1,7.8H1020.2z"/>
</g>
<circle class="st4" cx="946.6" cy="-16.1" r="30"/>
<g>
	<path class="st5" d="M918.1,56.3c-2.1,0-4.1-0.5-5.7-1.3l1.2-2.7c1.3,0.7,2.6,1.2,4.3,1.2c2.5,0,3.7-1.2,3.7-3.5v-0.6
		c-1.1,1.3-2.3,2.1-4.2,2.1c-3,0-5.7-2.2-5.7-6v0c0-3.8,2.8-6,5.7-6c2,0,3.2,0.8,4.2,1.9v-1.7h3.6v10
		C925.3,54.3,922.9,56.3,918.1,56.3z M921.7,45.3c0-1.8-1.4-3-3.1-3c-1.8,0-3.1,1.2-3.1,3v0c0,1.8,1.3,3,3.1,3
		C920.3,48.3,921.7,47.1,921.7,45.3L921.7,45.3z"/>
	<path class="st5" d="M936.1,43.1c-2.4,0-3.9,1.5-3.9,4.5v4.8h-3.6V39.5h3.6v2.6c0.7-1.8,1.9-2.9,4.1-2.8v3.8H936.1z"/>
	<path class="st5" d="M944.5,52.7c-4,0-6.9-3-6.9-6.6v0c0-3.7,3-6.7,7-6.7c4,0,6.9,3,6.9,6.6v0C951.5,49.7,948.5,52.7,944.5,52.7z
		 M947.9,46c0-1.9-1.4-3.6-3.4-3.6c-2.1,0-3.3,1.6-3.3,3.5v0c0,1.9,1.4,3.6,3.4,3.6C946.7,49.5,947.9,47.9,947.9,46L947.9,46z"/>
	<path class="st5" d="M962.2,52.4v-1.8c-0.8,1.1-1.9,2.1-3.8,2.1c-2.8,0-4.4-1.8-4.4-4.8v-8.3h3.6v7.2c0,1.7,0.8,2.6,2.2,2.6
		c1.4,0,2.3-0.9,2.3-2.6v-7.2h3.6v12.9H962.2z"/>
	<path class="st5" d="M976.8,52.6c-1.9,0-3.1-0.9-4-1.9v5.5h-3.6V39.5h3.6v1.8c0.9-1.2,2.1-2.1,4-2.1c3,0,5.9,2.4,5.9,6.6v0
		C982.6,50.3,979.8,52.6,976.8,52.6z M979,45.9c0-2.1-1.4-3.6-3.1-3.6s-3.1,1.4-3.1,3.6v0c0,2.1,1.4,3.6,3.1,3.6S979,48.2,979,45.9
		L979,45.9z"/>
</g>
<g>
	<g>
		<line class="st2" x1="947.5" y1="-102" x2="947.5" y2="-80"/>
		<g>
			<polygon class="st3" points="934.9,-90.2 937.1,-92.3 947.2,-81.4 957.3,-92.3 959.5,-90.2 947.2,-77 			"/>
		</g>
	</g>
</g>
<circle class="st4" cx="946.6" cy="164.2" r="30"/>
<circle class="st4" cx="868.2" cy="164.2" r="30"/>
<g>
	<path class="st5" d="M891.7,218.4v-3.2h3.8v3.2H891.7z M891.8,232.7v-12.9h3.6v12.9H891.8z"/>
	<path class="st5" d="M907,232.7v-7.2c0-1.7-0.8-2.6-2.2-2.6c-1.4,0-2.3,0.9-2.3,2.6v7.2h-3.6v-12.9h3.6v1.8
		c0.8-1.1,1.9-2.1,3.8-2.1c2.8,0,4.4,1.8,4.4,4.8v8.3H907z"/>
	<path class="st5" d="M918.3,232.9c-1.8,0-3.8-0.6-5.5-1.9l1.6-2.4c1.4,1,2.9,1.5,4.1,1.5c1.1,0,1.5-0.4,1.5-1v0
		c0-0.8-1.2-1.1-2.7-1.5c-1.8-0.5-3.8-1.4-3.8-3.9v0c0-2.6,2.1-4.1,4.7-4.1c1.6,0,3.4,0.6,4.8,1.5l-1.4,2.5
		c-1.3-0.7-2.5-1.2-3.5-1.2c-0.9,0-1.3,0.4-1.3,0.9v0c0,0.7,1.2,1.1,2.6,1.5c1.8,0.6,3.9,1.5,3.9,3.8v0
		C923.2,231.6,921.1,232.9,918.3,232.9z"/>
	<path class="st5" d="M929.9,232.9c-2.2,0-3.7-0.9-3.7-3.9V223h-1.5v-3.1h1.5v-3.3h3.6v3.3h3v3.1h-3v5.5c0,0.8,0.4,1.2,1.2,1.2
		c0.7,0,1.3-0.2,1.8-0.5v2.9C932.1,232.6,931.2,232.9,929.9,232.9z"/>
	<path class="st5" d="M943.1,232.7v-1.4c-0.9,1-2.1,1.6-3.9,1.6c-2.4,0-4.4-1.4-4.4-3.9v0c0-2.8,2.1-4.1,5.2-4.1
		c1.3,0,2.2,0.2,3.1,0.5v-0.2c0-1.5-0.9-2.4-2.8-2.4c-1.4,0-2.4,0.3-3.6,0.7l-0.9-2.8c1.4-0.6,2.8-1,5-1c4,0,5.7,2.1,5.7,5.5v7.5
		H943.1z M943.2,227.5c-0.6-0.3-1.4-0.5-2.3-0.5c-1.6,0-2.5,0.6-2.5,1.8v0c0,1,0.8,1.6,2,1.6c1.7,0,2.9-0.9,2.9-2.3V227.5z"/>
	<path class="st5" d="M957.9,232.7v-7.2c0-1.7-0.8-2.6-2.2-2.6c-1.4,0-2.3,0.9-2.3,2.6v7.2h-3.6v-12.9h3.6v1.8
		c0.8-1.1,1.9-2.1,3.8-2.1c2.8,0,4.4,1.8,4.4,4.8v8.3H957.9z"/>
	<path class="st5" d="M970.8,233c-3.9,0-6.7-3-6.7-6.6v0c0-3.7,2.8-6.7,6.7-6.7c2.4,0,3.9,0.8,5.1,2.2l-2.2,2.4
		c-0.8-0.9-1.6-1.4-2.9-1.4c-1.8,0-3.1,1.6-3.1,3.5v0c0,2,1.3,3.6,3.3,3.6c1.2,0,2.1-0.5,3-1.4l2.1,2.2
		C974.8,232,973.4,233,970.8,233z"/>
	<path class="st5" d="M990,227.5h-9c0.4,1.7,1.5,2.5,3.1,2.5c1.2,0,2.1-0.4,3.1-1.3l2.1,1.8c-1.2,1.5-2.9,2.4-5.3,2.4
		c-3.9,0-6.7-2.7-6.7-6.6v0c0-3.7,2.6-6.7,6.4-6.7c4.3,0,6.3,3.3,6.3,7v0C990.1,227,990,227.2,990,227.5z M983.8,222.5
		c-1.5,0-2.5,1.1-2.8,2.7h5.5C986.3,223.6,985.3,222.5,983.8,222.5z"/>
	<path class="st5" d="M997.3,232.9c-1.8,0-3.8-0.6-5.5-1.9l1.6-2.4c1.4,1,2.9,1.5,4.1,1.5c1.1,0,1.5-0.4,1.5-1v0
		c0-0.8-1.2-1.1-2.7-1.5c-1.8-0.5-3.8-1.4-3.8-3.9v0c0-2.6,2.1-4.1,4.7-4.1c1.6,0,3.4,0.6,4.8,1.5l-1.4,2.5
		c-1.3-0.7-2.5-1.2-3.5-1.2c-0.9,0-1.3,0.4-1.3,0.9v0c0,0.7,1.2,1.1,2.6,1.5c1.8,0.6,3.9,1.5,3.9,3.8v0
		C1002.2,231.6,1000.1,232.9,997.3,232.9z"/>
</g>
<g>
	<g>
		<line class="st2" x1="947.5" y1="81" x2="947.5" y2="103"/>
		<g>
			<polygon class="st3" points="934.9,92.6 937.1,90.5 947.2,101.4 957.3,90.5 959.5,92.6 947.2,105.8 			"/>
		</g>
	</g>
</g>
<g>
	<g>
		<line class="st2" x1="985.8" y1="72.6" x2="994.4" y2="92.4"/>
		<g>
			<polygon class="st3" points="979.2,88.2 980.4,85.4 994,91.4 998.9,77.4 1001.7,78.4 995.7,95.4 			"/>
		</g>
	</g>
</g>
<g>
	<g>
		<line class="st2" x1="908.5" y1="73.1" x2="899.9" y2="92.9"/>
		<g>
			<polygon class="st3" points="892.6,78.9 895.4,77.9 900.3,91.9 913.9,85.9 915.1,88.7 898.6,95.9 			"/>
		</g>
	</g>
</g>
</svg>
